SplineFontDB: 1.0
FontName: Kochi-Mincho-Non-Kanji
FullName: Kochi Mincho Non-Kanji
FamilyName: Kochi Mincho
Weight: Book
Copyright: Public Domain
Version: 0.01
ItalicAngle: 0
UnderlinePosition: -96
UnderlineWidth: 48
Ascent: 880
Descent: 144
FSType: 0
PfmFamily: 17
TTFWeight: 400
TTFWidth: 5
Panose: 2 0 6 9 0 0 0 0 0 0
LineGap: 0
VLineGap: 0
OS2TypoAscent: 880
OS2TypoDescent: -144
OS2WinAscent: 880
OS2WinDescent: 144
ScriptLang: 1
 1 kana 2 JAN  dflt 
TableOrder: GSUB 1
	'vert'
LangName: 65535 "Public Domain(except NAGA10)" "Kochi Mincho" "Regular" "Kochi Mincho" "Kochi Mincho" "Version 0.01" "Kochi-Mincho" "Kochi" 
LangName: 1033 "" "" "Regular" "Kochi Mincho" "" "Version 0.01" "" "Kochi" 
LangName: 1041 "+MNEw1jDqMMMwrzDJMOEwpDDz(NAGA10+MJKWZDBP)" "+Z3GYqGYOZx0A" "+ahlulgAA" "+Z3GYqGYOZx0A" "+Z3GYqGYOZx0A" "Version 0.01" "Kochi-Mincho" "+Z3GYqAAA" 
Encoding: unicode
UnicodeInterp: none
DisplaySize: -24
AntiAlias: 1
FitToEm: 1
WinInfo: 12274 17 4
BeginChars: 66143 702
StartChar: .notdef
Encoding: 0 -1 0
Width: 1024
Flags: W
Fore
400 400 m 1
 400 620 l 1
 620 620 l 1
 620 400 l 1
 400 400 l 1
EndSplineSet
EndChar
StartChar: exclam
Encoding: 33 33 3
Width: 512
Flags: W
Fore
256 777 m 0
 273.333 777 287.333 762.333 298 733 c 1
 298 654.333 294 581 286 513 c 128
 278 445 269.667 341.333 261 202 c 1
 255 187.333 249 187.333 243 202 c 1
 236.333 341.333 229.833 445 223.5 513 c 128
 217.167 581 214 654.333 214 733 c 1
 223.333 762.333 237.333 777 256 777 c 0
200 4 m 0
 200 18.6667 205.333 31.5 216 42.5 c 128
 226.667 53.5 239.667 59 255 59 c 0
 269.667 59 282.5 53.5 293.5 42.5 c 128
 304.5 31.5 310 18.6667 310 4 c 0
 310 -11.3333 304.5 -24.3333 293.5 -35 c 128
 282.5 -45.6667 269.667 -51 255 -51 c 0
 239.667 -51 226.667 -45.6667 216 -35 c 128
 205.333 -24.3333 200 -11.3333 200 4 c 0
EndSplineSet
EndChar
StartChar: quotedbl
Encoding: 34 34 4
Width: 512
Flags: W
Fore
107 780 m 0
 107 794.667 112.333 807.5 123 818.5 c 128
 133.667 829.5 146.667 835 162 835 c 0
 178 835 191.167 828 201.5 814 c 128
 211.833 800 217 783.667 217 765 c 0
 217 732.333 209.167 704.333 193.5 681 c 128
 177.833 657.667 151.667 634.333 115 611 c 1
 107 609 104.667 611.667 108 619 c 1
 132 644.333 146.5 664.167 151.5 678.5 c 128
 156.5 692.833 158.5 704.167 157.5 712.5 c 128
 156.5 720.833 152.5 726.167 145.5 728.5 c 128
 138.5 730.833 130.333 736.833 121 746.5 c 128
 111.667 756.167 107 767.333 107 780 c 0
294 780 m 0
 294 794.667 299.333 807.5 310 818.5 c 128
 320.667 829.5 333.667 835 349 835 c 0
 365 835 378.167 828 388.5 814 c 128
 398.833 800 404 783.667 404 765 c 0
 404 732.333 396.167 704.333 380.5 681 c 128
 364.833 657.667 338.667 634.333 302 611 c 1
 294 609 291.667 611.667 295 619 c 1
 319 644.333 333.5 664.167 338.5 678.5 c 128
 343.5 692.833 345.5 704.167 344.5 712.5 c 128
 343.5 720.833 339.5 726.167 332.5 728.5 c 128
 325.5 730.833 317.333 736.833 308 746.5 c 128
 298.667 756.167 294 767.333 294 780 c 0
EndSplineSet
EndChar
StartChar: numbersign
Encoding: 35 35 5
Width: 512
Flags: W
Fore
126 -51 m 1
 93 -51 l 1
 116 166 l 1
 2 166 l 1
 8 242 l 1
 125 242 l 1
 157 541 l 1
 29 541 l 1
 35 617 l 1
 165 617 l 1
 186 810 l 1
 219 810 l 1
 198 617 l 1
 354 617 l 1
 375 810 l 1
 408 810 l 1
 387 617 l 1
 510 617 l 1
 504 541 l 1
 379 541 l 1
 347 242 l 1
 483 242 l 1
 477 166 l 1
 338 166 l 1
 315 -51 l 1
 282 -51 l 1
 305 166 l 1
 149 166 l 1
 126 -51 l 1
190 541 m 1
 158 242 l 1
 314 242 l 1
 346 541 l 1
 190 541 l 1
EndSplineSet
EndChar
StartChar: dollar
Encoding: 36 36 6
Width: 512
Flags: W
Fore
230 842 m 1
 280 842 l 1
 280 752 l 1
 307.333 750.667 330.5 746.167 349.5 738.5 c 128
 368.5 730.833 386.5 720.5 403.5 707.5 c 128
 420.5 694.5 433 680.333 441 665 c 128
 449 649.667 452 635.833 450 623.5 c 128
 448 611.167 442.167 602.333 432.5 597 c 128
 422.833 591.667 412 590.667 400 594 c 128
 388 597.333 379.667 603.833 375 613.5 c 128
 370.333 623.167 368.333 631.333 369 638 c 128
 369.667 644.667 370.167 652.167 370.5 660.5 c 128
 370.833 668.833 366.833 678.167 358.5 688.5 c 128
 350.167 698.833 339 706.333 325 711 c 128
 311 715.667 296 718.333 280 719 c 1
 280 439 l 1
 347.333 412.333 397.667 383.333 431 352 c 128
 464.333 320.667 481 281.333 481 234 c 0
 481 178.667 460.5 132.833 419.5 96.5 c 128
 378.5 60.1667 332 41.3333 280 40 c 1
 280 -80 l 1
 230 -80 l 1
 230 43 l 1
 203.333 47 175.5 55.8333 146.5 69.5 c 128
 117.5 83.1667 95.6667 98.1667 81 114.5 c 128
 66.3333 130.833 55 145.333 47 158 c 128
 39 170.667 34 183.167 32 195.5 c 128
 30 207.833 33.8333 220.5 43.5 233.5 c 128
 53.1667 246.5 65.3333 252.333 80 251 c 128
 94.6667 249.667 106.333 242.167 115 228.5 c 128
 123.667 214.833 125.333 203.167 120 193.5 c 128
 114.667 183.833 111.667 174.333 111 165 c 128
 110.333 155.667 113.333 145 120 133 c 128
 126.667 121 141.667 109.5 165 98.5 c 128
 188.333 87.5 210 80.3333 230 77 c 1
 230 396 l 1
 177.333 418.667 138.833 444.333 114.5 473 c 128
 90.1667 501.667 78 536.333 78 577 c 0
 78 624.333 95.3333 663.333 130 694 c 128
 164.667 724.667 198 743.333 230 750 c 1
 230 842 l 1
230 714 m 1
 212 708 194.167 694 176.5 672 c 128
 158.833 650 150 618.333 150 577 c 0
 150 536.333 157.833 509.5 173.5 496.5 c 128
 189.167 483.5 208 471.667 230 461 c 1
 230 714 l 1
280 376 m 1
 280 73 l 1
 318.667 74.3333 349.833 88.8333 373.5 116.5 c 128
 397.167 144.167 409 183.333 409 234 c 0
 409 264.667 399.167 291 379.5 313 c 128
 359.833 335 326.667 356 280 376 c 1
EndSplineSet
EndChar
StartChar: percent
Encoding: 37 37 7
Width: 512
Flags: W
Fore
431 817 m 1
 437.667 826.333 446.833 828.833 458.5 824.5 c 128
 470.167 820.167 474.333 812 471 800 c 1
 90 -105 l 1
 81.3333 -114.333 72.1667 -117.167 62.5 -113.5 c 128
 52.8333 -109.833 48.3333 -102.333 49 -91 c 1
 431 817 l 1
5 560 m 0
 5 612 17.1667 656.667 41.5 694 c 128
 65.8333 731.333 95.3333 750 130 750 c 0
 164 750 193.333 731.333 218 694 c 128
 242.667 656.667 255 612 255 560 c 0
 255 507.333 242.667 462.5 218 425.5 c 128
 193.333 388.5 164 370 130 370 c 0
 95.3333 370 65.8333 388.5 41.5 425.5 c 128
 17.1667 462.5 5 507.333 5 560 c 0
262 166 m 0
 262 218 274.167 262.667 298.5 300 c 128
 322.833 337.333 352.333 356 387 356 c 0
 421 356 450.333 337.333 475 300 c 128
 499.667 262.667 512 218 512 166 c 0
 512 113.333 499.667 68.5 475 31.5 c 128
 450.333 -5.5 421 -24 387 -24 c 0
 352.333 -24 322.833 -5.5 298.5 31.5 c 128
 274.167 68.5 262 113.333 262 166 c 0
315 166 m 0
 315 121.333 322.833 83 338.5 51 c 128
 354.167 19 370.333 3 387 3 c 0
 403 3 419 19 435 51 c 128
 451 83 459 121.333 459 166 c 0
 459 210.667 451 249.167 435 281.5 c 128
 419 313.833 403 330 387 330 c 0
 370.333 330 354.167 313.833 338.5 281.5 c 128
 322.833 249.167 315 210.667 315 166 c 0
58 560 m 0
 58 515.333 65.8333 477 81.5 445 c 128
 97.1667 413 113.333 397 130 397 c 0
 146 397 162 413 178 445 c 128
 194 477 202 515.333 202 560 c 0
 202 604.667 194 643.167 178 675.5 c 128
 162 707.833 146 724 130 724 c 0
 113.333 724 97.1667 707.833 81.5 675.5 c 128
 65.8333 643.167 58 604.667 58 560 c 0
EndSplineSet
EndChar
StartChar: ampersand
Encoding: 38 38 8
Width: 512
Flags: W
Fore
432 66 m 0
 445.333 66 456 70.1667 464 78.5 c 128
 472 86.8333 481.667 104 493 130 c 1
 497.667 136 502.167 137.833 506.5 135.5 c 128
 510.833 133.167 511.667 128 509 120 c 1
 501.667 88 488 62.1667 468 42.5 c 128
 448 22.8333 430 13 414 13 c 0
 379.333 13 354 20.1667 338 34.5 c 128
 322 48.8333 309.333 61.3333 300 72 c 1
 262 33.3333 221.333 14 178 14 c 0
 127.333 14 85.5 33.3333 52.5 72 c 128
 19.5 110.667 3 152 3 196 c 0
 3 246 15.6667 287.167 41 319.5 c 128
 66.3333 351.833 93.6667 376.667 123 394 c 1
 107.667 430 94.6667 463.167 84 493.5 c 128
 73.3333 523.833 68 555.667 68 589 c 0
 68 633 83.1667 670 113.5 700 c 128
 143.833 730 179.333 745 220 745 c 0
 253.333 745 285.833 731 317.5 703 c 128
 349.167 675 365.667 641.667 367 603 c 1
 367 557 351.667 516.167 321 480.5 c 128
 290.333 444.833 246.333 416 189 394 c 1
 194.333 380.667 205.5 354.667 222.5 316 c 128
 239.5 277.333 258.333 242.5 279 211.5 c 128
 310 165 310 165 321 149 c 1
 333.667 167.667 345.5 192.667 356.5 224 c 128
 367.5 255.333 374.333 280.667 377 300 c 1
 383.667 325.333 365.333 341.667 322 349 c 1
 322 375 l 1
 373.333 373 427.333 373 484 375 c 1
 484 349 l 1
 442 341.667 417.667 324.667 411 298 c 1
 408.333 278 400.5 249.833 387.5 213.5 c 128
 374.5 177.167 359.333 146.667 342 122 c 1
 353.333 106.667 365.167 93.5 377.5 82.5 c 128
 389.833 71.5 408 66 432 66 c 0
303 603 m 1
 301.667 635.667 291.833 662 273.5 682 c 128
 255.167 702 237.333 712 220 712 c 0
 192.667 712 171.167 701.667 155.5 681 c 128
 139.833 660.333 132 629.667 132 589 c 0
 132 558.333 136.667 529.833 146 503.5 c 128
 155.333 477.167 166 449.333 178 420 c 1
 222 442 253.833 467.167 273.5 495.5 c 128
 293.167 523.833 303 559.667 303 603 c 1
75 196 m 0
 75 160 83.5 126.167 100.5 94.5 c 128
 117.5 62.8333 143.333 47 178 47 c 0
 216 47 250.333 63.3333 281 96 c 1
 268.333 113.333 250 140.833 226 178.5 c 128
 202 216.167 182 253.833 166 291.5 c 128
 142 348 142 348 136 362 c 1
 116 345.333 100.833 323 90.5 295 c 128
 80.1667 267 75 234 75 196 c 0
EndSplineSet
EndChar
StartChar: quotesingle
Encoding: 39 39 9
Width: 512
Flags: W
Fore
206 780 m 0
 206 794.667 211.333 807.5 222 818.5 c 128
 232.667 829.5 245.667 835 261 835 c 0
 277 835 290.167 828 300.5 814 c 128
 310.833 800 316 783.667 316 765 c 0
 316 732.333 308.167 704.333 292.5 681 c 128
 276.833 657.667 250.667 634.333 214 611 c 1
 206 609 203.667 611.667 207 619 c 1
 231 644.333 245.5 664.167 250.5 678.5 c 128
 255.5 692.833 257.5 704.167 256.5 712.5 c 128
 255.5 720.833 251.5 726.167 244.5 728.5 c 128
 237.5 730.833 229.333 736.833 220 746.5 c 128
 210.667 756.167 206 767.333 206 780 c 0
EndSplineSet
EndChar
StartChar: parenleft
Encoding: 40 40 10
Width: 512
Flags: W
Fore
382 856 m 1
 399.333 858 403.667 852.333 395 839 c 1
 319 770.333 262.667 701.167 226 631.5 c 128
 189.333 561.833 171 474.333 171 369 c 0
 171 263.667 189.333 176.167 226 106.5 c 128
 262.667 36.8333 319 -32.3333 395 -101 c 1
 403.667 -114.333 399.333 -120 382 -118 c 1
 297.333 -52 231.167 18.6667 183.5 94 c 128
 135.833 169.333 112 261 112 369 c 0
 112 477 135.833 568.667 183.5 644 c 128
 231.167 719.333 297.333 790 382 856 c 1
EndSplineSet
EndChar
StartChar: parenright
Encoding: 41 41 11
Width: 512
Flags: W
Fore
125 856 m 1
 209.667 790 275.833 719.333 323.5 644 c 128
 371.167 568.667 395 477 395 369 c 0
 395 261 371.167 169.333 323.5 94 c 128
 275.833 18.6667 209.667 -52 125 -118 c 1
 107.667 -120 103.333 -114.333 112 -101 c 1
 188 -32.3333 244.333 36.8333 281 106.5 c 128
 317.667 176.167 336 263.667 336 369 c 0
 336 474.333 317.667 561.833 281 631.5 c 128
 244.333 701.167 188 770.333 112 839 c 1
 103.333 852.333 107.667 858 125 856 c 1
EndSplineSet
EndChar
StartChar: asterisk
Encoding: 42 42 12
Width: 512
Flags: W
Fore
255 676 m 0
 265.667 676 275.833 668.667 285.5 654 c 128
 295.167 639.333 297.167 621.833 291.5 601.5 c 128
 285.833 581.167 280.667 558.333 276 533 c 128
 271.333 507.667 268.333 469.667 267 419 c 0
 267 406.333 271 403 279 409 c 0
 317.667 441 345.833 466.833 363.5 486.5 c 128
 381.167 506.167 396.167 524.5 408.5 541.5 c 128
 420.833 558.5 435.833 567.667 453.5 569 c 128
 471.167 570.333 483.333 566.667 490 558 c 0
 496.667 550 497.167 537.667 491.5 521 c 128
 485.833 504.333 473.167 491.833 453.5 483.5 c 128
 433.833 475.167 412.5 465 389.5 453 c 128
 366.5 441 334.667 420 294 390 c 1
 283.333 384 283.333 378 294 372 c 1
 334.667 342 366.5 321 389.5 309 c 128
 412.5 297 433.833 286.833 453.5 278.5 c 128
 473.167 270.167 485.833 257.667 491.5 241 c 128
 497.167 224.333 496.667 212 490 204 c 0
 483.333 195.333 471.167 191.667 453.5 193 c 128
 435.833 194.333 420.833 203.5 408.5 220.5 c 128
 396.167 237.5 381.167 255.833 363.5 275.5 c 128
 345.833 295.167 317.667 321 279 353 c 0
 271 359 267 355.667 267 343 c 0
 268.333 292.333 271.333 254.333 276 229 c 128
 280.667 203.667 285.833 180.833 291.5 160.5 c 128
 297.167 140.167 295.167 122.667 285.5 108 c 128
 275.833 93.3333 265.667 86 255 86 c 0
 244.333 86 234.167 93.3333 224.5 108 c 128
 214.833 122.667 212.833 140.167 218.5 160.5 c 128
 224.167 180.833 229.333 203.667 234 229 c 128
 238.667 254.333 241.667 292.333 243 343 c 0
 243 355.667 239 359 231 353 c 0
 192.333 321 164.167 295.167 146.5 275.5 c 128
 128.833 255.833 113.833 237.5 101.5 220.5 c 128
 89.1667 203.5 74.1667 194.333 56.5 193 c 128
 38.8333 191.667 26.6667 195.333 20 204 c 0
 13.3333 212 12.8333 224.333 18.5 241 c 128
 24.1667 257.667 36.8333 270.167 56.5 278.5 c 128
 76.1667 286.833 97.5 297 120.5 309 c 128
 143.5 321 175.333 342 216 372 c 1
 226.667 378 226.667 384 216 390 c 1
 175.333 420 143.5 441 120.5 453 c 128
 97.5 465 76.1667 475.167 56.5 483.5 c 128
 36.8333 491.833 24.1667 504.333 18.5 521 c 128
 12.8333 537.667 13.3333 550 20 558 c 0
 26.6667 566.667 38.8333 570.333 56.5 569 c 128
 74.1667 567.667 89.1667 558.5 101.5 541.5 c 128
 113.833 524.5 128.833 506.167 146.5 486.5 c 128
 164.167 466.833 192.333 441 231 409 c 0
 239 403 243 406.333 243 419 c 0
 241.667 469.667 238.667 507.667 234 533 c 128
 229.333 558.333 224.167 581.167 218.5 601.5 c 128
 212.833 621.833 214.833 639.333 224.5 654 c 128
 234.167 668.667 244.333 676 255 676 c 0
EndSplineSet
EndChar
StartChar: plus
Encoding: 43 43 13
Width: 512
Flags: W
Fore
238 712 m 1
 293 712 l 1
 293 419 l 1
 486 419 l 1
 486 371 l 1
 293 371 l 1
 293 33 l 1
 238 33 l 1
 238 371 l 1
 32 371 l 1
 32 419 l 1
 238 419 l 1
 238 712 l 1
EndSplineSet
EndChar
StartChar: comma
Encoding: 44 44 14
Width: 512
Flags: W
Fore
154 81 m 0
 154 101 161 118.167 175 132.5 c 128
 189 146.833 206 154 226 154 c 0
 246 154 263.167 146.833 277.5 132.5 c 128
 291.833 118.167 299 101 299 81 c 2
 299 73 l 1
 297 41 290.167 15.5 278.5 -3.5 c 128
 266.833 -22.5 252 -42.1667 234 -62.5 c 128
 216 -82.8333 193.333 -100.667 166 -116 c 1
 157.333 -119.333 155 -117 159 -109 c 1
 178.333 -89 193.667 -69.5 205 -50.5 c 128
 216.333 -31.5 221.667 -17.6667 221 -9 c 128
 220.333 -0.333333 215.167 7 205.5 13 c 128
 195.833 19 184.833 26.8333 172.5 36.5 c 128
 160.167 46.1667 154 61 154 81 c 0
EndSplineSet
EndChar
StartChar: hyphen
Encoding: 45 45 15
Width: 512
Flags: W
Fore
32 419 m 1
 486 419 l 1
 486 371 l 1
 32 371 l 1
 32 419 l 1
EndSplineSet
EndChar
StartChar: period
Encoding: 46 46 16
Width: 512
Flags: W
Fore
145 18 m 0
 145 37.3333 152 54.1667 166 68.5 c 128
 180 82.8333 197 90 217 90 c 0
 237 90 254.167 82.8333 268.5 68.5 c 128
 282.833 54.1667 290 37.3333 290 18 c 0
 290 -2.66667 282.833 -20 268.5 -34 c 128
 254.167 -48 237 -55 217 -55 c 0
 197 -55 180 -48 166 -34 c 128
 152 -20 145 -2.66667 145 18 c 0
EndSplineSet
EndChar
StartChar: slash
Encoding: 47 47 17
Width: 512
Flags: W
Fore
462 806 m 1
 471.333 816 480.833 818.333 490.5 813 c 128
 500.167 807.667 504 798.333 502 785 c 1
 48 -59 l 1
 38.6667 -69 28.8333 -71.6667 18.5 -67 c 128
 8.16667 -62.3333 4.33333 -54 7 -42 c 1
 462 806 l 1
EndSplineSet
EndChar
StartChar: zero
Encoding: 48 48 18
Width: 512
Flags: W
Fore
46 378 m 0
 46 478 68.8333 563.333 114.5 634 c 128
 160.167 704.667 208.333 740 259 740 c 0
 309.667 740 358 704.667 404 634 c 128
 450 563.333 473 477.667 473 377 c 0
 473 276.333 450 190.667 404 120 c 128
 358 49.3333 309.667 14 259 14 c 0
 208.333 14 160.167 49.3333 114.5 120 c 128
 68.8333 190.667 46 276.667 46 378 c 0
122 377 m 0
 122 284.333 136 206.833 164 144.5 c 128
 192 82.1667 223.667 51 259 51 c 0
 294.333 51 326.167 82.1667 354.5 144.5 c 128
 382.833 206.833 397 284.667 397 378 c 0
 397 473.333 382.833 551.333 354.5 612 c 128
 326.167 672.667 294.333 703 259 703 c 0
 223.667 703 192 672.667 164 612 c 128
 136 551.333 122 473 122 377 c 0
EndSplineSet
EndChar
StartChar: one
Encoding: 49 49 19
Width: 512
Flags: W
Fore
395 46 m 1
 395 20 l 1
 307.667 22 220.333 22 133 20 c 1
 133 46 l 1
 197 53.3333 229 70 229 96 c 2
 229 616 l 2
 229 636.667 217 647 193 647 c 2
 114 647 l 1
 114 672 l 1
 178.667 676.667 231.333 701 272 745 c 1
 299 745 l 1
 299 683 l 1
 299 96 l 2
 299 70 331 53.3333 395 46 c 1
EndSplineSet
EndChar
StartChar: two
Encoding: 50 50 20
Width: 512
Flags: W
Fore
261 740 m 0
 319 740 367.833 722.333 407.5 687 c 128
 447.167 651.667 467 612 467 568 c 0
 467 530 454.167 492.5 428.5 455.5 c 128
 402.833 418.5 370 381 330 343 c 128
 270 286 270 286 192.5 207.5 c 128
 140.833 155.167 115 113.333 115 82 c 1
 340 82 l 2
 364 82 385.5 87 404.5 97 c 128
 423.5 107 443.667 142.667 465 204 c 1
 482 201 l 1
 466.667 128.333 455 68 447 20 c 1
 321.667 22 188 22 46 20 c 1
 46 88 75.3333 153.167 134 215.5 c 128
 192.667 277.833 242 327.167 282 363.5 c 128
 322 399.833 350.167 434.5 366.5 467.5 c 128
 382.833 500.5 391 534.333 391 569 c 0
 391 607 377.667 638.833 351 664.5 c 128
 324.333 690.167 294.333 703 261 703 c 0
 231.667 703 207.667 698.333 189 689 c 128
 170.333 679.667 155.333 667.667 144 653 c 128
 132.667 638.333 129.833 624.667 135.5 612 c 128
 141.167 599.333 145.167 587.333 147.5 576 c 128
 149.833 564.667 145.833 554.5 135.5 545.5 c 128
 125.167 536.5 115.167 532.833 105.5 534.5 c 128
 95.8333 536.167 86.8333 540.333 78.5 547 c 128
 70.1667 553.667 65 563.167 63 575.5 c 128
 61 587.833 62.5 601.333 67.5 616 c 128
 72.5 630.667 83.1667 647.5 99.5 666.5 c 128
 115.833 685.5 136.833 702.5 162.5 717.5 c 128
 188.167 732.5 221 740 261 740 c 0
EndSplineSet
EndChar
StartChar: three
Encoding: 51 51 21
Width: 512
Flags: W
Fore
249 740 m 0
 303.667 740 351.833 722.667 393.5 688 c 128
 435.167 653.333 456 613.333 456 568 c 0
 456 520.667 436.167 483.833 396.5 457.5 c 128
 356.833 431.167 324.667 415.667 300 411 c 1
 338 405.667 378.333 388 421 358 c 128
 463.667 328 485 281.667 485 219 c 0
 485 169.667 463.5 123.167 420.5 79.5 c 128
 377.5 35.8333 320.333 14 249 14 c 0
 203.667 14 167.333 20.3333 140 33 c 128
 112.667 45.6667 89.5 62.5 70.5 83.5 c 128
 51.5 104.5 40.8333 125.667 38.5 147 c 128
 36.1667 168.333 39 184.5 47 195.5 c 128
 55 206.5 64.6667 213.667 76 217 c 128
 87.3333 220.333 98.8333 218.5 110.5 211.5 c 128
 122.167 204.5 129.333 196.167 132 186.5 c 128
 134.667 176.833 133.167 167.333 127.5 158 c 128
 121.833 148.667 116.667 138.333 112 127 c 128
 107.333 115.667 109.167 104.333 117.5 93 c 128
 125.833 81.6667 142.167 72 166.5 64 c 128
 190.833 56 218.333 52 249 52 c 0
 297.667 52 336.5 68.8333 365.5 102.5 c 128
 394.5 136.167 409 175.333 409 220 c 0
 409 273.333 392.5 315.333 359.5 346 c 128
 326.5 376.667 267.333 392 182 392 c 1
 182 428 l 1
 254.667 428 305.833 441.333 335.5 468 c 128
 365.167 494.667 380 528.333 380 569 c 0
 380 607 367 638.833 341 664.5 c 128
 315 690.167 284.333 703 249 703 c 0
 222.333 703 201 700.333 185 695 c 128
 169 689.667 154.833 680.833 142.5 668.5 c 128
 130.167 656.167 125 644.833 127 634.5 c 128
 129 624.167 132.5 613.167 137.5 601.5 c 128
 142.5 589.833 142.667 580.167 138 572.5 c 128
 133.333 564.833 127.5 559.333 120.5 556 c 128
 113.5 552.667 105.167 552.167 95.5 554.5 c 128
 85.8333 556.833 77.8333 562 71.5 570 c 128
 65.1667 578 61 588.167 59 600.5 c 128
 57 612.833 59 625.333 65 638 c 128
 71 650.667 82.3333 665.333 99 682 c 128
 115.667 698.667 136.167 712.5 160.5 723.5 c 128
 184.833 734.5 214.333 740 249 740 c 0
EndSplineSet
EndChar
StartChar: four
Encoding: 52 52 22
Width: 512
Flags: W
Fore
497 238 m 1
 497 201 l 1
 400 201 l 1
 400 96 l 2
 400 70 426.667 53.3333 480 46 c 1
 480 20 l 1
 403.333 22 322.667 22 238 20 c 1
 238 46 l 1
 299.333 53.3333 330 70 330 96 c 2
 330 201 l 1
 33 201 l 1
 33 236 l 1
 349 745 l 1
 400 745 l 1
 400 238 l 1
 497 238 l 1
330 640 m 1
 81 238 l 1
 330 238 l 1
 330 640 l 1
EndSplineSet
EndChar
StartChar: five
Encoding: 53 53 23
Width: 512
Flags: W
Fore
97 738 m 1
 211.667 736 328.667 736 448 738 c 1
 448 726 l 1
 436.667 718.667 425.667 702.333 415 677 c 1
 145 677 l 1
 143 607.667 137 518.667 127 410 c 1
 144.333 427.333 165.833 441.833 191.5 453.5 c 128
 217.167 465.167 247.667 471 283 471 c 0
 327 471 371.667 450.5 417 409.5 c 128
 462.333 368.5 485 315.667 485 251 c 0
 485 189.667 462.667 134.833 418 86.5 c 128
 373.333 38.1667 317 14 249 14 c 0
 202.333 14 166 20.3333 140 33 c 128
 114 45.6667 91.1667 62.5 71.5 83.5 c 128
 51.8333 104.5 40.8333 126.167 38.5 148.5 c 128
 36.1667 170.833 39 187.833 47 199.5 c 128
 55 211.167 64.6667 218.5 76 221.5 c 128
 87.3333 224.5 98.8333 222.5 110.5 215.5 c 128
 122.167 208.5 130 199.667 134 189 c 128
 138 178.333 137.167 168.667 131.5 160 c 128
 125.833 151.333 121.333 144.167 118 138.5 c 128
 114.667 132.833 112.833 126.667 112.5 120 c 128
 112.167 113.333 117.667 103.667 129 91 c 128
 140.333 78.3333 156.167 68.5 176.5 61.5 c 128
 196.833 54.5 221 51 249 51 c 0
 293 51 330.667 70.6667 362 110 c 128
 393.333 149.333 409 196.667 409 252 c 0
 409 307.333 396.167 351.5 370.5 384.5 c 128
 344.833 417.5 315.667 434 283 434 c 0
 256.333 434 230.667 429.333 206 420 c 128
 181.333 410.667 152 388.333 118 353 c 1
 74 357 l 1
 88.6667 489.667 96.3333 616.667 97 738 c 1
EndSplineSet
EndChar
StartChar: six
Encoding: 54 54 24
Width: 512
Flags: W
Fore
271 739 m 0
 305.667 739 333.833 734.5 355.5 725.5 c 128
 377.167 716.5 397.333 704.667 416 690 c 128
 434.667 675.333 446.833 660.667 452.5 646 c 128
 458.167 631.333 460.833 618.333 460.5 607 c 128
 460.167 595.667 456.667 584.667 450 574 c 128
 443.333 563.333 431.5 557.667 414.5 557 c 128
 397.5 556.333 385.833 561.833 379.5 573.5 c 128
 373.167 585.167 372.167 596.333 376.5 607 c 128
 380.833 617.667 383.5 627.5 384.5 636.5 c 128
 385.5 645.5 382.167 655.5 374.5 666.5 c 128
 366.833 677.5 354.333 686.833 337 694.5 c 128
 319.667 702.167 298.667 706 274 706 c 0
 234.667 706 198.833 675.667 166.5 615 c 128
 134.167 554.333 118 477.333 118 384 c 2
 118 362 l 1
 125.333 372 134.5 383.333 145.5 396 c 128
 156.5 408.667 173.333 421.5 196 434.5 c 128
 218.667 447.5 251 454 293 454 c 0
 349 454 396.333 432.167 435 388.5 c 128
 473.667 344.833 493 292.667 493 232 c 0
 493 179.333 471.833 129.833 429.5 83.5 c 128
 387.167 37.1667 334.333 14 271 14 c 0
 207.667 14 153.667 43.3333 109 102 c 128
 64.3333 160.667 42 254.333 42 383 c 0
 42 487 65.6667 572.333 113 639 c 128
 160.333 705.667 213 739 271 739 c 0
271 51 m 0
 313 51 348.333 70.8333 377 110.5 c 128
 405.667 150.167 420 190.667 420 232 c 0
 420 280 410.167 322.833 390.5 360.5 c 128
 370.833 398.167 338.333 417 293 417 c 0
 261 417 234.833 411.833 214.5 401.5 c 128
 194.167 391.167 176.5 377.667 161.5 361 c 128
 146.5 344.333 133.667 318 123 282 c 1
 127 225.333 141.333 172.667 166 124 c 128
 190.667 75.3333 225.667 51 271 51 c 0
EndSplineSet
EndChar
StartChar: seven
Encoding: 55 55 25
Width: 512
Flags: W
Fore
247 14 m 0
 221.667 14 208.833 33.5 208.5 72.5 c 128
 208.167 111.5 214.333 157.167 227 209.5 c 128
 239.667 261.833 258.667 315.333 284 370 c 128
 309.333 424.667 339.167 482.167 373.5 542.5 c 128
 407.833 602.833 425 648.667 425 680 c 1
 180 680 l 2
 154.667 680 133.333 673.667 116 661 c 128
 98.6667 648.333 79.3333 612.333 58 553 c 1
 40 557 l 1
 57.3333 627 69 687.333 75 738 c 1
 196.333 736 328 736 470 738 c 1
 470 672.667 451.333 607.167 414 541.5 c 128
 376.667 475.833 348.667 415.833 330 361.5 c 128
 311.333 307.167 299.833 255 295.5 205 c 128
 291.167 155 288.167 110.667 286.5 72 c 128
 284.833 33.3333 271.667 14 247 14 c 0
EndSplineSet
EndChar
StartChar: eight
Encoding: 56 56 26
Width: 512
Flags: W
Fore
272 14 m 0
 214.667 14 160.167 32.3333 108.5 69 c 128
 56.8333 105.667 31 152 31 208 c 0
 31 256.667 48.6667 296.833 84 328.5 c 128
 119.333 360.167 160.667 385.667 208 405 c 1
 170.667 425 137.667 448.333 109 475 c 128
 80.3333 501.667 66 537.667 66 583 c 0
 66 626.333 86.8333 664.167 128.5 696.5 c 128
 170.167 728.833 215.333 745 264 745 c 0
 317.333 745 364.167 728.833 404.5 696.5 c 128
 444.833 664.167 465 626.333 465 583 c 0
 465 542.333 449.667 508.5 419 481.5 c 128
 388.333 454.5 355 433 319 417 c 1
 380.333 391.667 426 363.333 456 332 c 128
 486 300.667 501 259.333 501 208 c 0
 501 152.667 478.167 106.5 432.5 69.5 c 128
 386.833 32.5 333.333 14 272 14 c 0
107 208 m 0
 107 161.333 124.167 123.5 158.5 94.5 c 128
 192.833 65.5 230.667 51 272 51 c 0
 317.333 51 354.167 65.8333 382.5 95.5 c 128
 410.833 125.167 425 162.667 425 208 c 0
 425 235.333 413.5 263.667 390.5 293 c 128
 367.5 322.333 318 354 242 388 c 1
 192 367.333 157 343.333 137 316 c 128
 117 288.667 107 252.667 107 208 c 0
389 583 m 0
 389 620.333 377.167 650.5 353.5 673.5 c 128
 329.833 696.5 300 708 264 708 c 0
 232.667 708 204.5 696.5 179.5 673.5 c 128
 154.5 650.5 142 620.333 142 583 c 0
 142 546.333 154.667 517.167 180 495.5 c 128
 205.333 473.833 240.333 452.667 285 432 c 1
 316.333 445.333 341.5 463.667 360.5 487 c 128
 379.5 510.333 389 542.333 389 583 c 0
EndSplineSet
EndChar
StartChar: nine
Encoding: 57 57 27
Width: 512
Flags: W
Fore
263 703 m 0
 221 703 185.667 683.167 157 643.5 c 128
 128.333 603.833 114 563.333 114 522 c 0
 114 474 123.833 431.167 143.5 393.5 c 128
 163.167 355.833 195.667 337 241 337 c 0
 273 337 299.167 342.167 319.5 352.5 c 128
 339.833 362.833 357.5 376.333 372.5 393 c 128
 387.5 409.667 400.333 436 411 472 c 1
 407 528.667 392.667 581.333 368 630 c 128
 343.333 678.667 308.333 703 263 703 c 0
263 15 m 0
 228.333 15 200.167 19.5 178.5 28.5 c 128
 156.833 37.5 136.667 49.3333 118 64 c 128
 99.3333 78.6667 87.1667 93.3333 81.5 108 c 128
 75.8333 122.667 73.1667 135.667 73.5 147 c 128
 73.8333 158.333 77.3333 169.333 84 180 c 128
 90.6667 190.667 102.5 196.333 119.5 197 c 128
 136.5 197.667 148.167 192.167 154.5 180.5 c 128
 160.833 168.833 161.833 157.667 157.5 147 c 128
 153.167 136.333 150.5 126.5 149.5 117.5 c 128
 148.5 108.5 151.833 98.5 159.5 87.5 c 128
 167.167 76.5 179.667 67.1667 197 59.5 c 128
 214.333 51.8333 235.333 48 260 48 c 0
 299.333 48 335.167 78.3333 367.5 139 c 128
 399.833 199.667 416 276.667 416 370 c 2
 416 392 l 1
 408.667 382 399.5 370.667 388.5 358 c 128
 377.5 345.333 360.667 332.5 338 319.5 c 128
 315.333 306.5 283 300 241 300 c 0
 185 300 137.667 321.833 99 365.5 c 128
 60.3333 409.167 41 461.333 41 522 c 0
 41 574.667 62.1667 624.167 104.5 670.5 c 128
 146.833 716.833 199.667 740 263 740 c 0
 326.333 740 380.333 710.667 425 652 c 128
 469.667 593.333 492 499.667 492 371 c 0
 492 267 468.333 181.667 421 115 c 128
 373.667 48.3333 321 15 263 15 c 0
EndSplineSet
EndChar
StartChar: colon
Encoding: 58 58 28
Width: 512
Flags: W
Fore
186 483 m 0
 186 501.667 192.833 518 206.5 532 c 128
 220.167 546 236.667 553 256 553 c 0
 274.667 553 291 546 305 532 c 128
 319 518 326 501.667 326 483 c 0
 326 463.667 319 447.167 305 433.5 c 128
 291 419.833 274.667 413 256 413 c 0
 236.667 413 220.167 419.833 206.5 433.5 c 128
 192.833 447.167 186 463.667 186 483 c 0
186 129 m 0
 186 147.667 192.833 164 206.5 178 c 128
 220.167 192 236.667 199 256 199 c 0
 274.667 199 291 192 305 178 c 128
 319 164 326 147.667 326 129 c 0
 326 109.667 319 93.1667 305 79.5 c 128
 291 65.8333 274.667 59 256 59 c 0
 236.667 59 220.167 65.8333 206.5 79.5 c 128
 192.833 93.1667 186 109.667 186 129 c 0
EndSplineSet
EndChar
StartChar: semicolon
Encoding: 59 59 29
Width: 512
Flags: W
Fore
186 483 m 0
 186 501.667 192.833 518 206.5 532 c 128
 220.167 546 236.667 553 256 553 c 0
 274.667 553 291 546 305 532 c 128
 319 518 326 501.667 326 483 c 0
 326 463.667 319 447.167 305 433.5 c 128
 291 419.833 274.667 413 256 413 c 0
 236.667 413 220.167 419.833 206.5 433.5 c 128
 192.833 447.167 186 463.667 186 483 c 0
187 139 m 0
 187 157.667 193.833 174 207.5 188 c 128
 221.167 202 237.667 209 257 209 c 0
 275.667 209 292 200.667 306 184 c 128
 320 167.333 327 149.667 327 131 c 0
 327 101 321.667 75.3333 311 54 c 128
 300.333 32.6667 285.333 13.6667 266 -3 c 128
 246.667 -19.6667 221.667 -35 191 -49 c 1
 181.667 -51 179 -48.3333 183 -41 c 1
 208.333 -20.3333 226.333 -2.16667 237 13.5 c 128
 247.667 29.1667 252.833 42.1667 252.5 52.5 c 128
 252.167 62.8333 246.333 70.3333 235 75 c 128
 223.667 79.6667 212.833 86.6667 202.5 96 c 128
 192.167 105.333 187 119.667 187 139 c 0
EndSplineSet
EndChar
StartChar: less
Encoding: 60 60 30
Width: 512
Flags: W
Fore
503 -73 m 1
 508.333 -84.3333 506.167 -93.8333 496.5 -101.5 c 128
 486.833 -109.167 476.333 -109.667 465 -103 c 1
 21 340 l 1
 9 353.333 9 366.667 21 380 c 1
 465 823 l 1
 476.333 829.667 486.833 829.167 496.5 821.5 c 128
 506.167 813.833 508.333 804.333 503 793 c 1
 77 369 l 2
 71.6667 363.667 71.6667 357.667 77 351 c 1
 503 -73 l 1
EndSplineSet
EndChar
StartChar: equal
Encoding: 61 61 31
Width: 512
Flags: W
Fore
32 485 m 1
 474 485 l 1
 474 437 l 1
 32 437 l 1
 32 485 l 1
32 291 m 1
 474 291 l 1
 474 242 l 1
 32 242 l 1
 32 291 l 1
EndSplineSet
EndChar
StartChar: greater
Encoding: 62 62 32
Width: 512
Flags: W
Fore
9 -73 m 1
 435 351 l 1
 440.333 357.667 440.333 363.667 435 369 c 2
 9 793 l 1
 3.66667 804.333 5.83333 813.833 15.5 821.5 c 128
 25.1667 829.167 35.6667 829.667 47 823 c 1
 491 380 l 1
 503 366.667 503 353.333 491 340 c 1
 47 -103 l 1
 35.6667 -109.667 25.1667 -109.167 15.5 -101.5 c 128
 5.83333 -93.8333 3.66667 -84.3333 9 -73 c 1
EndSplineSet
EndChar
StartChar: question
Encoding: 63 63 33
Width: 512
Flags: W
Fore
255 777 m 0
 307 777 357.167 759 405.5 723 c 128
 453.833 687 478 644.333 478 595 c 0
 478 559.667 468 527.667 448 499 c 128
 428 470.333 400.667 439.833 366 407.5 c 128
 331.333 375.167 305.833 343.5 289.5 312.5 c 128
 273.167 281.5 265 237.667 265 181 c 1
 255 165.667 244.667 165.667 234 181 c 1
 234 236.333 241.667 282 257 318 c 128
 272.333 354 297.167 391.833 331.5 431.5 c 128
 365.833 471.167 386.833 501.333 394.5 522 c 128
 402.167 542.667 406 566.667 406 594 c 0
 406 632.667 390.333 667.333 359 698 c 128
 327.667 728.667 293 744 255 744 c 0
 215.667 744 184.167 737 160.5 723 c 128
 136.833 709 120.5 690.833 111.5 668.5 c 128
 102.5 646.167 102.167 629.5 110.5 618.5 c 128
 118.833 607.5 125.667 598 131 590 c 128
 136.333 582 138.833 571.333 138.5 558 c 128
 138.167 544.667 133.333 533.833 124 525.5 c 128
 114.667 517.167 104.5 512.667 93.5 512 c 128
 82.5 511.333 72 514.833 62 522.5 c 128
 52 530.167 44.1667 540 38.5 552 c 128
 32.8333 564 31.1667 579.833 33.5 599.5 c 128
 35.8333 619.167 40.1667 636.167 46.5 650.5 c 128
 52.8333 664.833 62 680.5 74 697.5 c 128
 86 714.5 107.333 732 138 750 c 128
 168.667 768 207.667 777 255 777 c 0
200 4 m 0
 200 18.6667 205.333 31.5 216 42.5 c 128
 226.667 53.5 239.667 59 255 59 c 0
 269.667 59 282.5 53.5 293.5 42.5 c 128
 304.5 31.5 310 18.6667 310 4 c 0
 310 -11.3333 304.5 -24.3333 293.5 -35 c 128
 282.5 -45.6667 269.667 -51 255 -51 c 0
 239.667 -51 226.667 -45.6667 216 -35 c 128
 205.333 -24.3333 200 -11.3333 200 4 c 0
EndSplineSet
EndChar
StartChar: at
Encoding: 64 64 34
Width: 512
Flags: W
Fore
2 360 m 0
 2 476 29.3333 575.833 84 659.5 c 128
 138.667 743.167 201 785 271 785 c 0
 349 785 408 745.833 448 667.5 c 128
 488 589.167 508 498.667 508 396 c 0
 508 333.333 494.833 274 468.5 218 c 128
 442.167 162 409.667 134 371 134 c 0
 337.667 134 317 143.667 309 163 c 128
 301 182.333 296 196.333 294 205 c 1
 282 187 266 170 246 154 c 128
 226 138 203.667 134 179 142 c 128
 154.333 150 134 169.167 118 199.5 c 128
 102 229.833 94.3333 264.667 95 304 c 128
 95.6667 343.333 102 384.5 114 427.5 c 128
 126 470.5 144.167 507.833 168.5 539.5 c 128
 192.833 571.167 218 591.667 244 601 c 128
 270 610.333 289.667 611.667 303 605 c 128
 316.333 598.333 326 592.667 332 588 c 1
 338 631 l 1
 399 631 l 1
 352 281 l 1
 346.667 244.333 345 217.5 347 200.5 c 128
 349 183.5 359 175 377 175 c 0
 399.667 175 420.333 199.333 439 248 c 128
 457.667 296.667 467 346 467 396 c 0
 467 491.333 451.167 574.5 419.5 645.5 c 128
 387.833 716.5 338.667 752 272 752 c 0
 214 752 161.833 713.833 115.5 637.5 c 128
 69.1667 561.167 46 468.667 46 360 c 0
 46 251.333 65.8333 159.667 105.5 85 c 128
 145.167 10.3333 197 -27 261 -27 c 0
 305 -27 345.833 -11.8333 383.5 18.5 c 128
 421.167 48.8333 451 92.3333 473 149 c 1
 479.667 160.333 488.333 164 499 160 c 128
 509.667 156 513.667 147.667 511 135 c 1
 487 75.6667 453 28.1667 409 -7.5 c 128
 365 -43.1667 315.667 -61 261 -61 c 0
 184.333 -61 122 -20 74 62 c 128
 26 144 2 243.333 2 360 c 0
327 547 m 1
 318.333 560.333 308.333 569.5 297 574.5 c 128
 285.667 579.5 271.333 578 254 570 c 128
 236.667 562 220.167 543 204.5 513 c 128
 188.833 483 177.5 450.5 170.5 415.5 c 128
 163.5 380.5 159.167 346 157.5 312 c 128
 155.833 278 158.167 248.333 164.5 223 c 128
 170.833 197.667 181 183 195 179 c 128
 209 175 224.5 179.833 241.5 193.5 c 128
 258.5 207.167 275 237 291 283 c 1
 327 547 l 1
EndSplineSet
EndChar
StartChar: A
Encoding: 65 65 35
Width: 512
Flags: W
Fore
233 620 m 1
 161 310 l 1
 313 310 l 1
 233 620 l 1
109 96 m 1
 101.667 70 120.667 53.3333 166 46 c 1
 166 20 l 1
 108.667 22 53.3333 22 0 20 c 1
 0 46 l 1
 41.3333 53.3333 66 70 74 96 c 1
 210 665 l 1
 214 680.333 216.5 693 217.5 703 c 128
 218.5 713 219 722.333 219 731 c 1
 231 735 249 740.333 273 747 c 1
 441 96 l 1
 445 70 468.667 53.3333 512 46 c 1
 512 20 l 1
 450 22 385 22 317 20 c 1
 317 46 l 1
 358.333 53.3333 375.333 69.6667 368 95 c 1
 321 277 l 1
 153 277 l 1
 109 96 l 1
EndSplineSet
EndChar
StartChar: B
Encoding: 66 66 36
Width: 512
Flags: W
Fore
3 740 m 1
 75.6667 738 137.667 738 189 740 c 1
 231 740 l 2
 270.333 740 307.833 735.167 343.5 725.5 c 128
 379.167 715.833 411.333 695.167 440 663.5 c 128
 468.667 631.833 483 597.333 483 560 c 0
 483 523.333 468 489.5 438 458.5 c 128
 408 427.5 367.667 407 317 397 c 1
 363.667 387.667 405 365.833 441 331.5 c 128
 477 297.167 495 258 495 214 c 0
 495 166.667 479.833 127.333 449.5 96 c 128
 419.167 64.6667 385 44.1667 347 34.5 c 128
 309 24.8333 270.333 20 231 20 c 2
 189 20 l 1
 137.667 22 75.6667 22 3 20 c 1
 3 46 l 1
 53.6667 53.3333 79 70 79 96 c 2
 79 664 l 2
 79 690 53.6667 706.667 3 714 c 1
 3 740 l 1
431 214 m 0
 431 250 418.5 282.5 393.5 311.5 c 128
 368.5 340.5 343.5 358.667 318.5 366 c 128
 293.5 373.333 260.333 377 219 377 c 2
 149 377 l 1
 149 100 l 2
 149 71.3333 162.333 57 189 57 c 2
 231 57 l 2
 270.333 57 304.167 61 332.5 69 c 128
 360.833 77 384.333 93.3333 403 118 c 128
 421.667 142.667 431 174.667 431 214 c 0
419 560 m 0
 419 592.667 410 621.667 392 647 c 128
 374 672.333 352.5 688 327.5 694 c 128
 302.5 700 270.333 703 231 703 c 2
 189 703 l 2
 162.333 703 149 690 149 664 c 2
 149 414 l 1
 219 414 l 2
 260.333 414 294.833 418.833 322.5 428.5 c 128
 350.167 438.167 373.167 455.167 391.5 479.5 c 128
 409.833 503.833 419 530.667 419 560 c 0
EndSplineSet
EndChar
StartChar: C
Encoding: 67 67 37
Width: 512
Flags: W
Fore
18 375 m 0
 18 474.333 40.6667 560.833 86 634.5 c 128
 131.333 708.167 192.667 745 270 745 c 0
 298.667 745 323 741 343 733 c 128
 363 725 381.667 721 399 721 c 128
 416.333 721 433 728.667 449 744 c 1
 455 744 l 1
 463 676.667 475 595.667 491 501 c 1
 463 494 l 1
 453 530.667 442 562.5 430 589.5 c 128
 418 616.5 397.167 643 367.5 669 c 128
 337.833 695 305.333 708 270 708 c 0
 208.667 708 164 674.167 136 606.5 c 128
 108 538.833 94 461.667 94 375 c 0
 94 283.667 112.333 208.5 149 149.5 c 128
 185.667 90.5 229.333 61 280 61 c 0
 319.333 61 356.5 77.1667 391.5 109.5 c 128
 426.5 141.833 448.667 185 458 239 c 1
 464 249 470.833 253.333 478.5 252 c 128
 486.167 250.667 490.667 244 492 232 c 1
 484.667 177.333 461.667 127.333 423 82 c 128
 384.333 36.6667 330.667 14 262 14 c 0
 198 14 141.333 47.8333 92 115.5 c 128
 42.6667 183.167 18 269.667 18 375 c 0
EndSplineSet
EndChar
StartChar: D
Encoding: 68 68 38
Width: 512
Flags: W
Fore
3 740 m 1
 66.3333 738 130 738 194 740 c 1
 256 740 311.833 722.333 361.5 687 c 128
 411.167 651.667 447.333 607.833 470 555.5 c 128
 492.667 503.167 504 444.667 504 380 c 0
 504 315.333 492.667 256.833 470 204.5 c 128
 447.333 152.167 411.167 108.333 361.5 73 c 128
 311.833 37.6667 257.333 20 198 20 c 1
 132.667 22 67.6667 22 3 20 c 1
 3 46 l 1
 53.6667 53.3333 79 70 79 96 c 2
 79 664 l 2
 79 690 53.6667 706.667 3 714 c 1
 3 740 l 1
433 380 m 0
 433 436.667 426.333 489 413 537 c 128
 399.667 585 373.333 624.667 334 656 c 128
 294.667 687.333 248 703 194 703 c 2
 189 703 l 2
 162.333 703 149 690 149 664 c 2
 149 100 l 1
 147.667 71.3333 161 57 189 57 c 2
 198 57 l 2
 249.333 57 294.667 72.6667 334 104 c 128
 373.333 135.333 399.667 175 413 223 c 128
 426.333 271 433 323.333 433 380 c 0
EndSplineSet
EndChar
StartChar: E
Encoding: 69 69 39
Width: 512
Flags: W
Fore
3 740 m 1
 155.667 738 306 738 454 740 c 1
 462 692 474 633 490 563 c 1
 469 559 l 1
 446.333 617 424.833 655.5 404.5 674.5 c 128
 384.167 693.5 361.333 703 336 703 c 2
 189 703 l 2
 162.333 703 149 690 149 664 c 2
 149 414 l 1
 336 414 l 2
 361.333 414 378.333 439 387 489 c 1
 414 489 l 1
 412 424.333 412 359.667 414 295 c 1
 387 295 l 1
 378.333 349.667 361.333 377 336 377 c 2
 149 377 l 1
 149 96 l 2
 149 70 162.333 57 189 57 c 2
 352 57 l 2
 377.333 57 400.167 65.1667 420.5 81.5 c 128
 440.833 97.8333 462.333 137.667 485 201 c 1
 506 197 l 1
 490.667 127 478.667 68 470 20 c 1
 316.667 22 161 22 3 20 c 1
 3 46 l 1
 53.6667 53.3333 79 70 79 96 c 2
 79 664 l 2
 79 690 53.6667 706.667 3 714 c 1
 3 740 l 1
EndSplineSet
EndChar
StartChar: F
Encoding: 70 70 40
Width: 512
Flags: W
Fore
3 740 m 1
 158.333 738 314 738 470 740 c 1
 478 692 490 633 506 563 c 1
 485 559 l 1
 462.333 617 440.833 655.5 420.5 674.5 c 128
 400.167 693.5 377.333 703 352 703 c 2
 189 703 l 2
 162.333 703 149 690 149 664 c 2
 149 414 l 1
 338 414 l 2
 362 414 378.333 439 387 489 c 1
 414 489 l 1
 412 424.333 412 359.667 414 295 c 1
 387 295 l 1
 378.333 349.667 362 377 338 377 c 2
 149 377 l 1
 149 96 l 2
 149 70 180.667 53.3333 244 46 c 1
 244 20 l 1
 163.333 22 83 22 3 20 c 1
 3 46 l 1
 53.6667 53.3333 79 70 79 96 c 2
 79 664 l 2
 79 690 53.6667 706.667 3 714 c 1
 3 740 l 1
EndSplineSet
EndChar
StartChar: G
Encoding: 71 71 41
Width: 512
Flags: W
Fore
405 265 m 1
 406.333 297 384 315.333 338 320 c 1
 338 347 l 1
 398.667 345 456.667 345 512 347 c 1
 512 321 l 1
 481.333 315.667 466.333 297.333 467 266 c 1
 467 25 l 1
 455 25 l 1
 441.667 45 425 60.6667 405 72 c 1
 405 89 l 1
 395.667 71 378.167 54 352.5 38 c 128
 326.833 22 296 14 260 14 c 0
 205.333 14 151.333 47.8333 98 115.5 c 128
 44.6667 183.167 18 269.667 18 375 c 0
 18 474.333 40.6667 560.833 86 634.5 c 128
 131.333 708.167 192.667 745 270 745 c 0
 298.667 745 323 741 343 733 c 128
 363 725 381.667 721 399 721 c 128
 416.333 721 433 728.667 449 744 c 1
 455 744 l 1
 463 676.667 475 595.667 491 501 c 1
 463 494 l 1
 453 530.667 442 562.5 430 589.5 c 128
 418 616.5 397.167 643 367.5 669 c 128
 337.833 695 305.333 708 270 708 c 0
 208.667 708 164 674.167 136 606.5 c 128
 108 538.833 94 461.667 94 375 c 0
 94 283.667 112.667 208.5 150 149.5 c 128
 187.333 90.5 229.333 61 276 61 c 0
 296 61 317 65.1667 339 73.5 c 128
 361 81.8333 383 104.667 405 142 c 1
 405 265 l 1
EndSplineSet
EndChar
StartChar: H
Encoding: 72 72 42
Width: 512
Flags: W
Fore
206 46 m 1
 206 20 l 1
 137.333 22 68.6667 22 0 20 c 1
 0 46 l 1
 45.3333 53.3333 68 70 68 96 c 2
 68 664 l 2
 68 690 45.3333 706.667 0 714 c 1
 0 740 l 1
 68.6667 738 137.333 738 206 740 c 1
 206 714 l 1
 160.667 706.667 138 690 138 664 c 2
 138 412 l 1
 372 412 l 1
 372 664 l 2
 372 690 349.333 706.667 304 714 c 1
 304 740 l 1
 372.667 738 441.333 738 510 740 c 1
 510 714 l 1
 464.667 706.667 442 690 442 664 c 2
 442 96 l 2
 442 70 464.667 53.3333 510 46 c 1
 510 20 l 1
 441.333 22 372.667 22 304 20 c 1
 304 46 l 1
 349.333 53.3333 372 70 372 96 c 2
 372 378 l 1
 138 378 l 1
 138 96 l 2
 138 70 160.667 53.3333 206 46 c 1
EndSplineSet
EndChar
StartChar: I
Encoding: 73 73 43
Width: 512
Flags: W
Fore
385 46 m 1
 385 20 l 1
 297.667 22 210.333 22 123 20 c 1
 123 46 l 1
 187 53.3333 219 70 219 96 c 2
 219 664 l 2
 219 690 187 706.667 123 714 c 1
 123 740 l 1
 210.333 738 297.667 738 385 740 c 1
 385 714 l 1
 321 706.667 289 690 289 664 c 2
 289 96 l 2
 289 70 321 53.3333 385 46 c 1
EndSplineSet
EndChar
StartChar: J
Encoding: 74 74 44
Width: 512
Flags: W
Fore
246 714 m 1
 246 740 l 1
 335.333 738 418 738 494 740 c 1
 494 714 l 1
 440.667 706.667 414 690 414 664 c 2
 414 190 l 2
 414 146 407.333 110.167 394 82.5 c 128
 380.667 54.8333 359.167 30 329.5 8 c 128
 299.833 -14 266.333 -25 229 -25 c 0
 199.667 -25 174.5 -20.3333 153.5 -11 c 128
 132.5 -1.66667 115.5 8.5 102.5 19.5 c 128
 89.5 30.5 78.8333 42.1667 70.5 54.5 c 128
 62.1667 66.8333 57.3333 78 56 88 c 128
 54.6667 98 55.3333 107 58 115 c 128
 60.6667 123 65.8333 129.5 73.5 134.5 c 128
 81.1667 139.5 89.6667 141.5 99 140.5 c 128
 108.333 139.5 117.667 134.333 127 125 c 128
 136.333 115.667 140.667 106 140 96 c 128
 139.333 86 138.5 76.1667 137.5 66.5 c 128
 136.5 56.8333 138.833 47.6667 144.5 39 c 128
 150.167 30.3333 160.667 23 176 17 c 128
 191.333 11 208.667 8 228 8 c 0
 252.667 8 274.167 15.6667 292.5 31 c 128
 310.833 46.3333 324 67.1667 332 93.5 c 128
 340 119.833 344 152.667 344 192 c 2
 344 664 l 2
 344 690 311.333 706.667 246 714 c 1
EndSplineSet
EndChar
StartChar: K
Encoding: 75 75 45
Width: 512
Flags: W
Fore
206 46 m 1
 206 20 l 1
 137.333 22 68.6667 22 0 20 c 1
 0 46 l 1
 45.3333 53.3333 68 70 68 96 c 2
 68 664 l 2
 68 690 45.3333 706.667 0 714 c 1
 0 740 l 1
 68.6667 738 137.333 738 206 740 c 1
 206 714 l 1
 160.667 706.667 138 690 138 664 c 2
 138 369 l 1
 339 664 l 1
 351.667 690 338.667 706.667 300 714 c 1
 300 740 l 1
 362 738 420.333 738 475 740 c 1
 475 714 l 1
 431.667 706.667 402 690 386 664 c 1
 256 472 l 1
 431 96 l 2
 443 70 470 53.3333 512 46 c 1
 512 20 l 1
 446.667 22 380.667 22 314 20 c 1
 314 46 l 1
 358.667 53.3333 375.333 70 364 96 c 1
 216 414 l 1
 138 299 l 1
 138 96 l 2
 138 70 160.667 53.3333 206 46 c 1
EndSplineSet
EndChar
StartChar: L
Encoding: 76 76 46
Width: 512
Flags: W
Fore
9 20 m 1
 9 46 l 1
 59.6667 53.3333 85 70 85 96 c 2
 85 664 l 2
 85 690 59.6667 706.667 9 714 c 1
 9 740 l 1
 89 738 169.333 738 250 740 c 1
 250 714 l 1
 186.667 706.667 155 690 155 664 c 2
 155 96 l 2
 155 70 168.333 57 195 57 c 2
 350 57 l 2
 375.333 57 398.167 66.5 418.5 85.5 c 128
 438.833 104.5 460.333 143 483 201 c 1
 504 197 l 1
 488.667 127 476.667 68 468 20 c 1
 317.333 22 164.333 22 9 20 c 1
EndSplineSet
EndChar
StartChar: M
Encoding: 77 77 47
Width: 512
Flags: W
Fore
512 46 m 1
 512 20 l 1
 461.333 22 407.333 22 350 20 c 1
 350 46 l 1
 384 53.3333 401 70 401 96 c 2
 401 569 l 1
 273 40 l 1
 253 40 l 1
 89 575 l 1
 89 96 l 2
 89 70 107.333 53.3333 144 46 c 1
 144 20 l 1
 94.6667 22 46.6667 22 0 20 c 1
 0 46 l 1
 34.6667 53.3333 52 70 52 96 c 2
 52 664 l 2
 52 690 34.6667 706.667 0 714 c 1
 0 740 l 1
 32.6667 738.667 65.6667 738.667 99 740 c 1
 273 184 l 1
 406 740 l 1
 441.333 738.667 476.667 738.667 512 740 c 1
 512 714 l 1
 484.667 706.667 471 690 471 664 c 2
 471 96 l 2
 471 70 484.667 53.3333 512 46 c 1
EndSplineSet
EndChar
StartChar: N
Encoding: 78 78 48
Width: 512
Flags: W
Fore
7 740 m 1
 115 740 l 1
 399 189 l 1
 399 664 l 2
 399 690 375.667 706.667 329 714 c 1
 329 740 l 1
 388.333 738 447 738 505 740 c 1
 505 714 l 1
 459 706.667 436 690 436 664 c 2
 436 14 l 1
 409 14 l 1
 114 591 l 1
 114 96 l 2
 114 70 137 53.3333 183 46 c 1
 183 20 l 1
 125 22 66.3333 22 7 20 c 1
 7 46 l 1
 53.6667 53.3333 77 70 77 96 c 2
 77 664 l 2
 77 690 53.6667 706.667 7 714 c 1
 7 740 l 1
EndSplineSet
EndChar
StartChar: O
Encoding: 79 79 49
Width: 512
Flags: W
Fore
8 374 m 0
 8 478 32.6667 565.833 82 637.5 c 128
 131.333 709.167 189 745 255 745 c 0
 320.333 745 377.833 709.167 427.5 637.5 c 128
 477.167 565.833 502 478 502 374 c 0
 502 269.333 477.167 183.167 427.5 115.5 c 128
 377.833 47.8333 320.333 14 255 14 c 0
 189 14 131.333 47.8333 82 115.5 c 128
 32.6667 183.167 8 269.333 8 374 c 0
84 373 m 0
 84 276.333 100 198.5 132 139.5 c 128
 164 80.5 205 51 255 51 c 0
 304.333 51 345.167 80.5 377.5 139.5 c 128
 409.833 198.5 426 276.667 426 374 c 0
 426 470.667 409.833 550.5 377.5 613.5 c 128
 345.167 676.5 304.333 708 255 708 c 0
 205 708 164 676.5 132 613.5 c 128
 100 550.5 84 470.333 84 373 c 0
EndSplineSet
EndChar
StartChar: P
Encoding: 80 80 50
Width: 512
Flags: W
Fore
3 740 m 1
 72.3333 738 135 738 191 740 c 2
 212 740 l 2
 304.667 740 374.833 723.167 422.5 689.5 c 128
 470.167 655.833 494 612.667 494 560 c 0
 494 506.667 470.167 462.833 422.5 428.5 c 128
 374.833 394.167 304.667 377 212 377 c 2
 149 377 l 1
 149 96 l 2
 149 70 180.333 53.3333 243 46 c 1
 243 20 l 1
 156.333 22 76.3333 22 3 20 c 1
 3 46 l 1
 53.6667 53.3333 79 70 79 96 c 2
 79 664 l 2
 79 690 53.6667 706.667 3 714 c 1
 3 740 l 1
189 703 m 2
 162.333 703 149 690 149 664 c 2
 149 414 l 1
 212 414 l 2
 296.667 414 352.833 429.5 380.5 460.5 c 128
 408.167 491.5 422 524.667 422 560 c 0
 422 596 408.167 628.833 380.5 658.5 c 128
 352.833 688.167 296.667 703 212 703 c 2
 189 703 l 2
EndSplineSet
EndChar
StartChar: Q
Encoding: 81 81 51
Width: 512
Flags: W
Fore
8 374 m 0
 8 478 32 565.833 80 637.5 c 128
 128 709.167 186.333 745 255 745 c 0
 323 745 381.167 709.167 429.5 637.5 c 128
 477.833 565.833 502 478 502 374 c 0
 502 269.333 481.667 189.167 441 133.5 c 128
 400.333 77.8333 359.667 42.3333 319 27 c 1
 323 18.3333 329.667 9.83333 339 1.5 c 128
 348.333 -6.83333 361.333 -11 378 -11 c 0
 394 -11 408.333 -6.5 421 2.5 c 128
 433.667 11.5 445.333 26.6667 456 48 c 1
 466.667 58.6667 473.667 56.6667 477 42 c 1
 464.333 11.3333 449.333 -12.8333 432 -30.5 c 128
 414.667 -48.1667 396 -57.6667 376 -59 c 1
 344.667 -58.3333 320.167 -50.3333 302.5 -35 c 128
 284.833 -19.6667 272.333 -3.33333 265 14 c 1
 255 14 l 2
 189 14 131.333 47.8333 82 115.5 c 128
 32.6667 183.167 8 269.333 8 374 c 0
84 373 m 0
 84 301 92.6667 239 110 187 c 1
 116.667 195 126.667 205.833 140 219.5 c 128
 153.333 233.167 172.333 240 197 240 c 0
 219.667 240 240.833 230.667 260.5 212 c 128
 280.167 193.333 292 169 296 139 c 128
 300 109 304 83 308 61 c 1
 336 78.3333 362.667 110.5 388 157.5 c 128
 413.333 204.5 426 276.667 426 374 c 0
 426 470.667 410.5 550.5 379.5 613.5 c 128
 348.5 676.5 307 708 255 708 c 0
 202.333 708 160.667 676.5 130 613.5 c 128
 99.3333 550.5 84 470.333 84 373 c 0
197 212 m 0
 181 212 167.833 205.333 157.5 192 c 128
 147.167 178.667 137.333 163.667 128 147 c 1
 162.667 83 205 50.3333 255 49 c 1
 249 72.3333 244.5 98.8333 241.5 128.5 c 128
 238.5 158.167 233.833 179.5 227.5 192.5 c 128
 221.167 205.5 211 212 197 212 c 0
EndSplineSet
EndChar
StartChar: R
Encoding: 82 82 52
Width: 512
Flags: W
Fore
3 740 m 1
 72.3333 738 135 738 191 740 c 2
 212 740 l 2
 298 740 364.5 723.167 411.5 689.5 c 128
 458.5 655.833 482 612.667 482 560 c 0
 482 506.667 463.667 466.667 427 440 c 128
 390.333 413.333 353 395.667 315 387 c 1
 444 89 l 1
 456 66.3333 478.667 52.6667 512 48 c 1
 512 20 l 1
 470.667 21.3333 431 21.3333 393 20 c 1
 368 89 l 1
 247 378 l 1
 237 377.333 225.333 377 212 377 c 2
 149 377 l 1
 149 96 l 2
 149 70 180.333 53.3333 243 46 c 1
 243 20 l 1
 156.333 22 76.3333 22 3 20 c 1
 3 46 l 1
 53.6667 53.3333 79 70 79 96 c 2
 79 664 l 2
 79 690 53.6667 706.667 3 714 c 1
 3 740 l 1
189 703 m 2
 162.333 703 149 690 149 664 c 2
 149 414 l 1
 212 414 l 2
 290 414 342.5 429.5 369.5 460.5 c 128
 396.5 491.5 410 524.667 410 560 c 0
 410 596 396.5 628.833 369.5 658.5 c 128
 342.5 688.167 290 703 212 703 c 2
 189 703 l 2
EndSplineSet
EndChar
StartChar: S
Encoding: 83 83 53
Width: 512
Flags: W
Fore
248 745 m 0
 283.333 745 312 741.167 334 733.5 c 128
 356 725.833 375.667 721.833 393 721.5 c 128
 410.333 721.167 428.333 728.667 447 744 c 1
 453 744 l 1
 459 676.667 469.333 604.333 484 527 c 1
 454 520 l 1
 443.333 560 429.333 594.333 412 623 c 128
 394.667 651.667 372.833 673 346.5 687 c 128
 320.167 701 287.333 708 248 708 c 0
 216 708 186.667 695.5 160 670.5 c 128
 133.333 645.5 120 605.667 120 551 c 1
 124 515.667 136.667 489.5 158 472.5 c 128
 179.333 455.5 225.5 436 296.5 414 c 128
 367.5 392 419.333 364.667 452 332 c 128
 484.667 299.333 501 258 501 208 c 0
 501 150 476.833 103.167 428.5 67.5 c 128
 380.167 31.8333 328.667 14 274 14 c 0
 237.333 14 207.333 18.5 184 27.5 c 128
 160.667 36.5 140.667 41 124 41 c 128
 107.333 41 87 32 63 14 c 1
 57 14 l 1
 49.6667 87.3333 37.3333 163.667 20 243 c 1
 50 248 l 1
 65.3333 200.667 81.5 162.667 98.5 134 c 128
 115.5 105.333 139.833 84.3333 171.5 71 c 128
 203.167 57.6667 237.333 51 274 51 c 0
 315.333 51 350.833 63.8333 380.5 89.5 c 128
 410.167 115.167 425 154.667 425 208 c 0
 425 234 415.167 259 395.5 283 c 128
 375.833 307 326.833 331.833 248.5 357.5 c 128
 170.167 383.167 116.5 412.333 87.5 445 c 128
 58.5 477.667 44 513 44 551 c 0
 44 610.333 66.6667 657.5 112 692.5 c 128
 157.333 727.5 202.667 745 248 745 c 0
EndSplineSet
EndChar
StartChar: T
Encoding: 84 84 54
Width: 512
Flags: W
Fore
375 46 m 1
 375 20 l 1
 293 22 211 22 129 20 c 1
 129 46 l 1
 187.667 53.3333 217 70 217 96 c 2
 217 675 l 2
 217 693.667 207.667 703 189 703 c 2
 156 703 l 2
 130.667 703 107.833 693.5 87.5 674.5 c 128
 67.1667 655.5 45.6667 617 23 559 c 1
 2 563 l 1
 18 633 30 692 38 740 c 1
 183.333 738 329.333 738 476 740 c 1
 484 692 496 633 512 563 c 1
 491 559 l 1
 468.333 617 446.833 655.5 426.5 674.5 c 128
 406.167 693.5 383.333 703 358 703 c 2
 315 703 l 2
 296.333 703 287 693.667 287 675 c 2
 287 96 l 2
 287 70 316.333 53.3333 375 46 c 1
EndSplineSet
EndChar
StartChar: U
Encoding: 85 85 55
Width: 512
Flags: W
Fore
141 210 m 2
 141 161.333 151.833 122.667 173.5 94 c 128
 195.167 65.3333 224.667 51 262 51 c 0
 304 51 338 65 364 93 c 128
 390 121 403.333 160 404 210 c 1
 404 664 l 2
 404 690 380.667 706.667 334 714 c 1
 334 740 l 1
 393.333 738 452 738 510 740 c 1
 510 714 l 1
 464 706.667 441 690 441 664 c 2
 441 210 l 2
 441 154.667 425.333 108.167 394 70.5 c 128
 362.667 32.8333 318.667 14 262 14 c 0
 206 14 159.5 32.8333 122.5 70.5 c 128
 85.5 108.167 68.3333 154.667 71 210 c 1
 71 664 l 2
 71 690 48.3333 706.667 3 714 c 1
 3 740 l 1
 71 738 143.667 738 221 740 c 1
 221 714 l 1
 167.667 706.667 141 690 141 664 c 2
 141 210 l 2
EndSplineSet
EndChar
StartChar: V
Encoding: 86 86 56
Width: 512
Flags: W
Fore
276 160 m 1
 403 664 l 1
 410.333 690 390 706.667 342 714 c 1
 342 740 l 1
 399.333 738 456 738 512 740 c 1
 512 714 l 1
 470.667 706.667 446 690 438 664 c 1
 294 95 l 1
 273 15 l 1
 244 15 l 1
 75 664 l 2
 68.3333 690 43.3333 706.667 0 714 c 1
 0 740 l 1
 64.6667 738 131.667 738 201 740 c 1
 201 714 l 1
 158.333 706.667 140.333 690 147 664 c 2
 276 160 l 1
EndSplineSet
EndChar
StartChar: W
Encoding: 87 87 57
Width: 512
Flags: W
Fore
430 664 m 1
 433.333 690 419 706.667 387 714 c 1
 387 740 l 1
 432.333 738 475 738 515 740 c 1
 515 714 l 1
 486.333 706.667 471 690 469 664 c 1
 382 15 l 1
 363 15 l 1
 264 561 l 1
 191 15 l 1
 170 15 l 1
 45 664 l 1
 42.3333 690 26.6667 706.667 -2 714 c 1
 -2 740 l 1
 45.3333 738 99.6667 738 161 740 c 1
 161 714 l 1
 124.333 706.667 109 690 115 664 c 1
 190 272 l 1
 239 658 l 1
 238 664 l 1
 235.333 690 217.667 706.667 185 714 c 1
 185 740 l 1
 241.667 738 297.333 738 352 740 c 1
 352 714 l 1
 320.667 706.667 308 690 314 664 c 1
 384 272 l 1
 430 664 l 1
EndSplineSet
EndChar
StartChar: X
Encoding: 88 88 58
Width: 512
Flags: W
Fore
360 664 m 2
 372.667 690 357.667 706.667 315 714 c 1
 315 740 l 1
 369 738.667 428.667 738.667 494 740 c 1
 494 714 l 1
 448 706.667 417.333 690 402 664 c 1
 279 417 l 1
 442 96 l 1
 452.667 70 476 53.3333 512 46 c 1
 512 20 l 1
 448 22 384.333 22 321 20 c 1
 321 46 l 1
 363.667 53.3333 378.333 70 365 96 c 2
 240 338 l 1
 120 96 l 1
 108.667 70 126 53.3333 172 46 c 1
 172 20 l 1
 114 22 57 22 1 20 c 1
 1 46 l 1
 39.6667 53.3333 65.3333 70 78 96 c 2
 226 394 l 1
 86 664 l 1
 74 690 49.6667 706.667 13 714 c 1
 13 740 l 1
 79 738.667 141.667 738.667 201 740 c 1
 201 714 l 1
 166.333 706.667 154.333 690 165 664 c 1
 264 470 l 1
 360 664 l 2
EndSplineSet
EndChar
StartChar: Y
Encoding: 89 89 59
Width: 512
Flags: W
Fore
377 46 m 1
 377 20 l 1
 295 22 213 22 131 20 c 1
 131 46 l 1
 189.667 53.3333 219 70 219 96 c 2
 219 292 l 2
 219 313.333 216 335.667 210 359 c 1
 77 664 l 1
 67.6667 690 42.3333 706.667 1 714 c 1
 1 740 l 1
 64.3333 738 131 738 201 740 c 1
 201 714 l 1
 159.667 706.667 143.667 690 153 664 c 1
 275 383 l 1
 401 664 l 1
 408.333 690 389.667 706.667 345 714 c 1
 345 740 l 1
 404.333 738 459.667 738 511 740 c 1
 511 714 l 1
 471 706.667 447 690 439 664 c 1
 300 357 l 1
 292.667 334.333 289 313.333 289 294 c 2
 289 96 l 1
 286.333 70 315.667 53.3333 377 46 c 1
EndSplineSet
EndChar
StartChar: Z
Encoding: 90 90 60
Width: 512
Flags: W
Fore
489 740 m 1
 489 719 l 1
 102 57 l 1
 357 57 l 1
 376.333 59 395 69.1667 413 87.5 c 128
 431 105.833 451.333 144 474 202 c 1
 495 198 l 1
 479 128 467 69 459 21 c 1
 310.333 23 162 23 14 21 c 1
 14 40 l 1
 400 703 l 1
 188 703 l 2
 162.667 703 139.833 695.5 119.5 680.5 c 128
 99.1667 665.5 79 632.333 59 581 c 1
 38 585 l 1
 52 638.333 62.6667 690 70 740 c 1
 209.333 738 349 738 489 740 c 1
EndSplineSet
EndChar
StartChar: bracketleft
Encoding: 91 91 61
Width: 512
Flags: W
Fore
191 826 m 1
 412 826 l 1
 412 777 l 1
 241 777 l 1
 241 -49 l 1
 412 -49 l 1
 412 -97 l 1
 191 -97 l 1
 191 826 l 1
EndSplineSet
EndChar
StartChar: backslash
Encoding: 92 92 62
Width: 512
Flags: W
Fore
462 -60 m 1
 7 788 l 1
 4.33333 800 8.16667 808.333 18.5 813 c 128
 28.8333 817.667 38.6667 815 48 805 c 1
 502 -39 l 1
 504 -52.3333 500.167 -61.6667 490.5 -67 c 128
 480.833 -72.3333 471.333 -70 462 -60 c 1
EndSplineSet
EndChar
StartChar: bracketright
Encoding: 93 93 63
Width: 512
Flags: W
Fore
311 826 m 1
 311 -97 l 1
 90 -97 l 1
 90 -49 l 1
 261 -49 l 1
 261 777 l 1
 90 777 l 1
 90 826 l 1
 311 826 l 1
EndSplineSet
EndChar
StartChar: asciicircum
Encoding: 94 94 64
Width: 512
Flags: W
Fore
235 836 m 1
 276 836 l 1
 391 687 l 1
 393 677 389 673.333 379 676 c 1
 274 757 l 1
 261.333 769.667 248.667 769.667 236 757 c 1
 132 676 l 1
 119.333 672 115.667 675.667 121 687 c 1
 235 836 l 1
EndSplineSet
EndChar
StartChar: underscore
Encoding: 95 95 65
Width: 512
Flags: W
Fore
4 -82 m 1
 505 -82 l 1
 505 -121 l 1
 4 -121 l 1
 4 -82 l 1
EndSplineSet
EndChar
StartChar: grave
Encoding: 96 96 66
Width: 512
Flags: W
Fore
254 668 m 0
 254 653.333 248 639.833 236 627.5 c 128
 224 615.167 210.333 609 195 609 c 0
 179 609 164.833 615.333 152.5 628 c 128
 140.167 640.667 134 656.333 134 675 c 1
 136.667 706.333 147.167 735.333 165.5 762 c 128
 183.833 788.667 210 815 244 841 c 1
 252 843 254.333 840.333 251 833 c 1
 229.667 805 216.167 783.833 210.5 769.5 c 128
 204.833 755.167 202.5 743.833 203.5 735.5 c 128
 204.5 727.167 208.167 721.833 214.5 719.5 c 128
 220.833 717.167 229 711.167 239 701.5 c 128
 249 691.833 254 680.667 254 668 c 0
EndSplineSet
EndChar
StartChar: a
Encoding: 97 97 67
Width: 512
Flags: W
Fore
262 510 m 0
 291.333 510 322.833 498.167 356.5 474.5 c 128
 390.167 450.833 407 409.333 407 350 c 2
 407 116 l 2
 407 88.6667 408 70 410 60 c 128
 412 50 415.333 45 420 45 c 0
 428.667 45 436.333 47.3333 443 52 c 128
 449.667 56.6667 460.333 72 475 98 c 0
 479 105.333 484.667 107.5 492 104.5 c 128
 499.333 101.5 501.667 96 499 88 c 1
 483.667 58 468.833 38 454.5 28 c 128
 440.167 18 427.333 13 416 13 c 0
 397.333 13 381.167 17.3333 367.5 26 c 128
 353.833 34.6667 344.333 49 339 69 c 1
 323.667 54.3333 305.333 41.6667 284 31 c 128
 262.667 20.3333 234 14.6667 198 14 c 0
 147.333 14 107.167 26 77.5 50 c 128
 47.8333 74 33 102.333 33 135 c 0
 33 159.667 40.8333 184.833 56.5 210.5 c 128
 72.1667 236.167 102.5 260.667 147.5 284 c 128
 192.5 307.333 255.667 321.333 337 326 c 1
 337 351 l 1
 337.667 404.333 330 438 314 452 c 128
 298 466 280.667 473 262 473 c 0
 238.667 473 217.667 470 199 464 c 128
 180.333 458 166.833 449 158.5 437 c 128
 150.167 425 146.5 413.333 147.5 402 c 128
 148.5 390.667 142 380.167 128 370.5 c 128
 114 360.833 101.333 356.5 90 357.5 c 128
 78.6667 358.5 70.5 363.833 65.5 373.5 c 128
 60.5 383.167 60.3333 395.5 65 410.5 c 128
 69.6667 425.5 83.1667 441.5 105.5 458.5 c 128
 127.833 475.5 152.167 488.333 178.5 497 c 128
 204.833 505.667 232.667 510 262 510 c 0
337 295 m 1
 262.333 287 213 277 189 265 c 128
 165 253 145.667 235.667 131 213 c 128
 116.333 190.333 109 164.667 109 136 c 0
 109 111.333 118.167 90 136.5 72 c 128
 154.833 54 175.667 45 199 45 c 0
 225 45.6667 250.167 52.5 274.5 65.5 c 128
 298.833 78.5 315.333 94.6667 324 114 c 128
 332.667 133.333 337 152.667 337 172 c 2
 337 295 l 1
EndSplineSet
EndChar
StartChar: b
Encoding: 98 98 68
Width: 512
Flags: W
Fore
142 48 m 1
 130 39.3333 112 28.3333 88 15 c 1
 72 15 l 1
 72 686 l 2
 72 704.667 55 715.333 21 718 c 1
 21 743 l 1
 81.6667 749 117.667 760.667 129 778 c 1
 142 778 l 1
 142 441 l 1
 163.333 465 186.333 482.5 211 493.5 c 128
 235.667 504.5 259.667 510 283 510 c 0
 335.667 508.667 382.833 486.667 424.5 444 c 128
 466.167 401.333 487 340.667 487 262 c 0
 487 186.667 462.833 126.5 414.5 81.5 c 128
 366.167 36.5 314.667 14 260 14 c 0
 231.333 14 208.167 18.5 190.5 27.5 c 128
 172.833 36.5 156.667 47.3333 142 60 c 1
 142 48 l 1
260 51 m 0
 288 51 320.167 70 356.5 108 c 128
 392.833 146 411 197.333 411 262 c 0
 411 326.667 396.167 376 366.5 410 c 128
 336.833 444 307.333 461.667 278 463 c 0
 252.667 463 230.333 459.5 211 452.5 c 128
 191.667 445.5 168.667 426.667 142 396 c 1
 142 150 l 2
 142 130.667 148 113.333 160 98 c 128
 172 82.6667 185.5 71 200.5 63 c 128
 215.5 55 235.333 51 260 51 c 0
EndSplineSet
EndChar
StartChar: c
Encoding: 99 99 69
Width: 512
Flags: W
Fore
267 510 m 0
 294.333 510 318.167 506.667 338.5 500 c 128
 358.833 493.333 376.833 485 392.5 475 c 128
 408.167 465 421 454.333 431 443 c 128
 441 431.667 448.167 421.5 452.5 412.5 c 128
 456.833 403.5 458.667 393.667 458 383 c 128
 457.333 372.333 453.333 363.833 446 357.5 c 128
 438.667 351.167 429.833 348 419.5 348 c 128
 409.167 348 399.5 351.167 390.5 357.5 c 128
 381.5 363.833 375.667 371.667 373 381 c 128
 370.333 390.333 369.833 399.833 371.5 409.5 c 128
 373.167 419.167 369.333 429.833 360 441.5 c 128
 350.667 453.167 337.667 461.333 321 466 c 128
 304.333 470.667 286.333 473 267 473 c 0
 213 473 171.833 452.833 143.5 412.5 c 128
 115.167 372.167 101 323.667 101 267 c 0
 101 207.667 120.5 158.5 159.5 119.5 c 128
 198.5 80.5 239.333 61 282 61 c 0
 306 61 331.667 66 359 76 c 128
 386.333 86 408.667 103.833 426 129.5 c 128
 443.333 155.167 454.667 176 460 192 c 1
 464.667 201.333 471 205.333 479 204 c 128
 487 202.667 490.667 196.667 490 186 c 1
 486 167.333 474.833 143.833 456.5 115.5 c 128
 438.167 87.1667 413 63.1667 381 43.5 c 128
 349 23.8333 311.333 14 268 14 c 0
 202 14 145 37.8333 97 85.5 c 128
 49 133.167 25 193.667 25 267 c 0
 25 332.333 49.3333 389.167 98 437.5 c 128
 146.667 485.833 203 510 267 510 c 0
EndSplineSet
EndChar
StartChar: d
Encoding: 100 100 70
Width: 512
Flags: W
Fore
377 686 m 2
 377 704.667 360 715.333 326 718 c 1
 326 743 l 1
 388 749 424 760.667 434 778 c 1
 447 778 l 1
 447 99 l 2
 447 80.3333 463.667 69.6667 497 67 c 1
 497 42 l 1
 434.333 36 398.667 24.3333 390 7 c 1
 377 7 l 1
 377 68 l 1
 355.667 48 332.833 34 308.5 26 c 128
 284.167 18 259.333 14 234 14 c 0
 184.667 14 138.5 38.5 95.5 87.5 c 128
 52.5 136.5 31 194.667 31 262 c 0
 31 334 52 393 94 439 c 128
 136 485 184.667 508.667 240 510 c 0
 266 510 289.667 505.167 311 495.5 c 128
 332.333 485.833 354.333 467 377 439 c 1
 377 686 l 2
236 473 m 0
 195.333 471.667 163.667 450.667 141 410 c 128
 118.333 369.333 107 320 107 262 c 0
 107 205.333 122.5 157.667 153.5 119 c 128
 184.5 80.3333 214.667 61 244 61 c 0
 265.333 61 286.667 63.6667 308 69 c 128
 329.333 74.3333 346.167 85.8333 358.5 103.5 c 128
 370.833 121.167 377 139 377 157 c 2
 377 361 l 1
 355 411 332.833 442.167 310.5 454.5 c 128
 288.167 466.833 263.333 473 236 473 c 0
EndSplineSet
EndChar
StartChar: e
Encoding: 101 101 71
Width: 512
Flags: W
Fore
104 309 m 1
 427 309 l 1
 423 354.333 406.333 393 377 425 c 128
 347.667 457 310.333 473 265 473 c 0
 216.333 473 178.667 455.5 152 420.5 c 128
 125.333 385.5 109.333 348.333 104 309 c 1
265 510 m 0
 330.333 510 385.167 488.167 429.5 444.5 c 128
 473.833 400.833 496 346 496 280 c 1
 432 280 l 1
 101 280 l 1
 101 267 l 2
 101 207.667 120.5 158.5 159.5 119.5 c 128
 198.5 80.5 239.333 61 282 61 c 0
 306 61 331.667 66 359 76 c 128
 386.333 86 408.667 103.833 426 129.5 c 128
 443.333 155.167 454.667 176 460 192 c 1
 464.667 201.333 471 205.333 479 204 c 128
 487 202.667 490.667 196.667 490 186 c 1
 486 167.333 474.833 143.833 456.5 115.5 c 128
 438.167 87.1667 413 63.1667 381 43.5 c 128
 349 23.8333 311.333 14 268 14 c 0
 202 14 145 37.8333 97 85.5 c 128
 49 133.167 25 193.667 25 267 c 0
 25 332.333 48.6667 389.167 96 437.5 c 128
 143.333 485.833 199.667 510 265 510 c 0
EndSplineSet
EndChar
StartChar: f
Encoding: 102 102 72
Width: 512
Flags: W
Fore
417 494 m 1
 417 457 l 1
 224 457 l 1
 224 96 l 2
 224 70 260.667 53.3333 334 46 c 1
 334 20 l 1
 236.667 22 148 22 68 20 c 1
 68 46 l 1
 125.333 53.3333 154 70 154 96 c 2
 154 457 l 1
 33 457 l 1
 33 494 l 1
 154 494 l 1
 154 578 l 2
 154 641.333 173.167 692.333 211.5 731 c 128
 249.833 769.667 289.667 789 331 789 c 0
 356.333 789 377 786.333 393 781 c 128
 409 775.667 424.167 768.5 438.5 759.5 c 128
 452.833 750.5 464.167 739 472.5 725 c 128
 480.833 711 481.333 696.5 474 681.5 c 128
 466.667 666.5 455 659.667 439 661 c 128
 423 662.333 411.667 667 405 675 c 128
 398.333 683 395.333 692 396 702 c 128
 396.667 712 394.833 721.333 390.5 730 c 128
 386.167 738.667 379.667 745.167 371 749.5 c 128
 362.333 753.833 349 756 331 756 c 0
 305.667 756 281.5 740.667 258.5 710 c 128
 235.5 679.333 224 635.333 224 578 c 2
 224 494 l 1
 417 494 l 1
EndSplineSet
EndChar
StartChar: g
Encoding: 103 103 73
Width: 512
Flags: W
Fore
416 553 m 0
 428 553 440 550.833 452 546.5 c 128
 464 542.167 474 536.167 482 528.5 c 128
 490 520.833 495.667 512.167 499 502.5 c 128
 502.333 492.833 501.333 484.167 496 476.5 c 128
 490.667 468.833 484.333 464.333 477 463 c 128
 469.667 461.667 462.667 463.167 456 467.5 c 128
 449.333 471.833 445.333 478.167 444 486.5 c 128
 442.667 494.833 441 502.333 439 509 c 128
 437 515.667 433.333 520.333 428 523 c 128
 422.667 525.667 416.667 527 410 527 c 0
 399.333 527 389.5 522.333 380.5 513 c 128
 371.5 503.667 362 489.667 352 471 c 1
 381.333 445.667 396 415.667 396 381 c 0
 396 342.333 378 309.5 342 282.5 c 128
 306 255.5 268 242 228 242 c 1
 188 230 161.5 219.333 148.5 210 c 128
 135.5 200.667 129 192.333 129 185 c 0
 129 179 132.167 173.333 138.5 168 c 128
 144.833 162.667 161 158.667 187 156 c 128
 213 153.333 243 149.333 277 144 c 128
 311 138.667 345.333 130.5 380 119.5 c 128
 414.667 108.5 441.5 92.8333 460.5 72.5 c 128
 479.5 52.1667 489 27.3333 489 -2 c 0
 489 -34.6667 466.333 -62.5 421 -85.5 c 128
 375.667 -108.5 317.333 -120 246 -120 c 0
 174.667 -120 116.333 -108.5 71 -85.5 c 128
 25.6667 -62.5 3 -34.6667 3 -2 c 0
 3 21.3333 12.1667 43 30.5 63 c 128
 48.8333 83 83 103 133 123 c 1
 113 127.667 98.1667 136 88.5 148 c 128
 78.8333 160 74 172 74 184 c 0
 74 194.667 81.1667 205.333 95.5 216 c 128
 109.833 226.667 137.333 237.667 178 249 c 1
 155.333 255.667 129.667 269.667 101 291 c 128
 72.3333 312.333 58 342.333 58 381 c 0
 58 419.667 76 452.5 112 479.5 c 128
 148 506.5 186.333 520 227 520 c 0
 261 520 293.333 510.667 324 492 c 1
 337.333 509.333 351.833 523.833 367.5 535.5 c 128
 383.167 547.167 399.333 553 416 553 c 0
227 483 m 0
 201 483 179 472 161 450 c 128
 143 428 134 405 134 381 c 0
 134 357 142.667 334 160 312 c 128
 177.333 290 199.667 279 227 279 c 0
 251.667 279 273.333 290 292 312 c 128
 310.667 334 320 357 320 381 c 0
 320 405 311.333 428 294 450 c 128
 276.667 472 254.333 483 227 483 c 0
79 -2 m 0
 79 -22.6667 96 -41.3333 130 -58 c 128
 164 -74.6667 202.667 -83 246 -83 c 0
 289.333 -83 328 -74.6667 362 -58 c 128
 396 -41.3333 413 -22.6667 413 -2 c 0
 413 13.3333 409.167 27.6667 401.5 41 c 128
 393.833 54.3333 375.5 66.3333 346.5 77 c 128
 317.5 87.6667 288.667 96 260 102 c 128
 231.333 108 201.667 113 171 117 c 1
 126.333 97.6667 99.8333 77.6667 91.5 57 c 128
 83.1667 36.3333 79 16.6667 79 -2 c 0
EndSplineSet
EndChar
StartChar: h
Encoding: 104 104 74
Width: 512
Flags: W
Fore
439 96 m 2
 439 70 461.333 53.3333 506 46 c 1
 506 20 l 1
 437.333 22 370.333 22 305 20 c 1
 305 46 l 1
 350.333 53.3333 371.667 70 369 96 c 1
 369 360 l 2
 369 403.333 359.833 433 341.5 449 c 128
 323.167 465 303.667 473 283 473 c 0
 263 473 244.167 468.167 226.5 458.5 c 128
 208.833 448.833 190.667 429.333 172 400 c 128
 153.333 370.667 144 342 144 314 c 2
 144 96 l 2
 144 70 166.333 53.3333 211 46 c 1
 211 20 l 1
 142.333 22 75.3333 22 10 20 c 1
 10 46 l 1
 52.6667 53.3333 74 70 74 96 c 2
 74 685 l 2
 74 703.667 56.3333 714.333 21 717 c 1
 21 742 l 1
 85.6667 748 122.667 759.667 132 777 c 1
 144 777 l 1
 144 408 l 1
 165.333 444.667 187.5 470.833 210.5 486.5 c 128
 233.5 502.167 257.667 510 283 510 c 0
 319.667 510 354.833 497.167 388.5 471.5 c 128
 422.167 445.833 439 408.667 439 360 c 2
 439 96 l 2
EndSplineSet
EndChar
StartChar: i
Encoding: 105 105 75
Width: 512
Flags: W
Fore
195 691 m 0
 195 705.667 200.333 718.333 211 729 c 128
 221.667 739.667 234.667 745 250 745 c 0
 264.667 745 277.667 739.667 289 729 c 128
 300.333 718.333 306 705.667 306 691 c 0
 306 676.333 300.333 664 289 654 c 128
 277.667 644 264.667 639 250 639 c 0
 234.667 639 221.667 644 211 654 c 128
 200.333 664 195 676.333 195 691 c 0
295 96 m 2
 295 70 327.667 53.3333 393 46 c 1
 393 20 l 1
 303.667 22 214.333 22 125 20 c 1
 125 46 l 1
 191.667 53.3333 225 70 225 96 c 2
 225 444 l 2
 225 462.667 201.667 473.333 155 476 c 1
 155 497 l 1
 231 503 273.333 514.667 282 532 c 1
 295 532 l 1
 295 96 l 2
EndSplineSet
EndChar
StartChar: j
Encoding: 106 106 76
Width: 512
Flags: W
Fore
290 691 m 0
 290 705.667 295.333 718.333 306 729 c 128
 316.667 739.667 329.667 745 345 745 c 0
 359.667 745 372.667 739.667 384 729 c 128
 395.333 718.333 401 705.667 401 691 c 0
 401 676.333 395.333 664 384 654 c 128
 372.667 644 359.667 639 345 639 c 0
 329.667 639 316.667 644 306 654 c 128
 295.333 664 290 676.333 290 691 c 0
247 -117 m 0
 219.667 -117 198.5 -114.333 183.5 -109 c 128
 168.5 -103.667 154.333 -96.6667 141 -88 c 128
 127.667 -79.3333 116.667 -69 108 -57 c 128
 99.3333 -45 94.3333 -33.8333 93 -23.5 c 128
 91.6667 -13.1667 95 -3.33333 103 6 c 128
 111 15.3333 120.833 20.1667 132.5 20.5 c 128
 144.167 20.8333 155 16.1667 165 6.5 c 128
 175 -3.16667 180 -12.1667 180 -20.5 c 128
 180 -28.8333 179.833 -36.3333 179.5 -43 c 128
 179.167 -49.6667 182.167 -56.1667 188.5 -62.5 c 128
 194.833 -68.8333 202.667 -73.3333 212 -76 c 128
 221.333 -78.6667 233 -80 247 -80 c 0
 262.333 -80 278.167 -71 294.5 -53 c 128
 310.833 -35 319 3.33333 319 62 c 2
 319 435 l 2
 319 453.667 295.667 464.333 249 467 c 1
 249 492 l 1
 325 498 367.333 509.667 376 527 c 1
 389 527 l 1
 389 64 l 2
 389 -1.33333 372.833 -47.8333 340.5 -75.5 c 128
 308.167 -103.167 277 -117 247 -117 c 0
EndSplineSet
EndChar
StartChar: k
Encoding: 107 107 77
Width: 512
Flags: W
Fore
144 96 m 1
 142.667 70 165 53.3333 211 46 c 1
 211 20 l 1
 142.333 22 75.3333 22 10 20 c 1
 10 46 l 1
 52.6667 53.3333 74 70 74 96 c 2
 74 689 l 2
 74 707.667 56.3333 718.333 21 721 c 1
 21 742 l 1
 85.6667 748 122.667 759.667 132 777 c 1
 144 777 l 1
 144 271 l 1
 318 449 l 1
 337.333 472.333 321.333 487.667 270 495 c 1
 270 520 l 1
 330.667 518 393.667 518 459 520 c 1
 459 495 l 1
 419 487.667 388 472.333 366 449 c 2
 281 361 l 1
 426 96 l 1
 441.333 70 468.333 53.3333 507 46 c 1
 507 20 l 1
 447 22 383.333 22 316 20 c 1
 316 46 l 1
 360 53.3333 375 70 361 96 c 1
 245 327 l 1
 144 228 l 1
 144 96 l 1
EndSplineSet
EndChar
StartChar: l
Encoding: 108 108 78
Width: 512
Flags: W
Fore
296 94 m 1
 295.333 70 327 54.3333 391 47 c 1
 391 20 l 1
 307.667 22 224.667 22 142 20 c 1
 142 47 l 1
 196 54.3333 224 70 226 94 c 1
 226 689 l 2
 226 707.667 202.667 718.333 156 721 c 1
 156 742 l 1
 232 748 274.667 759.667 284 777 c 1
 296 777 l 1
 296 94 l 1
EndSplineSet
EndChar
StartChar: m
Encoding: 109 109 79
Width: 512
Flags: W
Fore
400 366 m 1
 400.667 408 396.167 436.333 386.5 451 c 128
 376.833 465.667 366.667 473 356 473 c 0
 346 473 336.167 467.667 326.5 457 c 128
 316.833 446.333 308.333 428.167 301 402.5 c 128
 293.667 376.833 290 346.333 290 311 c 2
 290 90 l 2
 290 68 305.667 53.3333 337 46 c 1
 337 20 l 1
 281.667 22 228.333 22 177 20 c 1
 177 46 l 1
 205.667 53.3333 220 68 220 90 c 2
 220 366 l 2
 220 405.333 215 433 205 449 c 128
 195 465 186 473 178 473 c 0
 169.333 473 159.667 467 149 455 c 128
 138.333 443 130 424.833 124 400.5 c 128
 118 376.167 115 346.333 115 311 c 2
 115 90 l 2
 115 68 130 53.3333 160 46 c 1
 160 20 l 1
 106 22 52.6667 22 0 20 c 1
 0 46 l 1
 30 53.3333 45 68 45 90 c 2
 45 426 l 2
 45 444.667 30 455.333 0 458 c 1
 0 483 l 1
 55.3333 489 88.3333 500.667 99 518 c 1
 111 518 l 1
 111 445 l 1
 120.333 469 131.5 485.833 144.5 495.5 c 128
 157.5 505.167 168.667 510 178 510 c 0
 203.333 510 225.333 503.333 244 490 c 128
 262.667 476.667 274.667 455 280 425 c 1
 288.667 453.667 300.667 475 316 489 c 128
 331.333 503 344.667 510 356 510 c 0
 388 510 415 498.833 437 476.5 c 128
 459 454.167 470 417.333 470 366 c 2
 470 90 l 2
 470 68 484 53.3333 512 46 c 1
 512 20 l 1
 460 22 407.667 22 355 20 c 1
 355 46 l 1
 385 53.3333 400 68 400 90 c 2
 400 366 l 1
EndSplineSet
EndChar
StartChar: n
Encoding: 110 110 80
Width: 512
Flags: W
Fore
146 96 m 2
 146 70 168.333 53.3333 213 46 c 1
 213 20 l 1
 144.333 22 77.3333 22 12 20 c 1
 12 46 l 1
 54.6667 53.3333 76 70 76 96 c 2
 76 426 l 2
 76 444.667 58.3333 455.333 23 458 c 1
 23 483 l 1
 87.6667 489 124.667 500.667 134 518 c 1
 146 518 l 1
 146 422 l 1
 165.333 452.667 187.667 475 213 489 c 128
 238.333 503 263.667 510 289 510 c 0
 321 510 354.333 497.167 389 471.5 c 128
 423.667 445.833 441 407 441 355 c 2
 441 96 l 2
 441 70 463.333 53.3333 508 46 c 1
 508 20 l 1
 439.333 22 372.333 22 307 20 c 1
 307 46 l 1
 349.667 53.3333 371 70 371 96 c 2
 371 352 l 2
 371 398 363.333 429.667 348 447 c 128
 332.667 464.333 312.667 473 288 473 c 0
 265.333 473 244.167 467.5 224.5 456.5 c 128
 204.833 445.5 187 428.167 171 404.5 c 128
 155 380.833 146.667 349.667 146 311 c 1
 146 96 l 2
EndSplineSet
EndChar
StartChar: o
Encoding: 111 111 81
Width: 512
Flags: W
Fore
10 267 m 0
 10 334.333 33.8333 391.667 81.5 439 c 128
 129.167 486.333 186 510 252 510 c 0
 316.667 510 373.667 486.333 423 439 c 128
 472.333 391.667 497 334.333 497 267 c 0
 497 193 472.333 132.333 423 85 c 128
 373.667 37.6667 316.333 14 251 14 c 0
 185.667 14 129.167 37.6667 81.5 85 c 128
 33.8333 132.333 10 193 10 267 c 0
86 267 m 0
 86 201.667 102.5 149.333 135.5 110 c 128
 168.5 70.6667 207 51 251 51 c 0
 295 51 334.333 70.6667 369 110 c 128
 403.667 149.333 421 201.667 421 267 c 0
 421 329.667 403.667 379.667 369 417 c 128
 334.333 454.333 295.333 473 252 473 c 0
 207.333 473 168.5 454.333 135.5 417 c 128
 102.5 379.667 86 329.667 86 267 c 0
EndSplineSet
EndChar
StartChar: p
Encoding: 112 112 82
Width: 512
Flags: W
Fore
148 -38 m 2
 148 -64 170.333 -80.6667 215 -88 c 1
 215 -114 l 1
 146.333 -112 78.6667 -112 12 -114 c 1
 12 -88 l 1
 56 -80.6667 78 -64 78 -38 c 2
 78 426 l 2
 78 444.667 60.3333 455.333 25 458 c 1
 25 483 l 1
 89.6667 489 126.667 500.667 136 518 c 1
 148 518 l 1
 148 426 l 1
 164 448 184 467.333 208 484 c 128
 232 500.667 257.667 509 285 509 c 0
 336.333 509 382.833 489 424.5 449 c 128
 466.167 409 487 353.667 487 283 c 0
 487 222.333 466 169.667 424 125 c 128
 382 80.3333 335.667 58 285 58 c 0
 257 58 232.5 62.1667 211.5 70.5 c 128
 190.5 78.8333 169.333 90.6667 148 106 c 1
 148 -38 l 2
285 95 m 0
 315 95 343.5 112.667 370.5 148 c 128
 397.5 183.333 411 228.333 411 283 c 0
 411 345 396.333 390.667 367 420 c 128
 337.667 449.333 310.333 464 285 464 c 0
 265.667 464 248.167 460.833 232.5 454.5 c 128
 216.833 448.167 198.833 432 178.5 406 c 128
 158.167 380 148 352 148 322 c 2
 148 156 l 1
 174.667 130.667 198.833 114.167 220.5 106.5 c 128
 242.167 98.8333 263.667 95 285 95 c 0
EndSplineSet
EndChar
StartChar: q
Encoding: 113 113 83
Width: 512
Flags: W
Fore
362 -38 m 2
 362 106 l 1
 340.667 90.6667 319.5 78.8333 298.5 70.5 c 128
 277.5 62.1667 253 58 225 58 c 0
 174.333 58 128 80.3333 86 125 c 128
 44 169.667 23 222.333 23 283 c 0
 23 353.667 43.8333 409 85.5 449 c 128
 127.167 489 173.667 509 225 509 c 0
 252.333 509 278 500.667 302 484 c 128
 326 467.333 346 448 362 426 c 1
 362 518 l 1
 374 518 l 1
 383.333 500.667 420.333 489 485 483 c 1
 485 458 l 1
 449.667 455.333 432 444.667 432 426 c 2
 432 -38 l 2
 432 -64 454 -80.6667 498 -88 c 1
 498 -114 l 1
 431.333 -112 363.667 -112 295 -114 c 1
 295 -88 l 1
 339.667 -80.6667 362 -64 362 -38 c 2
225 95 m 0
 246.333 95 267.833 98.8333 289.5 106.5 c 128
 311.167 114.167 335.333 130.667 362 156 c 1
 362 322 l 2
 362 352 351.833 380 331.5 406 c 128
 311.167 432 293.167 448.167 277.5 454.5 c 128
 261.833 460.833 244.333 464 225 464 c 0
 199.667 464 172.333 449.333 143 420 c 128
 113.667 390.667 99 345 99 283 c 0
 99 228.333 112.5 183.333 139.5 148 c 128
 166.5 112.667 195 95 225 95 c 0
EndSplineSet
EndChar
StartChar: r
Encoding: 114 114 84
Width: 512
Flags: W
Fore
334 473 m 0
 315.333 473 296.833 469 278.5 461 c 128
 260.167 453 238.667 431 214 395 c 128
 189.333 359 177 326.667 177 298 c 2
 177 96 l 2
 177 70 200 53.3333 246 46 c 1
 246 20 l 1
 176 22 107.667 22 41 20 c 1
 41 46 l 1
 85 53.3333 107 70 107 96 c 2
 107 426 l 2
 107 444.667 89.3333 455.333 54 458 c 1
 54 483 l 1
 118.667 489 155.667 500.667 165 518 c 1
 177 518 l 1
 177 414 l 1
 199 448 224 472.5 252 487.5 c 128
 280 502.5 307.333 510 334 510 c 0
 358 510 380.333 504.5 401 493.5 c 128
 421.667 482.5 437 470.667 447 458 c 128
 457 445.333 463 434 465 424 c 128
 467 414 466.833 405.167 464.5 397.5 c 128
 462.167 389.833 456.667 382.667 448 376 c 128
 439.333 369.333 429 367.5 417 370.5 c 128
 405 373.5 396.333 380 391 390 c 128
 385.667 400 383.5 410.833 384.5 422.5 c 128
 385.5 434.167 381.667 445.5 373 456.5 c 128
 364.333 467.5 351.333 473 334 473 c 0
EndSplineSet
EndChar
StartChar: s
Encoding: 115 115 85
Width: 512
Flags: W
Fore
392 509 m 1
 401 509 l 1
 405.667 453.667 412 401 420 351 c 1
 394 345 l 1
 390 359.667 385.167 375 379.5 391 c 128
 373.833 407 364.167 421.667 350.5 435 c 128
 336.833 448.333 320.667 458 302 464 c 128
 283.333 470 264.667 473 246 473 c 0
 221.333 473 200.833 465.667 184.5 451 c 128
 168.167 436.333 160 416.333 160 391 c 0
 160 374.333 165 359.667 175 347 c 128
 185 334.333 206.333 321.667 239 309 c 128
 288 290 288 290 338.5 271.5 c 128
 372.167 259.167 401.5 241.667 426.5 219 c 128
 451.5 196.333 464 170.333 464 141 c 0
 464 103 444.5 72.3333 405.5 49 c 128
 366.5 25.6667 320.667 14 268 14 c 0
 242 14 218.667 17.8333 198 25.5 c 128
 177.333 33.1667 160.667 37.5 148 38.5 c 128
 135.333 39.5 118.667 31.6667 98 15 c 1
 90 15 l 1
 86 73.6667 77.6667 131.333 65 188 c 1
 93 194 l 1
 99.6667 167.333 108.167 145.5 118.5 128.5 c 128
 128.833 111.5 141.667 97.5 157 86.5 c 128
 172.333 75.5 188.667 66.8333 206 60.5 c 128
 223.333 54.1667 244 51 268 51 c 0
 300.667 51 329.667 59.5 355 76.5 c 128
 380.333 93.5 393 114.333 393 139 c 0
 393 154.333 385 168.5 369 181.5 c 128
 353 194.5 330.167 207.5 300.5 220.5 c 128
 270.833 233.5 238.167 246.833 202.5 260.5 c 128
 166.833 274.167 139.167 293 119.5 317 c 128
 99.8333 341 90 365 90 389 c 0
 90 423 105.333 451.667 136 475 c 128
 166.667 498.333 203.333 510 246 510 c 0
 266.667 510 286.333 506.833 305 500.5 c 128
 323.667 494.167 338.167 490.833 348.5 490.5 c 128
 358.833 490.167 373.333 496.333 392 509 c 1
EndSplineSet
EndChar
StartChar: t
Encoding: 116 116 86
Width: 512
Flags: W
Fore
222 681 m 1
 222 527 l 1
 370 527 l 1
 370 494 l 1
 222 494 l 1
 222 153 l 2
 222 118.333 229 92.3333 243 75 c 128
 257 57.6667 277.667 49 305 49 c 0
 325.667 49 345.5 52.6667 364.5 60 c 128
 383.5 67.3333 400.667 82.5 416 105.5 c 128
 431.333 128.5 441.333 155.333 446 186 c 1
 452.667 197.333 461 197.333 471 186 c 1
 469.667 148.667 461.333 117.5 446 92.5 c 128
 430.667 67.5 410.167 48.1667 384.5 34.5 c 128
 358.833 20.8333 332.333 14 305 14 c 0
 259.667 14 223.833 28.1667 197.5 56.5 c 128
 171.167 84.8333 158 117 158 153 c 2
 158 494 l 1
 39 494 l 1
 39 512 l 1
 50.3333 512 72.8333 518 106.5 530 c 128
 140.167 542 164.5 567.5 179.5 606.5 c 128
 194.5 645.5 202 670.333 202 681 c 1
 222 681 l 1
EndSplineSet
EndChar
StartChar: u
Encoding: 117 117 87
Width: 512
Flags: W
Fore
151 172 m 2
 151 132.667 160.167 102.667 178.5 82 c 128
 196.833 61.3333 217.333 51 240 51 c 0
 266.667 51 290.333 57.8333 311 71.5 c 128
 331.667 85.1667 349 110.167 363 146.5 c 128
 377 182.833 384 218.333 384 253 c 2
 384 426 l 2
 384 444.667 363.667 455.333 323 458 c 1
 323 483 l 1
 393 489 432.667 500.667 442 518 c 1
 454 518 l 1
 454 94 l 2
 454 75.3333 471.667 64.6667 507 62 c 1
 507 41 l 1
 441.667 35 404.667 23.3333 396 6 c 1
 384 6 l 1
 384 106 l 1
 370 76 350.5 53.1667 325.5 37.5 c 128
 300.5 21.8333 272 14 240 14 c 0
 200 14 163.5 28.6667 130.5 58 c 128
 97.5 87.3333 81 125.667 81 173 c 2
 81 426 l 2
 81 444.667 60.6667 455.333 20 458 c 1
 20 483 l 1
 90 489 129.667 500.667 139 518 c 1
 151 518 l 1
 151 172 l 2
EndSplineSet
EndChar
StartChar: v
Encoding: 118 118 88
Width: 512
Flags: W
Fore
26 484 m 1
 88 482 148.667 482 208 484 c 1
 208 458 l 1
 173.333 450.667 161.333 434 172 408 c 2
 284 131 l 1
 371 408 l 1
 376.333 434 358 450.667 316 458 c 1
 316 484 l 1
 375.333 482 432.333 482 487 484 c 1
 487 458 l 1
 445.667 450.667 419 434 407 408 c 1
 278 15 l 1
 260 15 l 1
 98 408 l 1
 88 434 64 450.667 26 458 c 1
 26 484 l 1
EndSplineSet
EndChar
StartChar: w
Encoding: 119 119 89
Width: 512
Flags: W
Fore
0 484 m 1
 43.3333 482 92.6667 482 148 484 c 1
 148 458 l 1
 126.667 450.667 119 434 125 408 c 1
 188 158 l 1
 244 408 l 1
 236.667 434 217.667 450.667 187 458 c 1
 187 484 l 1
 230.333 482 279.667 482 335 484 c 1
 335 458 l 1
 312.333 450.667 304 434 310 408 c 1
 373 168 l 1
 420 408 l 1
 425.333 434 411.667 450.667 379 458 c 1
 379 484 l 1
 427.667 482 472 482 512 484 c 1
 512 458 l 1
 480.667 450.667 462 434 456 408 c 1
 369 15 l 1
 351 15 l 1
 261 350 l 1
 182 15 l 1
 164 15 l 1
 59 408 l 1
 51.6667 434 32 450.667 0 458 c 1
 0 484 l 1
EndSplineSet
EndChar
StartChar: x
Encoding: 120 120 90
Width: 512
Flags: W
Fore
25 484 m 1
 81 482 142 482 208 484 c 1
 208 458 l 1
 172 450.667 166.667 434 192 408 c 1
 281 301 l 1
 379 408 l 1
 395 434 382.667 450.667 342 458 c 1
 342 484 l 1
 395.333 482 450 482 506 484 c 1
 506 458 l 1
 470 450.667 442.667 434 424 408 c 1
 290 265 l 1
 435 96 l 1
 453.667 70 479.333 53.3333 512 46 c 1
 512 20 l 1
 450 22 384 22 314 20 c 1
 314 46 l 1
 350 53.3333 358.667 70 340 96 c 1
 246 214 l 1
 130 96 l 2
 104.667 70 112.333 53.6667 153 47 c 1
 153 20 l 1
 100.333 22 49.3333 22 0 20 c 1
 0 46 l 1
 34 53.3333 62 70 84 96 c 1
 233 251 l 1
 103 408 l 1
 83.6667 434 57.6667 450.667 25 458 c 1
 25 484 l 1
EndSplineSet
EndChar
StartChar: y
Encoding: 121 121 91
Width: 512
Flags: W
Fore
24 484 m 1
 80.6667 482 138.667 482 198 484 c 1
 198 458 l 1
 167.333 450.667 159.667 434 175 408 c 1
 297 154 l 1
 385 408 l 1
 390.333 434 374 450.667 336 458 c 1
 336 484 l 1
 388.667 482 442 482 496 484 c 1
 496 458 l 1
 458 450.667 435 434 427 408 c 1
 307 70 l 1
 294.333 35.3333 280.833 1.66667 266.5 -31 c 128
 252.167 -63.6667 237.833 -86.6667 223.5 -100 c 128
 209.167 -113.333 192.667 -120 174 -120 c 0
 165.333 -120.667 156.667 -120.667 148 -120 c 128
 139.333 -119.333 130 -116.5 120 -111.5 c 128
 110 -106.5 101.333 -98.5 94 -87.5 c 128
 86.6667 -76.5 84.1667 -65.6667 86.5 -55 c 128
 88.8333 -44.3333 94.5 -37 103.5 -33 c 128
 112.5 -29 122 -29.3333 132 -34 c 128
 142 -38.6667 148 -44.6667 150 -52 c 128
 152 -59.3333 153.333 -66 154 -72 c 128
 154.667 -78 157.167 -81.5 161.5 -82.5 c 128
 165.833 -83.5 170.667 -84 176 -84 c 0
 184.667 -84 193 -80 201 -72 c 128
 209 -64 218.333 -47 229 -21 c 128
 239.667 5 250.333 33.3333 261 64 c 1
 99 408 l 1
 86.3333 434 61.3333 450.667 24 458 c 1
 24 484 l 1
EndSplineSet
EndChar
StartChar: z
Encoding: 122 122 92
Width: 512
Flags: W
Fore
82 484 m 1
 208.667 482 339.333 482 474 484 c 1
 474 474 l 1
 142 58 l 1
 327 58 l 2
 357.667 58 382.833 67.8333 402.5 87.5 c 128
 422.167 107.167 440.667 143.667 458 197 c 1
 474 195 l 1
 459.333 123.667 452 65.3333 452 20 c 1
 313.333 22 172.667 22 30 20 c 1
 30 31 l 1
 364 448 l 1
 183 448 l 2
 155.667 448 132.833 437.833 114.5 417.5 c 128
 96.1667 397.167 82.6667 370.333 74 337 c 1
 56 341 l 1
 69.3333 394.333 78 442 82 484 c 1
EndSplineSet
EndChar
StartChar: braceleft
Encoding: 123 123 93
Width: 512
Flags: W
Fore
423 847 m 1
 431 843.667 432 838.667 426 832 c 1
 390 816.667 362.167 798.5 342.5 777.5 c 128
 322.833 756.5 309.833 732.667 303.5 706 c 128
 297.167 679.333 295.667 645.5 299 604.5 c 128
 302.333 563.5 302.833 530 300.5 504 c 128
 298.167 478 290 453.833 276 431.5 c 128
 262 409.167 231 387.667 183 367 c 1
 231 345.667 262 323.833 276 301.5 c 128
 290 279.167 298.167 255 300.5 229 c 128
 302.833 203 302.333 169.5 299 128.5 c 128
 295.667 87.5 297.167 53.6667 303.5 27 c 128
 309.833 0.333333 322.833 -23.5 342.5 -44.5 c 128
 362.167 -65.5 390 -83.6667 426 -99 c 1
 432 -105.667 431 -110.667 423 -114 c 1
 379.667 -98.6667 346.5 -81.8333 323.5 -63.5 c 128
 300.5 -45.1667 281.5 -19.1667 266.5 14.5 c 128
 251.5 48.1667 246 86.8333 250 130.5 c 128
 254 174.167 255.167 208.667 253.5 234 c 128
 251.833 259.333 245.667 282.167 235 302.5 c 128
 224.333 322.833 202 342 168 360 c 0
 160 364 160 368.333 168 373 c 0
 202 391 224.333 410.167 235 430.5 c 128
 245.667 450.833 251.833 473.667 253.5 499 c 128
 255.167 524.333 254 558.833 250 602.5 c 128
 246 646.167 251.5 684.833 266.5 718.5 c 128
 281.5 752.167 300.5 778.167 323.5 796.5 c 128
 346.5 814.833 379.667 831.667 423 847 c 1
EndSplineSet
EndChar
StartChar: bar
Encoding: 124 124 94
Width: 512
Flags: W
Fore
231 875 m 1
 281 875 l 1
 281 -136 l 1
 231 -136 l 1
 231 875 l 1
EndSplineSet
EndChar
StartChar: braceright
Encoding: 125 125 95
Width: 512
Flags: W
Fore
89 847 m 1
 132.333 831.667 165.5 814.833 188.5 796.5 c 128
 211.5 778.167 230.5 752.167 245.5 718.5 c 128
 260.5 684.833 266 646.167 262 602.5 c 128
 258 558.833 256.833 524.333 258.5 499 c 128
 260.167 473.667 266.333 450.833 277 430.5 c 128
 287.667 410.167 310 391 344 373 c 0
 352 368.333 352 364 344 360 c 0
 310 342 287.667 322.833 277 302.5 c 128
 266.333 282.167 260.167 259.333 258.5 234 c 128
 256.833 208.667 258 174.167 262 130.5 c 128
 266 86.8333 260.5 48.1667 245.5 14.5 c 128
 230.5 -19.1667 211.5 -45.1667 188.5 -63.5 c 128
 165.5 -81.8333 132.333 -98.6667 89 -114 c 1
 81 -110.667 80 -105.667 86 -99 c 1
 122 -83.6667 149.833 -65.5 169.5 -44.5 c 128
 189.167 -23.5 202.167 0.333333 208.5 27 c 128
 214.833 53.6667 216.333 87.5 213 128.5 c 128
 209.667 169.5 209.167 203 211.5 229 c 128
 213.833 255 222 279.167 236 301.5 c 128
 250 323.833 281 345.667 329 367 c 1
 281 387.667 250 409.167 236 431.5 c 128
 222 453.833 213.833 478 211.5 504 c 128
 209.167 530 209.667 563.5 213 604.5 c 128
 216.333 645.5 214.833 679.333 208.5 706 c 128
 202.167 732.667 189.167 756.5 169.5 777.5 c 128
 149.833 798.5 122 816.667 86 832 c 1
 80 838.667 81 843.667 89 847 c 1
EndSplineSet
EndChar
StartChar: asciitilde
Encoding: 126 126 96
Width: 512
Flags: W
Fore
48 653 m 1
 90 728.333 125.667 766 155 766 c 0
 183 766 207.333 756.667 228 738 c 128
 248.667 719.333 267.333 704 284 692 c 128
 300.667 680 320.333 674 343 674 c 0
 367 674 400 698 442 746 c 1
 450 747.333 452.667 744.333 450 737 c 1
 408 662.333 372.333 625 343 625 c 0
 315 625 290.667 634.333 270 653 c 128
 249.333 671.667 230.667 687 214 699 c 128
 197.333 711 177.667 717 155 717 c 0
 131 717 98 693 56 645 c 1
 47.3333 641 44.6667 643.667 48 653 c 1
EndSplineSet
EndChar
StartChar: section
Encoding: 167 167 104
Width: 1024
Flags: W
Fore
472 810 m 0
 510 810 543.5 805.333 572.5 796 c 128
 601.5 786.667 624.667 773.833 642 757.5 c 128
 659.333 741.167 670.5 723.667 675.5 705 c 128
 680.5 686.333 679.833 669 673.5 653 c 128
 667.167 637 658 625.333 646 618 c 128
 634 610.667 621.833 608.333 609.5 611 c 128
 597.167 613.667 588.333 620.667 583 632 c 128
 577.667 643.333 577.167 653.833 581.5 663.5 c 128
 585.833 673.167 591.667 680.833 599 686.5 c 128
 606.333 692.167 610.833 698.5 612.5 705.5 c 128
 614.167 712.5 609.833 722.5 599.5 735.5 c 128
 589.167 748.5 572.333 758.333 549 765 c 128
 525.667 771.667 500 775 472 775 c 0
 444.667 775 417.667 764.833 391 744.5 c 128
 364.333 724.167 351 700 351 672 c 0
 351 644.667 361.333 621.833 382 603.5 c 128
 402.667 585.167 446 561 512 531 c 128
 578 501 627.5 473.667 660.5 449 c 128
 693.5 424.333 710 392 710 352 c 0
 710 320.667 695 294.833 665 274.5 c 128
 635 254.167 607 240.333 581 233 c 1
 617.667 211.667 646.833 189.833 668.5 167.5 c 128
 690.167 145.167 701 114.333 701 75 c 0
 701 33 678.833 -5.33333 634.5 -40 c 128
 590.167 -74.6667 538.667 -92 480 -92 c 0
 434 -92 397.5 -87.3333 370.5 -78 c 128
 343.5 -68.6667 320 -55.1667 300 -37.5 c 128
 280 -19.8333 266.5 -1.33333 259.5 18 c 128
 252.5 37.3333 251.833 55 257.5 71 c 128
 263.167 87 272.333 98.6667 285 106 c 128
 297.667 113.333 310.167 115.333 322.5 112 c 128
 334.833 108.667 344 101.333 350 90 c 128
 356 78.6667 357.833 68.1667 355.5 58.5 c 128
 353.167 48.8333 349 40.8333 343 34.5 c 128
 337 28.1667 332.5 19.8333 329.5 9.5 c 128
 326.5 -0.833333 331.167 -11.1667 343.5 -21.5 c 128
 355.833 -31.8333 372.667 -40.3333 394 -47 c 128
 415.333 -53.6667 444 -57 480 -57 c 0
 519.333 -57 553.667 -44.1667 583 -18.5 c 128
 612.333 7.16667 627 38 627 74 c 0
 627 106.667 614 132.833 588 152.5 c 128
 562 172.167 516 198.333 450 231 c 128
 384 263.667 338.5 292 313.5 316 c 128
 288.5 340 276 370.667 276 408 c 0
 276 435.333 289 457.5 315 474.5 c 128
 341 491.5 371.667 506.333 407 519 c 1
 365.667 542.333 333.667 566 311 590 c 128
 288.333 614 277 641 277 671 c 0
 277 705 297.833 736.667 339.5 766 c 128
 381.167 795.333 425.333 810 472 810 c 0
636 351 m 0
 636 373.667 625.833 393.167 605.5 409.5 c 128
 585.167 425.833 554.167 444.333 512.5 465 c 128
 450 496 450 496 435 503 c 1
 395 483.667 370.833 468.833 362.5 458.5 c 128
 354.167 448.167 350 431.667 350 409 c 0
 350 389 356.167 370.5 368.5 353.5 c 128
 380.833 336.5 410.333 316.833 457 294.5 c 128
 527 261 527 261 548 251 c 1
 576.667 261 598.5 274.167 613.5 290.5 c 128
 628.5 306.833 636 327 636 351 c 0
EndSplineSet
Substitution: 1 0 'vert' section.vert
EndChar
StartChar: dieresis
Encoding: 168 168 105
Width: 1024
Flags: W
Fore
351 752 m 0
 351 768 356.5 781.667 367.5 793 c 128
 378.5 804.333 392 810 408 810 c 0
 424 810 437.667 804.333 449 793 c 128
 460.333 781.667 466 768 466 752 c 0
 466 736 460.333 722.5 449 711.5 c 128
 437.667 700.5 424 695 408 695 c 0
 392 695 378.5 700.5 367.5 711.5 c 128
 356.5 722.5 351 736 351 752 c 0
547 752 m 0
 547 768 552.5 781.667 563.5 793 c 128
 574.5 804.333 588 810 604 810 c 0
 620 810 633.667 804.333 645 793 c 128
 656.333 781.667 662 768 662 752 c 0
 662 736 656.333 722.5 645 711.5 c 128
 633.667 700.5 620 695 604 695 c 0
 588 695 574.5 700.5 563.5 711.5 c 128
 552.5 722.5 547 736 547 752 c 0
EndSplineSet
Substitution: 1 0 'vert' dieresis.vert
EndChar
StartChar: degree
Encoding: 176 176 113
Width: 1024
Flags: W
Fore
22 702 m 0
 22 732.667 33 759.167 55 781.5 c 128
 77 803.833 103.333 815 134 815 c 0
 164.667 815 191.167 803.833 213.5 781.5 c 128
 235.833 759.167 247 732.667 247 702 c 0
 247 671.333 235.833 645 213.5 623 c 128
 191.167 601 164.667 590 134 590 c 0
 103.333 590 77 601 55 623 c 128
 33 645 22 671.333 22 702 c 0
49 701 m 0
 49 677.667 57.3333 657.667 74 641 c 128
 90.6667 624.333 110.667 616 134 616 c 0
 156.667 616 176.5 624.333 193.5 641 c 128
 210.5 657.667 219 677.667 219 701 c 0
 219 723.667 210.5 743.5 193.5 760.5 c 128
 176.5 777.5 156.667 786 134 786 c 0
 110.667 786 90.6667 777.5 74 760.5 c 128
 57.3333 743.5 49 723.667 49 701 c 0
EndSplineSet
Substitution: 1 0 'vert' degree.vert
EndChar
StartChar: plusminus
Encoding: 177 177 114
Width: 1024
Flags: W
Fore
483 777 m 1
 533 777 l 1
 533 486 l 1
 857 486 l 1
 857 437 l 1
 533 437 l 1
 533 145 l 1
 483 145 l 1
 483 437 l 1
 159 437 l 1
 159 486 l 1
 483 486 l 1
 483 777 l 1
159 65 m 1
 857 65 l 1
 857 16 l 1
 159 16 l 1
 159 65 l 1
EndSplineSet
Substitution: 1 0 'vert' plusminus.vert
EndChar
StartChar: acute
Encoding: 180 180 117
Width: 1024
Flags: W
Fore
527 842 m 1
 522 842 l 1
 565 798 l 1
 564 771 l 1
 424 632 l 1
 418 632 l 1
 418 646 422 661 430 677 c 2
 489 796 l 1
 499 811.333 511.667 826.667 527 842 c 1
EndSplineSet
Substitution: 1 0 'vert' acute.vert
EndChar
StartChar: paragraph
Encoding: 182 182 119
Width: 1024
Flags: W
Fore
190 592 m 0
 190 642.667 208.5 686.167 245.5 722.5 c 128
 282.5 758.833 324 777 370 777 c 2
 697 777 l 1
 697 -16 l 1
 644 -16 l 1
 644 742 l 1
 437 742 l 1
 437 -16 l 1
 385 -16 l 1
 385 407 l 1
 370 407 l 2
 324 407 282.5 425 245.5 461 c 128
 208.5 497 190 540.667 190 592 c 0
EndSplineSet
Substitution: 1 0 'vert' paragraph.vert
EndChar
StartChar: multiply
Encoding: 215 215 152
Width: 1024
Flags: W
Fore
190 73 m 1
 481 364 l 1
 189 656 l 1
 222 692 l 1
 516 398 l 1
 810 692 l 1
 843 656 l 1
 551 364 l 1
 842 73 l 1
 807 38 l 1
 516 329 l 1
 225 38 l 1
 190 73 l 1
EndSplineSet
Substitution: 1 0 'vert' multiply.vert
EndChar
StartChar: divide
Encoding: 247 247 184
Width: 1024
Flags: W
Fore
159 420 m 1
 857 420 l 1
 857 371 l 1
 159 371 l 1
 159 420 l 1
450 624 m 0
 450 640 455.5 653.667 466.5 665 c 128
 477.5 676.333 491 682 507 682 c 0
 523 682 536.667 676.333 548 665 c 128
 559.333 653.667 565 640 565 624 c 0
 565 608 559.333 594.5 548 583.5 c 128
 536.667 572.5 523 567 507 567 c 0
 491 567 477.5 572.5 466.5 583.5 c 128
 455.5 594.5 450 608 450 624 c 0
450 167 m 0
 450 183 455.5 196.5 466.5 207.5 c 128
 477.5 218.5 491 224 507 224 c 0
 523 224 536.667 218.5 548 207.5 c 128
 559.333 196.5 565 183 565 167 c 0
 565 151 559.333 137.333 548 126 c 128
 536.667 114.667 523 109 507 109 c 0
 491 109 477.5 114.667 466.5 126 c 128
 455.5 137.333 450 151 450 167 c 0
EndSplineSet
Substitution: 1 0 'vert' divide.vert
EndChar
StartChar: uni2010
Encoding: 8208 8208 769
Width: 1024
Flags: W
Fore
322 388 m 1
 695 388 l 1
 695 339 l 1
 322 339 l 1
 322 388 l 1
EndSplineSet
Substitution: 1 0 'vert' uni2010.vert
EndChar
StartChar: afii00208
Encoding: 8213 8213 774
Width: 1024
Flags: W
Fore
94 388 m 1
 922 388 l 1
 922 339 l 1
 94 339 l 1
 94 388 l 1
EndSplineSet
Substitution: 1 0 'vert' afii00208.vert
EndChar
StartChar: quoteleft
Encoding: 8216 8216 776
Width: 1024
Flags: W
Fore
915 845 m 1
 924.333 847 926.667 844 922 836 c 1
 909.333 822.667 898.667 806.833 890 788.5 c 128
 881.333 770.167 876.833 754.5 876.5 741.5 c 128
 876.167 728.5 880 720.167 888 716.5 c 128
 896 712.833 905 706.833 915 698.5 c 128
 925 690.167 930 678.333 930 663 c 0
 930 646.333 924 632.167 912 620.5 c 128
 900 608.833 886 603 870 603 c 0
 853.333 603 839.167 608.833 827.5 620.5 c 128
 815.833 632.167 810 646.333 810 663 c 0
 810 688.333 814.5 712.5 823.5 735.5 c 128
 832.5 758.5 845 779 861 797 c 128
 877 815 895 831 915 845 c 1
EndSplineSet
Substitution: 1 0 'vert' quoteleft.vert
EndChar
StartChar: quoteright
Encoding: 8217 8217 777
Width: 1024
Flags: W
Fore
96 595 m 1
 86.6667 593 84.3333 596 89 604 c 1
 101.667 617.333 112.333 633.167 121 651.5 c 128
 129.667 669.833 134.167 685.5 134.5 698.5 c 128
 134.833 711.5 131 719.833 123 723.5 c 128
 115 727.167 106 733.167 96 741.5 c 128
 86 749.833 81 761.667 81 777 c 0
 81 793.667 87 807.833 99 819.5 c 128
 111 831.167 125 837 141 837 c 0
 157.667 837 171.833 831.167 183.5 819.5 c 128
 195.167 807.833 201 793.667 201 777 c 0
 201 751.667 196.5 727.5 187.5 704.5 c 128
 178.5 681.5 166 661 150 643 c 128
 134 625 116 609 96 595 c 1
EndSplineSet
Substitution: 1 0 'vert' quoteright.vert
EndChar
StartChar: quotedblleft
Encoding: 8220 8220 780
Width: 1024
Flags: W
Fore
705 845 m 1
 714.333 847 716.667 844 712 836 c 1
 699.333 822.667 688.667 806.833 680 788.5 c 128
 671.333 770.167 666.833 754.5 666.5 741.5 c 128
 666.167 728.5 670 720.167 678 716.5 c 128
 686 712.833 695 706.833 705 698.5 c 128
 715 690.167 720 678.333 720 663 c 0
 720 646.333 714 632.167 702 620.5 c 128
 690 608.833 676 603 660 603 c 0
 643.333 603 629.167 608.833 617.5 620.5 c 128
 605.833 632.167 600 646.333 600 663 c 0
 600 688.333 604.5 712.5 613.5 735.5 c 128
 622.5 758.5 635 779 651 797 c 128
 667 815 685 831 705 845 c 1
901 845 m 1
 910.333 847 912.667 844 908 836 c 1
 895.333 822.667 884.667 806.833 876 788.5 c 128
 867.333 770.167 862.833 754.5 862.5 741.5 c 128
 862.167 728.5 866 720.167 874 716.5 c 128
 882 712.833 891 706.833 901 698.5 c 128
 911 690.167 916 678.333 916 663 c 0
 916 646.333 910 632.167 898 620.5 c 128
 886 608.833 872 603 856 603 c 0
 839.333 603 825.167 608.833 813.5 620.5 c 128
 801.833 632.167 796 646.333 796 663 c 0
 796 688.333 800.5 712.5 809.5 735.5 c 128
 818.5 758.5 831 779 847 797 c 128
 863 815 881 831 901 845 c 1
EndSplineSet
Substitution: 1 0 'vert' quotedblleft.vert
EndChar
StartChar: quotedblright
Encoding: 8221 8221 781
Width: 1024
Flags: W
Fore
107 607 m 1
 97.6667 605 95.3333 608 100 616 c 1
 112.667 629.333 123.333 645.167 132 663.5 c 128
 140.667 681.833 145.167 697.5 145.5 710.5 c 128
 145.833 723.5 142 731.833 134 735.5 c 128
 126 739.167 117 745.167 107 753.5 c 128
 97 761.833 92 773.667 92 789 c 0
 92 805.667 98 819.833 110 831.5 c 128
 122 843.167 136 849 152 849 c 0
 168.667 849 182.833 843.167 194.5 831.5 c 128
 206.167 819.833 212 805.667 212 789 c 0
 212 763.667 207.5 739.5 198.5 716.5 c 128
 189.5 693.5 177 673 161 655 c 128
 145 637 127 621 107 607 c 1
303 607 m 1
 293.667 605 291.333 608 296 616 c 1
 308.667 629.333 319.333 645.167 328 663.5 c 128
 336.667 681.833 341.167 697.5 341.5 710.5 c 128
 341.833 723.5 338 731.833 330 735.5 c 128
 322 739.167 313 745.167 303 753.5 c 128
 293 761.833 288 773.667 288 789 c 0
 288 805.667 294 819.833 306 831.5 c 128
 318 843.167 332 849 348 849 c 0
 364.667 849 378.833 843.167 390.5 831.5 c 128
 402.167 819.833 408 805.667 408 789 c 0
 408 763.667 403.5 739.5 394.5 716.5 c 128
 385.5 693.5 373 673 357 655 c 128
 341 637 323 621 303 607 c 1
EndSplineSet
Substitution: 1 0 'vert' quotedblright.vert
EndChar
StartChar: dagger
Encoding: 8224 8224 784
Width: 1024
Flags: W
Fore
490 808 m 0
 504 808 518 800.667 532 786 c 128
 546 771.333 553 756 553 740 c 0
 553 728.667 547.833 713.667 537.5 695 c 128
 527.167 676.333 518.667 657 512 637 c 128
 505.333 617 501.667 589.667 501 555 c 1
 517.667 555.667 534.5 559.333 551.5 566 c 128
 568.5 572.667 586.333 580.833 605 590.5 c 128
 623.667 600.167 638.667 605 650 605 c 0
 666 605 680.667 598.333 694 585 c 128
 707.333 571.667 714 557.667 714 543 c 0
 714 528.333 707.333 514.333 694 501 c 128
 680.667 487.667 666 481 650 481 c 0
 638.667 481 623.667 485.833 605 495.5 c 128
 586.333 505.167 568.5 513.333 551.5 520 c 128
 534.5 526.667 517.667 530.333 501 531 c 1
 501.667 489 505.333 456.167 512 432.5 c 128
 518.667 408.833 535 394 561 388 c 1
 561 380 l 1
 541 342.667 527 297.667 519 245 c 128
 511 192.333 507 123.333 507 38 c 2
 507 -81 l 1
 506.333 -91 500.333 -96 489 -96 c 0
 478.333 -96 472.667 -91 472 -81 c 1
 472 38 l 2
 472 123.333 468.333 192.333 461 245 c 128
 453.667 297.667 439.333 342.667 418 380 c 1
 418 388 l 1
 444 394 460.333 408.833 467 432.5 c 128
 473.667 456.167 477.333 489 478 531 c 1
 461.333 530.333 444.5 526.667 427.5 520 c 128
 410.5 513.333 392.667 505.167 374 495.5 c 128
 355.333 485.833 340.333 481 329 481 c 0
 313 481 298.333 487.667 285 501 c 128
 271.667 514.333 265 528.333 265 543 c 0
 265 557.667 271.667 571.667 285 585 c 128
 298.333 598.333 313 605 329 605 c 0
 340.333 605 355.333 600.167 374 590.5 c 128
 392.667 580.833 410.5 572.667 427.5 566 c 128
 444.5 559.333 461.333 555.667 478 555 c 1
 477.333 589.667 473.667 617 467 637 c 128
 460.333 657 451.833 676.333 441.5 695 c 128
 431.167 713.667 426 728.667 426 740 c 0
 426 756 433 771.333 447 786 c 128
 461 800.667 475.333 808 490 808 c 0
EndSplineSet
Substitution: 1 0 'vert' dagger.vert
EndChar
StartChar: daggerdbl
Encoding: 8225 8225 785
Width: 1024
Flags: W
Fore
269 608 m 0
 269 620.667 275 632 287 642 c 128
 299 652 313 657 329 657 c 0
 340.333 657 353 654.167 367 648.5 c 128
 388 640 388 640 413.5 630 c 128
 430.5 623.333 452 619.667 478 619 c 1
 478 641.667 474.5 660.667 467.5 676 c 128
 460.5 691.333 453.5 704.333 446.5 715 c 128
 439.5 725.667 436 736.667 436 748 c 0
 436 764 441.333 778 452 790 c 128
 462.667 802 475.333 808 490 808 c 0
 504 808 516.333 802 527 790 c 128
 537.667 778 543 764 543 748 c 0
 543 736.667 539.5 725.667 532.5 715 c 128
 525.5 704.333 518.5 691.333 511.5 676 c 128
 504.5 660.667 501 641.667 501 619 c 1
 527 619.667 548.5 623.333 565.5 630 c 128
 591 640 591 640 612 648.5 c 128
 626 654.167 638.667 657 650 657 c 0
 666 657 680 652 692 642 c 128
 704 632 710 620.667 710 608 c 0
 710 594 704 582 692 572 c 128
 680 562 666 557 650 557 c 0
 638.667 557 626 559.833 612 565.5 c 128
 591 574 591 574 565.5 584 c 128
 548.5 590.667 527.333 594.333 502 595 c 1
 503.333 579 507 563.5 513 548.5 c 128
 519 533.5 529.667 524.667 545 522 c 1
 545 514 l 1
 530.333 491.333 519.5 467 512.5 441 c 128
 505.5 415 502 389.333 502 364 c 0
 502 338.667 505.5 313 512.5 287 c 128
 519.5 261 530.333 236.667 545 214 c 1
 545 206 l 1
 529.667 203.333 519 194.5 513 179.5 c 128
 507 164.5 503.333 149 502 133 c 1
 527.333 133.667 548.5 137.333 565.5 144 c 128
 591 154 591 154 612 162.5 c 128
 626 168.167 638.667 171 650 171 c 0
 666 171 680 166 692 156 c 128
 704 146 710 134 710 120 c 0
 710 107.333 704 96 692 86 c 128
 680 76 666 71 650 71 c 0
 638.667 71 626 73.8333 612 79.5 c 128
 591 88 591 88 565.5 98 c 128
 548.5 104.667 527 108.333 501 109 c 1
 501 86.3333 504.5 67.3333 511.5 52 c 128
 518.5 36.6667 525.5 23.6667 532.5 13 c 128
 539.5 2.33333 543 -8.66667 543 -20 c 0
 543 -36 537.667 -50 527 -62 c 128
 516.333 -74 504 -80 490 -80 c 0
 475.333 -80 462.667 -74 452 -62 c 128
 441.333 -50 436 -36 436 -20 c 0
 436 -8.66667 439.5 2.33333 446.5 13 c 128
 453.5 23.6667 460.5 36.6667 467.5 52 c 128
 474.5 67.3333 478 86.3333 478 109 c 1
 452 108.333 430.5 104.667 413.5 98 c 128
 388 88 388 88 367 79.5 c 128
 353 73.8333 340.333 71 329 71 c 0
 313 71 299 76 287 86 c 128
 275 96 269 107.333 269 120 c 0
 269 134 275 146 287 156 c 128
 299 166 313 171 329 171 c 0
 340.333 171 353 168.167 367 162.5 c 128
 388 154 388 154 413.5 144 c 128
 430.5 137.333 451.667 133.667 477 133 c 1
 475.667 149 472 164.5 466 179.5 c 128
 460 194.5 449.333 203.333 434 206 c 1
 434 214 l 1
 448.667 236.667 459.5 261 466.5 287 c 128
 473.5 313 477 338.667 477 364 c 0
 477 389.333 473.5 415 466.5 441 c 128
 459.5 467 448.667 491.333 434 514 c 1
 434 522 l 1
 449.333 524.667 460 533.5 466 548.5 c 128
 472 563.5 475.667 579 477 595 c 1
 451.667 594.333 430.5 590.667 413.5 584 c 128
 388 574 388 574 367 565.5 c 128
 353 559.833 340.333 557 329 557 c 0
 313 557 299 562 287 572 c 128
 275 582 269 594 269 608 c 0
EndSplineSet
Substitution: 1 0 'vert' daggerdbl.vert
EndChar
StartChar: twodotenleader
Encoding: 8229 8229 789
Width: 1024
Flags: W
Fore
192 362 m 0
 192 378 197.5 391.667 208.5 403 c 128
 219.5 414.333 233 420 249 420 c 0
 265 420 278.667 414.333 290 403 c 128
 301.333 391.667 307 378 307 362 c 0
 307 346 301.333 332.5 290 321.5 c 128
 278.667 310.5 265 305 249 305 c 0
 233 305 219.5 310.5 208.5 321.5 c 128
 197.5 332.5 192 346 192 362 c 0
710 362 m 0
 710 378 715.5 391.667 726.5 403 c 128
 737.5 414.333 751 420 767 420 c 0
 783 420 796.667 414.333 808 403 c 128
 819.333 391.667 825 378 825 362 c 0
 825 346 819.333 332.5 808 321.5 c 128
 796.667 310.5 783 305 767 305 c 0
 751 305 737.5 310.5 726.5 321.5 c 128
 715.5 332.5 710 346 710 362 c 0
EndSplineSet
Substitution: 1 0 'vert' twodotenleader.vert
EndChar
StartChar: ellipsis
Encoding: 8230 8230 790
Width: 1024
Flags: W
Fore
450 362 m 0
 450 378 455.5 391.667 466.5 403 c 128
 477.5 414.333 491 420 507 420 c 0
 523 420 536.667 414.333 548 403 c 128
 559.333 391.667 565 378 565 362 c 0
 565 346 559.333 332.5 548 321.5 c 128
 536.667 310.5 523 305 507 305 c 0
 491 305 477.5 310.5 466.5 321.5 c 128
 455.5 332.5 450 346 450 362 c 0
776 362 m 0
 776 378 781.5 391.667 792.5 403 c 128
 803.5 414.333 817 420 833 420 c 0
 849 420 862.667 414.333 874 403 c 128
 885.333 391.667 891 378 891 362 c 0
 891 346 885.333 332.5 874 321.5 c 128
 862.667 310.5 849 305 833 305 c 0
 817 305 803.5 310.5 792.5 321.5 c 128
 781.5 332.5 776 346 776 362 c 0
124 362 m 0
 124 378 129.5 391.667 140.5 403 c 128
 151.5 414.333 165 420 181 420 c 0
 197 420 210.667 414.333 222 403 c 128
 233.333 391.667 239 378 239 362 c 0
 239 346 233.333 332.5 222 321.5 c 128
 210.667 310.5 197 305 181 305 c 0
 165 305 151.5 310.5 140.5 321.5 c 128
 129.5 332.5 124 346 124 362 c 0
EndSplineSet
Substitution: 1 0 'vert' ellipsis.vert
EndChar
StartChar: perthousand
Encoding: 8240 8240 799
Width: 1024
Flags: W
Fore
93 -81 m 1
 563 842 l 1
 571.667 851.333 581.167 853.667 591.5 849 c 128
 601.833 844.333 605.667 835.333 603 822 c 1
 133 -101 l 1
 123.667 -109 114 -110.667 104 -106 c 128
 94 -101.333 90.3333 -93 93 -81 c 1
734 154 m 0
 734 203.333 747.167 247.333 773.5 286 c 128
 799.833 324.667 829.667 344 863 344 c 0
 895.667 344 925.333 324.667 952 286 c 128
 978.667 247.333 992 203.333 992 154 c 0
 992 104 978.667 59.8333 952 21.5 c 128
 925.333 -16.8333 895.667 -36 863 -36 c 0
 829.667 -36 799.833 -16.8333 773.5 21.5 c 128
 747.167 59.8333 734 104 734 154 c 0
799 154 m 0
 799 109.333 805.167 71 817.5 39 c 128
 829.833 7 845 -9 863 -9 c 0
 880.333 -9 895.333 7 908 39 c 128
 920.667 71 927 109.333 927 154 c 0
 927 198.667 920.667 237.167 908 269.5 c 128
 895.333 301.833 880.333 318 863 318 c 0
 845 318 829.833 301.833 817.5 269.5 c 128
 805.167 237.167 799 198.667 799 154 c 0
411 154 m 0
 411 203.333 424.167 247.333 450.5 286 c 128
 476.833 324.667 506.667 344 540 344 c 0
 572.667 344 602.333 324.667 629 286 c 128
 655.667 247.333 669 203.333 669 154 c 0
 669 104 655.667 59.8333 629 21.5 c 128
 602.333 -16.8333 572.667 -36 540 -36 c 0
 506.667 -36 476.833 -16.8333 450.5 21.5 c 128
 424.167 59.8333 411 104 411 154 c 0
476 154 m 0
 476 109.333 482.167 71 494.5 39 c 128
 506.833 7 522 -9 540 -9 c 0
 557.333 -9 572.333 7 585 39 c 128
 597.667 71 604 109.333 604 154 c 0
 604 198.667 597.667 237.167 585 269.5 c 128
 572.333 301.833 557.333 318 540 318 c 0
 522 318 506.833 301.833 494.5 269.5 c 128
 482.167 237.167 476 198.667 476 154 c 0
27 578 m 0
 27 627.333 40.5 671.333 67.5 710 c 128
 94.5 748.667 125.333 768 160 768 c 0
 194 768 224.667 748.667 252 710 c 128
 279.333 671.333 293 627.333 293 578 c 0
 293 528 279.333 483.833 252 445.5 c 128
 224.667 407.167 194 388 160 388 c 0
 125.333 388 94.5 407.167 67.5 445.5 c 128
 40.5 483.833 27 528 27 578 c 0
92 578 m 0
 92 533.333 98.5 495 111.5 463 c 128
 124.5 431 140.667 415 160 415 c 0
 178.667 415 194.667 431 208 463 c 128
 221.333 495 228 533.333 228 578 c 0
 228 622.667 221.333 661.167 208 693.5 c 128
 194.667 725.833 178.667 742 160 742 c 0
 140.667 742 124.5 725.833 111.5 693.5 c 128
 98.5 661.167 92 622.667 92 578 c 0
EndSplineSet
Substitution: 1 0 'vert' perthousand.vert
EndChar
StartChar: minute
Encoding: 8242 8242 801
Width: 1024
Flags: W
Fore
249 840 m 0
 259.667 838 267.167 831.5 271.5 820.5 c 128
 275.833 809.5 274 793.333 266 772 c 128
 258 750.667 241.333 716.667 216 670 c 128
 190.667 623.333 155.333 570.333 110 511 c 1
 95.3333 501 89.6667 503.333 93 518 c 1
 127 582 152.667 636.667 170 682 c 128
 187.333 727.333 196.5 755 197.5 765 c 128
 198.5 775 198.833 783.833 198.5 791.5 c 128
 198.167 799.167 199.833 807.167 203.5 815.5 c 128
 207.167 823.833 212.667 830.333 220 835 c 128
 227.333 839.667 237 841.333 249 840 c 0
EndSplineSet
Substitution: 1 0 'vert' minute.vert
EndChar
StartChar: second
Encoding: 8243 8243 802
Width: 1024
Flags: W
Fore
215 840 m 0
 225.667 838 233.167 831.5 237.5 820.5 c 128
 241.833 809.5 240 793.333 232 772 c 128
 224 750.667 207.333 716.667 182 670 c 128
 156.667 623.333 121.333 570.333 76 511 c 1
 61.3333 501 55.6667 503.333 59 518 c 1
 93 582 118.667 636.667 136 682 c 128
 153.333 727.333 162.5 755 163.5 765 c 128
 164.5 775 164.833 783.833 164.5 791.5 c 128
 164.167 799.167 165.833 807.167 169.5 815.5 c 128
 173.167 823.833 178.667 830.333 186 835 c 128
 193.333 839.667 203 841.333 215 840 c 0
379 840 m 0
 389.667 838 397.167 831.5 401.5 820.5 c 128
 405.833 809.5 404 793.333 396 772 c 128
 388 750.667 371.333 716.667 346 670 c 128
 320.667 623.333 285.333 570.333 240 511 c 1
 225.333 501 219.667 503.333 223 518 c 1
 257 582 282.667 636.667 300 682 c 128
 317.333 727.333 326.5 755 327.5 765 c 128
 328.5 775 328.833 783.833 328.5 791.5 c 128
 328.167 799.167 329.833 807.167 333.5 815.5 c 128
 337.167 823.833 342.667 830.333 350 835 c 128
 357.333 839.667 367 841.333 379 840 c 0
EndSplineSet
Substitution: 1 0 'vert' second.vert
EndChar
StartChar: uni203B
Encoding: 8251 8251 810
Width: 1024
Flags: W
Fore
420 702 m 0
 420 722 427 739.167 441 753.5 c 128
 455 767.833 472 775 492 775 c 0
 512 775 529.167 767.833 543.5 753.5 c 128
 557.833 739.167 565 722 565 702 c 0
 565 682 557.833 665 543.5 651 c 128
 529.167 637 512 630 492 630 c 0
 472 630 455 637 441 651 c 128
 427 665 420 682 420 702 c 0
420 56 m 0
 420 76 427 93.1667 441 107.5 c 128
 455 121.833 472 129 492 129 c 0
 512 129 529.167 121.833 543.5 107.5 c 128
 557.833 93.1667 565 76 565 56 c 0
 565 36 557.833 19 543.5 5 c 128
 529.167 -9 512 -16 492 -16 c 0
 472 -16 455 -9 441 5 c 128
 427 19 420 36 420 56 c 0
743 381 m 0
 743 401 750 418.167 764 432.5 c 128
 778 446.833 795 454 815 454 c 0
 835 454 852.167 446.833 866.5 432.5 c 128
 880.833 418.167 888 401 888 381 c 0
 888 361 880.833 344 866.5 330 c 128
 852.167 316 835 309 815 309 c 0
 795 309 778 316 764 330 c 128
 750 344 743 361 743 381 c 0
96 381 m 0
 96 401 103 418.167 117 432.5 c 128
 131 446.833 148 454 168 454 c 0
 188 454 205.167 446.833 219.5 432.5 c 128
 233.833 418.167 241 401 241 381 c 0
 241 361 233.833 344 219.5 330 c 128
 205.167 316 188 309 168 309 c 0
 148 309 131 316 117 330 c 128
 103 344 96 361 96 381 c 0
84 9 m 1
 455 380 l 1
 121 714 l 1
 154 750 l 1
 490 414 l 1
 826 750 l 1
 859 714 l 1
 525 380 l 1
 896 9 l 1
 861 -26 l 1
 490 345 l 1
 119 -26 l 1
 84 9 l 1
EndSplineSet
Substitution: 1 0 'vert' uni203B.vert
EndChar
StartChar: uni2103
Encoding: 8451 8451 864
Width: 1024
Flags: W
Fore
243 375 m 0
 243 474.333 275 560.833 339 634.5 c 128
 403 708.167 478.333 745 565 745 c 0
 604.333 745 637.833 739.5 665.5 728.5 c 128
 693.167 717.5 715 712.167 731 712.5 c 128
 747 712.833 768.333 724 795 746 c 1
 803 746 l 1
 815 666 832.667 579 856 485 c 1
 832 477 l 1
 814 520.333 794.333 558.667 773 592 c 128
 751.667 625.333 722.5 653 685.5 675 c 128
 648.5 697 608.333 708 565 708 c 0
 499.667 708 441.667 674.167 391 606.5 c 128
 340.333 538.833 315 461.667 315 375 c 0
 315 283.667 344.333 208.5 403 149.5 c 128
 461.667 90.5 521 61 581 61 c 0
 635.667 61 685.333 76.8333 730 108.5 c 128
 774.667 140.167 809 186.333 833 247 c 1
 839.667 260.333 848.167 265.167 858.5 261.5 c 128
 868.833 257.833 873 249.333 871 236 c 1
 845 170.667 807.333 117.333 758 76 c 128
 708.667 34.6667 645.667 14 569 14 c 0
 483 14 407.167 47.8333 341.5 115.5 c 128
 275.833 183.167 243 269.667 243 375 c 0
55 687 m 0
 55 713.667 64.3333 736.667 83 756 c 128
 101.667 775.333 124.333 785 151 785 c 0
 177.667 785 200.667 775.333 220 756 c 128
 239.333 736.667 249 713.667 249 687 c 0
 249 660.333 239.333 637.667 220 619 c 128
 200.667 600.333 177.667 591 151 591 c 0
 124.333 591 101.667 600.333 83 619 c 128
 64.3333 637.667 55 660.333 55 687 c 0
81 687 m 0
 81 667.667 87.8333 651.167 101.5 637.5 c 128
 115.167 623.833 131.667 617 151 617 c 0
 169.667 617 186 623.833 200 637.5 c 128
 214 651.167 221 667.667 221 687 c 0
 221 705.667 214 722 200 736 c 128
 186 750 169.667 757 151 757 c 0
 131.667 757 115.167 750 101.5 736 c 128
 87.8333 722 81 705.667 81 687 c 0
EndSplineSet
Substitution: 1 0 'vert' uni2103.vert
EndChar
StartChar: afii61352
Encoding: 8470 8470 883
Width: 1024
Flags: W
Fore
37 740 m 1
 145 740 l 1
 429 189 l 1
 429 664 l 2
 429 690 405.667 706.667 359 714 c 1
 359 740 l 1
 418.333 738 477 738 535 740 c 1
 535 714 l 1
 489 706.667 466 690 466 664 c 2
 466 14 l 1
 439 14 l 1
 144 591 l 1
 144 96 l 2
 144 70 167 53.3333 213 46 c 1
 213 20 l 1
 155 22 96.3333 22 37 20 c 1
 37 46 l 1
 83.6667 53.3333 107 70 107 96 c 2
 107 664 l 2
 107 690 83.6667 706.667 37 714 c 1
 37 740 l 1
529 230 m 0
 529 286.667 545.167 335.333 577.5 376 c 128
 609.833 416.667 652.333 437 705 437 c 0
 756.333 437 799 416.667 833 376 c 128
 867 335.333 884 286.667 884 230 c 0
 884 166.667 867 114.667 833 74 c 128
 799 33.3333 756 13 704 13 c 0
 652 13 609.833 33.3333 577.5 74 c 128
 545.167 114.667 529 166.667 529 230 c 0
599 230 m 0
 599 175.333 608.833 131.667 628.5 99 c 128
 648.167 66.3333 673.333 50 704 50 c 0
 734.667 50 760.667 66.3333 782 99 c 128
 803.333 131.667 814 175.333 814 230 c 0
 814 282 803.333 323.333 782 354 c 128
 760.667 384.667 735 400 705 400 c 0
 673.667 400 648.167 384.667 628.5 354 c 128
 608.833 323.333 599 282 599 230 c 0
893 54 m 0
 893 68 898 80.1667 908 90.5 c 128
 918 100.833 930 106 944 106 c 0
 958.667 106 971.167 100.833 981.5 90.5 c 128
 991.833 80.1667 997 68 997 54 c 0
 997 39.3333 991.833 27 981.5 17 c 128
 971.167 7 958.667 2 944 2 c 0
 930 2 918 7 908 17 c 128
 898 27 893 39.3333 893 54 c 0
EndSplineSet
Substitution: 1 0 'vert' afii61352.vert
EndChar
StartChar: uni2121
Encoding: 8481 8481 894
Width: 1024
Flags: W
Fore
383 46 m 1
 383 20 l 1
 301 22 219 22 137 20 c 1
 137 46 l 1
 195.667 53.3333 225 70 225 96 c 2
 225 675 l 2
 225 693.667 215.667 703 197 703 c 2
 164 703 l 2
 138.667 703 118.167 693.5 102.5 674.5 c 128
 86.8333 655.5 68 617 46 559 c 1
 25 563 l 1
 40.3333 633 50.6667 692 56 740 c 1
 194.667 738 334 738 474 740 c 1
 479.333 692 489.667 633 505 563 c 1
 484 559 l 1
 462 617 443.167 655.5 427.5 674.5 c 128
 411.833 693.5 391.333 703 366 703 c 2
 323 703 l 2
 304.333 703 295 693.667 295 675 c 2
 295 96 l 2
 295 70 324.333 53.3333 383 46 c 1
389 488 m 1
 511 486 603.333 486 666 488 c 1
 667.333 440 671.333 399.667 678 367 c 1
 657 363 l 1
 646.333 394.333 634.5 416.833 621.5 430.5 c 128
 608.5 444.167 592 451 572 451 c 2
 545 451 l 2
 518.333 451 505 443.333 505 428 c 2
 505 282 l 1
 556 282 l 2
 568 282 578.333 301.667 587 341 c 1
 614 341 l 1
 612 287 612 233 614 179 c 1
 587 179 l 1
 578.333 223 568 245 556 245 c 2
 505 245 l 1
 505 80 l 2
 505 64.6667 518.333 57 545 57 c 2
 580 57 l 2
 600 57 616.833 61.8333 630.5 71.5 c 128
 644.167 81.1667 658.333 108.333 673 153 c 1
 694 149 l 1
 682 100.333 674.667 57.3333 672 20 c 1
 573.333 22 479 22 389 20 c 1
 389 46 l 1
 423.667 53.3333 441 64.6667 441 80 c 2
 441 428 l 2
 441 443.333 423.667 454.667 389 462 c 1
 389 488 l 1
688 20 m 1
 688 46 l 1
 722 53.3333 739 64.6667 739 80 c 2
 739 428 l 2
 739 443.333 722 454.667 688 462 c 1
 688 488 l 1
 748.667 486 805.333 486 858 488 c 1
 858 462 l 1
 821.333 454.667 803 443.333 803 428 c 2
 803 80 l 2
 803 64.6667 816.333 57 843 57 c 2
 868 57 l 2
 882.667 57 896.833 62.5 910.5 73.5 c 128
 924.167 84.5 937.667 113.667 951 161 c 1
 971 157 l 1
 962.333 105.667 957.667 60 957 20 c 1
 869.667 22 780 22 688 20 c 1
EndSplineSet
Substitution: 1 0 'vert' uni2121.vert
EndChar
StartChar: uni212B
Encoding: 8491 8491 904
Width: 1024
Flags: W
Fore
491 552 m 1
 370 302 l 1
 614 302 l 1
 491 552 l 1
407 750 m 0
 407 776.667 416.333 799.667 435 819 c 128
 453.667 838.333 476.333 848 503 848 c 0
 529.667 848 552.667 838.333 572 819 c 128
 591.333 799.667 601 776.667 601 750 c 0
 601 723.333 591.333 700.667 572 682 c 128
 552.667 663.333 529.667 654 503 654 c 0
 476.333 654 453.667 663.333 435 682 c 128
 416.333 700.667 407 723.333 407 750 c 0
433 750 m 0
 433 730.667 439.833 714.167 453.5 700.5 c 128
 467.167 686.833 483.667 680 503 680 c 0
 521.667 680 538 686.833 552 700.5 c 128
 566 714.167 573 730.667 573 750 c 0
 573 768.667 566 785 552 799 c 128
 538 813 521.667 820 503 820 c 0
 483.667 820 467.167 813 453.5 799 c 128
 439.833 785 433 768.667 433 750 c 0
270 96 m 1
 260 70 285 53.3333 345 46 c 1
 345 20 l 1
 274.333 22 205 22 137 20 c 1
 137 46 l 1
 189 53.3333 220.333 70 231 96 c 1
 459 567 l 1
 468.333 583 472 598.333 470 613 c 1
 525 635 l 1
 796 96 l 1
 804 70 836.333 53.3333 893 46 c 1
 893 20 l 1
 815 22 736 22 656 20 c 1
 656 46 l 1
 704 53.3333 724 70 716 96 c 1
 633 265 l 1
 352 265 l 1
 270 96 l 1
EndSplineSet
Substitution: 1 0 'vert' uni212B.vert
EndChar
StartChar: uni2160
Encoding: 8544 8544 931
Width: 1024
Flags: W
Fore
663 38 m 1
 663 12 l 1
 559.667 14 456.333 14 353 12 c 1
 353 38 l 1
 427 45.3333 464 62 464 88 c 2
 464 680 l 2
 464 706 427 722.667 353 730 c 1
 353 756 l 1
 456.333 754 559.667 754 663 756 c 1
 663 730 l 1
 589 722.667 552 706 552 680 c 2
 552 88 l 2
 552 62 589 45.3333 663 38 c 1
EndSplineSet
Substitution: 1 0 'vert' uni2160.vert
EndChar
StartChar: uni2161
Encoding: 8545 8545 932
Width: 1024
Flags: W
Fore
817 38 m 1
 817 12 l 1
 615 14 411 14 205 12 c 1
 205 38 l 1
 279 45.3333 316 62 316 88 c 2
 316 680 l 2
 316 706 279 722.667 205 730 c 1
 205 756 l 1
 409.667 754 613.667 754 817 756 c 1
 817 730 l 1
 743 722.667 706 706 706 680 c 2
 706 88 l 2
 706 62 743 45.3333 817 38 c 1
404 680 m 2
 404 88 l 2
 404 60.6667 440 44.6667 512 40 c 1
 582.667 44.6667 618 60.6667 618 88 c 2
 618 680 l 2
 618 707.333 582.667 723.333 512 728 c 1
 440 723.333 404 707.333 404 680 c 2
EndSplineSet
Substitution: 1 0 'vert' uni2161.vert
EndChar
StartChar: uni2162
Encoding: 8546 8546 933
Width: 1024
Flags: W
Fore
929 38 m 1
 929 12 l 1
 655 13.3333 374.333 13.3333 87 12 c 1
 87 38 l 1
 161 45.3333 198 62 198 88 c 2
 198 680 l 2
 198 706 161 722.667 87 730 c 1
 87 756 l 1
 372.333 754.667 653 754.667 929 756 c 1
 929 730 l 1
 855 722.667 818 706 818 680 c 2
 818 88 l 2
 818 62 855 45.3333 929 38 c 1
286 680 m 2
 286 88 l 2
 286 60.6667 316 44.6667 376 40 c 1
 434.667 44.6667 464 60.6667 464 88 c 2
 464 680 l 2
 464 707.333 434.667 723.333 376 728 c 1
 316 723.333 286 707.333 286 680 c 2
642 40 m 1
 700.667 44.6667 730 60.6667 730 88 c 2
 730 680 l 2
 730 707.333 700.667 723.333 642 728 c 1
 582 723.333 552 707.333 552 680 c 2
 552 88 l 2
 552 60.6667 582 44.6667 642 40 c 1
EndSplineSet
Substitution: 1 0 'vert' uni2162.vert
EndChar
StartChar: uni2163
Encoding: 8547 8547 934
Width: 1024
Flags: W
Fore
711 188 m 1
 843 680 l 1
 850.333 706 826 722.667 770 730 c 1
 770 756 l 1
 840.667 754 906.667 754 968 756 c 1
 968 730 l 1
 921.333 722.667 894 706 886 680 c 1
 726 87 l 1
 705 7 l 1
 676 7 l 1
 467 680 l 1
 460.333 710 431.333 726 380 728 c 1
 318.667 726 288 710 288 680 c 2
 288 88 l 2
 288 62 325 45.3333 399 38 c 1
 399 12 l 1
 295.667 14 192.333 14 89 12 c 1
 89 38 l 1
 163 45.3333 200 62 200 88 c 2
 200 680 l 2
 200 706 163 722.667 89 730 c 1
 89 756 l 1
 283 754 458.333 754 615 756 c 1
 615 730 l 1
 569.667 722.667 550.667 706 558 680 c 1
 711 188 l 1
EndSplineSet
Substitution: 1 0 'vert' uni2163.vert
EndChar
StartChar: uni2164
Encoding: 8548 8548 935
Width: 1024
Flags: W
Fore
547 146 m 1
 755 680 l 1
 762.333 706 735.333 722.667 674 730 c 1
 674 756 l 1
 751.333 754 824.667 754 894 756 c 1
 894 730 l 1
 843.333 722.667 812.667 706 802 680 c 1
 570 88 l 1
 541 7 l 1
 508 7 l 1
 217 680 l 1
 206.333 706 174 722.667 120 730 c 1
 120 756 l 1
 208.667 754 291.667 754 369 756 c 1
 369 730 l 1
 322.333 722.667 303.667 706 313 680 c 1
 547 146 l 1
EndSplineSet
Substitution: 1 0 'vert' uni2164.vert
EndChar
StartChar: uni2165
Encoding: 8549 8549 936
Width: 1024
Flags: W
Fore
386 186 m 1
 519 680 l 1
 526.333 706 502 722.667 446 730 c 1
 446 756 l 1
 583.333 754 745.333 754 932 756 c 1
 932 728 l 1
 870.667 726 840 710 840 680 c 2
 840 88 l 2
 840 62 877 45.3333 951 38 c 1
 951 12 l 1
 847.667 14 744.333 14 641 12 c 1
 641 38 l 1
 715 45.3333 752 62 752 88 c 2
 752 680 l 2
 752 706 716 722.667 644 730 c 1
 597.333 722.667 570 706 562 680 c 1
 402 87 l 1
 381 7 l 1
 352 7 l 1
 143 680 l 1
 136.333 710 110 726 64 728 c 1
 64 756 l 1
 140 754 216 754 292 756 c 1
 292 730 l 1
 246.667 722.667 227.667 706 235 680 c 1
 386 186 l 1
EndSplineSet
Substitution: 1 0 'vert' uni2165.vert
EndChar
StartChar: uni2169
Encoding: 8553 8553 940
Width: 1024
Flags: W
Fore
700 680 m 1
 720.667 706 698.333 722.667 633 730 c 1
 633 756 l 1
 715 754 794.667 754 872 756 c 1
 872 730 l 1
 814 722.667 775.333 706 756 680 c 1
 558 423 l 1
 844 88 l 1
 864 62 899 45.3333 949 38 c 1
 949 12 l 1
 856.333 14 763.667 14 671 12 c 1
 671 38 l 1
 723 45.3333 739 62 719 88 c 1
 506 356 l 1
 300 88 l 1
 280.667 62 302.667 45.3333 366 38 c 1
 366 12 l 1
 281.333 14 201.667 14 127 12 c 1
 127 38 l 1
 184.333 45.3333 223.333 62 244 88 c 1
 477 391 l 1
 247 680 l 1
 225.667 706 186.333 722.667 129 730 c 1
 129 756 l 1
 213 754 303 754 399 756 c 1
 399 730 l 1
 349.667 722.667 335 706 355 680 c 1
 533 463 l 1
 700 680 l 1
EndSplineSet
Substitution: 1 0 'vert' uni2169.vert
EndChar
StartChar: uni2170
Encoding: 8560 8560 947
Width: 1024
Flags: W
Fore
442 707 m 0
 442 721.667 447.333 734.333 458 745 c 128
 468.667 755.667 481.667 761 497 761 c 0
 511.667 761 524.667 755.667 536 745 c 128
 547.333 734.333 553 721.667 553 707 c 0
 553 692.333 547.333 680 536 670 c 128
 524.667 660 511.667 655 497 655 c 0
 481.667 655 468.667 660 458 670 c 128
 447.333 680 442 692.333 442 707 c 0
550 88 m 2
 550 62 586.333 45.3333 659 38 c 1
 659 12 l 1
 556.333 14 453.667 14 351 12 c 1
 351 38 l 1
 425 45.3333 462 62 462 88 c 2
 462 460 l 2
 462 478.667 437 489.333 387 492 c 1
 387 513 l 1
 478.333 519 528.333 530.667 537 548 c 1
 550 548 l 1
 550 88 l 2
EndSplineSet
EndChar
StartChar: uni2171
Encoding: 8561 8561 948
Width: 1024
Flags: W
Fore
350 707 m 0
 350 721.667 355.333 734.333 366 745 c 128
 376.667 755.667 389.667 761 405 761 c 0
 419.667 761 432.667 755.667 444 745 c 128
 455.333 734.333 461 721.667 461 707 c 0
 461 692.333 455.333 680 444 670 c 128
 432.667 660 419.667 655 405 655 c 0
 389.667 655 376.667 660 366 670 c 128
 355.333 680 350 692.333 350 707 c 0
458 88 m 2
 458 56.6667 481.333 40 528 38 c 1
 580 40 606 56.6667 606 88 c 2
 606 460 l 2
 606 478.667 581 489.333 531 492 c 1
 531 513 l 1
 622.333 519 672.333 530.667 681 548 c 1
 694 548 l 1
 694 88 l 2
 694 62 730.333 45.3333 803 38 c 1
 803 12 l 1
 620.333 14 439 14 259 12 c 1
 259 38 l 1
 333 45.3333 370 62 370 88 c 2
 370 460 l 2
 370 478.667 345 489.333 295 492 c 1
 295 513 l 1
 386.333 519 436.333 530.667 445 548 c 1
 458 548 l 1
 458 88 l 2
586 707 m 0
 586 721.667 591.333 734.333 602 745 c 128
 612.667 755.667 625.667 761 641 761 c 0
 655.667 761 668.667 755.667 680 745 c 128
 691.333 734.333 697 721.667 697 707 c 0
 697 692.333 691.333 680 680 670 c 128
 668.667 660 655.667 655 641 655 c 0
 625.667 655 612.667 660 602 670 c 128
 591.333 680 586 692.333 586 707 c 0
EndSplineSet
EndChar
StartChar: uni2172
Encoding: 8562 8562 949
Width: 1024
Flags: W
Fore
218 707 m 0
 218 721.667 223.333 734.333 234 745 c 128
 244.667 755.667 257.667 761 273 761 c 0
 287.667 761 300.667 755.667 312 745 c 128
 323.333 734.333 329 721.667 329 707 c 0
 329 692.333 323.333 680 312 670 c 128
 300.667 660 287.667 655 273 655 c 0
 257.667 655 244.667 660 234 670 c 128
 223.333 680 218 692.333 218 707 c 0
450 707 m 0
 450 721.667 455.333 734.333 466 745 c 128
 476.667 755.667 489.667 761 505 761 c 0
 519.667 761 532.667 755.667 544 745 c 128
 555.333 734.333 561 721.667 561 707 c 0
 561 692.333 555.333 680 544 670 c 128
 532.667 660 519.667 655 505 655 c 0
 489.667 655 476.667 660 466 670 c 128
 455.333 680 450 692.333 450 707 c 0
678 707 m 0
 678 721.667 683.333 734.333 694 745 c 128
 704.667 755.667 717.667 761 733 761 c 0
 747.667 761 760.667 755.667 772 745 c 128
 783.333 734.333 789 721.667 789 707 c 0
 789 692.333 783.333 680 772 670 c 128
 760.667 660 747.667 655 733 655 c 0
 717.667 655 704.667 660 694 670 c 128
 683.333 680 678 692.333 678 707 c 0
322 88 m 2
 322 56.6667 344 40 388 38 c 1
 437.333 40 462 56.6667 462 88 c 2
 462 460 l 2
 462 478.667 437 489.333 387 492 c 1
 387 513 l 1
 478.333 519 528.333 530.667 537 548 c 1
 550 548 l 1
 550 88 l 2
 550 56.6667 572 40 616 38 c 1
 665.333 40 690 56.6667 690 88 c 2
 690 460 l 2
 690 478.667 665 489.333 615 492 c 1
 615 513 l 1
 706.333 519 756.333 530.667 765 548 c 1
 778 548 l 1
 778 88 l 2
 778 62 814.333 45.3333 887 38 c 1
 887 12 l 1
 633 13.3333 378.333 13.3333 123 12 c 1
 123 38 l 1
 197 45.3333 234 62 234 88 c 2
 234 460 l 2
 234 478.667 209 489.333 159 492 c 1
 159 513 l 1
 250.333 519 300.333 530.667 309 548 c 1
 322 548 l 1
 322 88 l 2
EndSplineSet
EndChar
StartChar: arrowleft
Encoding: 8592 8592 966
Width: 1024
Flags: W
Fore
263 206 m 1
 199 266 130 326.333 56 387 c 0
 50.6667 391.667 50.6667 396.333 56 401 c 0
 130 461.667 199 522 263 582 c 1
 272.333 585.333 276 582.667 274 574 c 1
 237.333 522.667 205 471 177 419 c 1
 955 419 l 1
 955 370 l 1
 176 370 l 1
 204.667 318 237.333 266 274 214 c 1
 276 205.333 272.333 202.667 263 206 c 1
EndSplineSet
Substitution: 1 0 'vert' arrowleft.vert
EndChar
StartChar: arrowup
Encoding: 8593 8593 967
Width: 1024
Flags: W
Fore
697 613 m 1
 700.333 603.667 697.667 600 689 602 c 1
 637 638.667 585 671.333 533 700 c 1
 533 -80 l 1
 483 -80 l 1
 483 699 l 1
 431 671 379.333 638.667 328 602 c 1
 319.333 600 316.667 603.667 320 613 c 1
 380 677 440.333 745.667 501 819 c 0
 505.667 824.333 510.667 824.333 516 819 c 1
 576.667 745.667 637 677 697 613 c 1
EndSplineSet
Substitution: 1 0 'vert' arrowup.vert
EndChar
StartChar: arrowright
Encoding: 8594 8594 968
Width: 1024
Flags: W
Fore
751 206 m 1
 741.667 202.667 738 205.333 740 214 c 1
 776.667 266 809.333 318 838 370 c 1
 59 370 l 1
 59 419 l 1
 837 419 l 1
 809 471 776.667 522.667 740 574 c 1
 738 582.667 741.667 585.333 751 582 c 1
 815 522 884 461.667 958 401 c 0
 963.333 396.333 963.333 391.667 958 387 c 0
 884 326.333 815 266 751 206 c 1
EndSplineSet
Substitution: 1 0 'vert' arrowright.vert
EndChar
StartChar: arrowdown
Encoding: 8595 8595 969
Width: 1024
Flags: W
Fore
697 117 m 1
 637 53 576.667 -15.6667 516 -89 c 1
 510.667 -94.3333 505.667 -94.3333 501 -89 c 0
 440.333 -15.6667 380 53 320 117 c 1
 316.667 126.333 319.333 130 328 128 c 1
 379.333 91.3333 431 59 483 31 c 1
 483 810 l 1
 533 810 l 1
 533 30 l 1
 585 58.6667 637 91.3333 689 128 c 1
 697.667 130 700.333 126.333 697 117 c 1
EndSplineSet
Substitution: 1 0 'vert' arrowdown.vert
EndChar
StartChar: arrowdblright
Encoding: 8658 8658 1032
Width: 1024
Flags: W
Fore
34 436 m 1
 34 485 l 1
 832 485 l 1
 692 626 l 1
 717 651 l 1
 991 378 l 1
 999.667 368.667 999.667 359.333 991 350 c 1
 718 78 l 1
 692 102 l 1
 831 242 l 1
 34 242 l 1
 34 291 l 1
 880 291 l 1
 946 357 l 1
 949.333 361.667 949.333 366.333 946 371 c 1
 881 436 l 1
 34 436 l 1
EndSplineSet
Substitution: 1 0 'vert' arrowdblright.vert
EndChar
StartChar: arrowdblboth
Encoding: 8660 8660 1034
Width: 1024
Flags: W
Fore
692 626 m 1
 717 651 l 1
 991 378 l 1
 999.667 368.667 999.667 359.333 991 350 c 1
 718 78 l 1
 692 102 l 1
 831 242 l 1
 197 242 l 1
 336 102 l 1
 310 78 l 1
 37 350 l 1
 28.3333 359.333 28.3333 368.667 37 378 c 1
 311 651 l 1
 336 626 l 1
 196 485 l 1
 832 485 l 1
 692 626 l 1
946 357 m 1
 949.333 361.667 949.333 366.333 946 371 c 1
 881 436 l 1
 147 436 l 1
 82 371 l 1
 78.6667 366.333 78.6667 361.667 82 357 c 1
 148 291 l 1
 880 291 l 1
 946 357 l 1
EndSplineSet
Substitution: 1 0 'vert' arrowdblboth.vert
EndChar
StartChar: universal
Encoding: 8704 8704 1057
Width: 1024
Flags: W
Fore
59 769 m 1
 56.3333 782.333 60 791.333 70 796 c 128
 80 800.667 89 798.667 97 790 c 1
 217 551 l 1
 796 551 l 1
 916 790 l 1
 924 798.667 933 800.667 943 796 c 128
 953 791.333 956.667 782.333 954 769 c 1
 537 -64 l 1
 527 -82.6667 516.667 -92 506 -92 c 128
 495.333 -92 485.333 -82.6667 476 -64 c 2
 59 769 l 1
496 -6 m 1
 503.333 -14 510.333 -14 517 -6 c 1
 772 502 l 1
 241 502 l 1
 496 -6 l 1
EndSplineSet
Substitution: 1 0 'vert' universal.vert
EndChar
StartChar: partialdiff
Encoding: 8706 8706 1059
Width: 1024
Flags: W
Fore
534 808 m 0
 568 808 600 796.167 630 772.5 c 128
 660 748.833 685.5 712.5 706.5 663.5 c 128
 727.5 614.5 738 535 738 425 c 0
 738 317 718.833 220.667 680.5 136 c 128
 642.167 51.3333 601 -5.83333 557 -35.5 c 128
 513 -65.1667 469 -80 425 -80 c 0
 389.667 -80 358.167 -67.8333 330.5 -43.5 c 128
 302.833 -19.1667 283.667 7.5 273 36.5 c 128
 262.333 65.5 257 105 257 155 c 0
 257 202.333 272.167 252.833 302.5 306.5 c 128
 332.833 360.167 366.667 397.667 404 419 c 128
 441.333 440.333 474.333 451 503 451 c 0
 533 451 562.667 442.167 592 424.5 c 128
 621.333 406.833 646 376.667 666 334 c 1
 668.667 362.667 670 392.667 670 424 c 0
 670 506.667 663.333 576.833 650 634.5 c 128
 636.667 692.167 620 728.833 600 744.5 c 128
 580 760.167 560 768 540 768 c 0
 502.667 768 469.667 758.333 441 739 c 128
 412.333 719.667 374.667 674.333 328 603 c 1
 318 600.333 313.333 604.333 314 615 c 1
 356.667 694.333 396.333 746.333 433 771 c 128
 469.667 795.667 503.333 808 534 808 c 0
498 410 m 0
 472.667 410 445.667 399.667 417 379 c 128
 388.333 358.333 364.833 326.667 346.5 284 c 128
 328.167 241.333 319 203.667 319 171 c 0
 319 127 321.667 91.6667 327 65 c 128
 332.333 38.3333 345.167 13.6667 365.5 -9 c 128
 385.833 -31.6667 408.333 -43 433 -43 c 0
 457.667 -43 488.833 -28.3333 526.5 1 c 128
 564.167 30.3333 593.333 72.3333 614 127 c 128
 634.667 181.667 648.667 227.667 656 265 c 1
 633.333 329.667 609 370 583 386 c 128
 557 402 528.667 410 498 410 c 0
EndSplineSet
Substitution: 1 0 'vert' partialdiff.vert
EndChar
StartChar: existential
Encoding: 8707 8707 1060
Width: 1024
Flags: W
Fore
192 745 m 1
 824 745 l 1
 824 -16 l 1
 192 -16 l 1
 192 33 l 1
 774 33 l 1
 774 340 l 1
 192 340 l 1
 192 389 l 1
 774 389 l 1
 774 696 l 1
 192 696 l 1
 192 745 l 1
EndSplineSet
Substitution: 1 0 'vert' existential.vert
EndChar
StartChar: gradient
Encoding: 8711 8711 1064
Width: 1024
Flags: W
Fore
943 777 m 1
 943 763 l 1
 512 -82 l 1
 492 -82 l 1
 62 760 l 1
 62 777 l 1
 943 777 l 1
881 729 m 1
 162 729 l 1
 522 25 l 1
 881 729 l 1
EndSplineSet
Substitution: 1 0 'vert' gradient.vert
EndChar
StartChar: element
Encoding: 8712 8712 1065
Width: 1024
Flags: W
Fore
953 -15 m 1
 421 -15 l 2
 311.667 -15 224.5 24.1667 159.5 102.5 c 128
 94.5 180.833 62 268.333 62 365 c 0
 62 460.333 94.5 547.5 159.5 626.5 c 128
 224.5 705.5 311.667 745 421 745 c 2
 953 745 l 1
 953 695 l 1
 421 695 l 2
 325 695 250.667 662.333 198 597 c 128
 145.333 531.667 116.333 463 111 391 c 1
 953 391 l 1
 953 341 l 1
 111 341 l 1
 115.667 267 144.5 197.333 197.5 132 c 128
 250.5 66.6667 325 34 421 34 c 2
 953 34 l 1
 953 -15 l 1
EndSplineSet
Substitution: 1 0 'vert' element.vert
EndChar
StartChar: suchthat
Encoding: 8715 8715 1068
Width: 1024
Flags: W
Fore
63 -15 m 1
 63 34 l 1
 595 34 l 2
 691 34 765.5 66.6667 818.5 132 c 128
 871.5 197.333 900.333 267 905 341 c 1
 63 341 l 1
 63 391 l 1
 905 391 l 1
 899.667 463 870.667 531.667 818 597 c 128
 765.333 662.333 691 695 595 695 c 2
 63 695 l 1
 63 745 l 1
 595 745 l 2
 704.333 745 791.5 705.5 856.5 626.5 c 128
 921.5 547.5 954 460.333 954 365 c 0
 954 268.333 921.5 180.833 856.5 102.5 c 128
 791.5 24.1667 704.333 -15 595 -15 c 2
 63 -15 l 1
EndSplineSet
Substitution: 1 0 'vert' suchthat.vert
EndChar
StartChar: radical
Encoding: 8730 8730 1083
Width: 1024
Flags: W
Fore
512 842 m 1
 1019 842 l 1
 1019 794 l 1
 539 794 l 1
 253 -113 l 1
 224 -113 l 1
 111 293 l 1
 43 173 l 1
 19 199 l 1
 126 388 l 1
 152 388 l 1
 257 24 l 1
 512 842 l 1
EndSplineSet
Substitution: 1 0 'vert' radical.vert
EndChar
StartChar: proportional
Encoding: 8733 8733 1086
Width: 1024
Flags: W
Fore
270 226 m 0
 317.333 226 359.667 237.333 397 260 c 128
 434.333 282.667 477.333 317.333 526 364 c 1
 477.333 410.667 434.333 445.333 397 468 c 128
 359.667 490.667 317.333 502 270 502 c 0
 227.333 502 191 489.833 161 465.5 c 128
 131 441.167 116 407.333 116 364 c 0
 116 320.667 131 286.833 161 262.5 c 128
 191 238.167 227.333 226 270 226 c 0
797 551 m 0
 846.333 551 898.667 536.667 954 508 c 1
 961.333 499.333 962.167 489.833 956.5 479.5 c 128
 950.833 469.167 941 464.667 927 466 c 1
 881.667 490 838.333 502 797 502 c 0
 767 502 737.833 492 709.5 472 c 128
 681.167 452 643.667 416 597 364 c 1
 643.667 312 681.167 276 709.5 256 c 128
 737.833 236 767 226 797 226 c 0
 838.333 226 881.667 238 927 262 c 1
 941 263.333 950.833 258.833 956.5 248.5 c 128
 962.167 238.167 961.333 228.667 954 220 c 1
 898.667 191.333 846.333 177 797 177 c 0
 752.333 177 713 190.167 679 216.5 c 128
 645 242.833 605.667 279.667 561 327 c 1
 511 279.667 464.167 242.833 420.5 216.5 c 128
 376.833 190.167 326.667 177 270 177 c 0
 211.333 177 161.833 196 121.5 234 c 128
 81.1667 272 61 315.333 61 364 c 0
 61 412.667 81.1667 456 121.5 494 c 128
 161.833 532 211.333 551 270 551 c 0
 326.667 551 376.833 537.833 420.5 511.5 c 128
 464.167 485.167 511 448.333 561 401 c 1
 605.667 448.333 645 485.167 679 511.5 c 128
 713 537.833 752.333 551 797 551 c 0
EndSplineSet
Substitution: 1 0 'vert' proportional.vert
EndChar
StartChar: infinity
Encoding: 8734 8734 1087
Width: 1024
Flags: W
Fore
755 502 m 0
 715.667 502 681.167 490.833 651.5 468.5 c 128
 621.833 446.167 585.333 411.333 542 364 c 1
 585.333 316.667 621.833 281.833 651.5 259.5 c 128
 681.167 237.167 715.667 226 755 226 c 0
 797.667 226 832.667 238.167 860 262.5 c 128
 887.333 286.833 901 320.667 901 364 c 0
 901 407.333 887.333 441.167 860 465.5 c 128
 832.667 489.833 797.667 502 755 502 c 0
262 177 m 0
 203.333 177 155.167 196 117.5 234 c 128
 79.8333 272 61 315.333 61 364 c 0
 61 412.667 79.8333 456 117.5 494 c 128
 155.167 532 203.333 551 262 551 c 0
 310.667 551 353.333 537.333 390 510 c 128
 426.667 482.667 466 447 508 403 c 1
 549.333 447 588.667 482.667 626 510 c 128
 663.333 537.333 706.333 551 755 551 c 0
 813.667 551 861.833 532 899.5 494 c 128
 937.167 456 956 412.667 956 364 c 0
 956 315.333 937.167 272 899.5 234 c 128
 861.833 196 813.667 177 755 177 c 0
 706.333 177 663.333 190.667 626 218 c 128
 588.667 245.333 549.333 281 508 325 c 1
 466 281 426.667 245.333 390 218 c 128
 353.333 190.667 310.667 177 262 177 c 0
262 226 m 0
 301.333 226 335.5 237.167 364.5 259.5 c 128
 393.5 281.833 429.667 316.667 473 364 c 1
 429.667 411.333 393.5 446.167 364.5 468.5 c 128
 335.5 490.833 301.333 502 262 502 c 0
 219.333 502 184.333 489.833 157 465.5 c 128
 129.667 441.167 116 407.333 116 364 c 0
 116 320.667 129.667 286.833 157 262.5 c 128
 184.333 238.167 219.333 226 262 226 c 0
EndSplineSet
Substitution: 1 0 'vert' infinity.vert
EndChar
StartChar: angle
Encoding: 8736 8736 1089
Width: 1024
Flags: W
Fore
883 777 m 1
 895.667 782.333 905.5 780.667 912.5 772 c 128
 919.5 763.333 918.667 752.667 910 740 c 1
 156 0 l 1
 922 0 l 1
 922 -49 l 1
 73 -49 l 2
 54.3333 -49 51.6667 -42 65 -28 c 1
 883 777 l 1
EndSplineSet
Substitution: 1 0 'vert' angle.vert
Substitution: 1 0 'vert' angle.vert
EndChar
StartChar: uni2225
Encoding: 8741 8741 1094
Width: 1024
Flags: W
Fore
387 875 m 1
 435 875 l 1
 435 -136 l 1
 387 -136 l 1
 387 875 l 1
581 875 m 1
 630 875 l 1
 630 -136 l 1
 581 -136 l 1
 581 875 l 1
EndSplineSet
Substitution: 1 0 'vert' uni2225.vert
EndChar
StartChar: logicaland
Encoding: 8743 8743 1096
Width: 1024
Flags: W
Fore
59 -29 m 1
 476 804 l 2
 485.333 822.667 495.333 832 506 832 c 128
 516.667 832 527 822.667 537 804 c 1
 954 -29 l 1
 956.667 -42.3333 953 -51.3333 943 -56 c 128
 933 -60.6667 924 -58.6667 916 -50 c 1
 517 746 l 1
 510.333 754 503.333 754 496 746 c 1
 97 -50 l 1
 89 -58.6667 80 -60.6667 70 -56 c 128
 60 -51.3333 56.3333 -42.3333 59 -29 c 1
EndSplineSet
Substitution: 1 0 'vert' logicaland.vert
EndChar
StartChar: logicalor
Encoding: 8744 8744 1097
Width: 1024
Flags: W
Fore
59 769 m 1
 56.3333 782.333 60 791.333 70 796 c 128
 80 800.667 89 798.667 97 790 c 1
 496 -6 l 1
 503.333 -14 510.333 -14 517 -6 c 1
 916 790 l 1
 924 798.667 933 800.667 943 796 c 128
 953 791.333 956.667 782.333 954 769 c 1
 537 -64 l 1
 527 -82.6667 516.667 -92 506 -92 c 128
 495.333 -92 485.333 -82.6667 476 -64 c 2
 59 769 l 1
EndSplineSet
Substitution: 1 0 'vert' logicalor.vert
EndChar
StartChar: intersection
Encoding: 8745 8745 1098
Width: 1024
Flags: W
Fore
161 -80 m 1
 161 459 l 2
 161 573.667 195 660.833 263 720.5 c 128
 331 780.167 413 810 509 810 c 0
 604.333 810 686.167 780.167 754.5 720.5 c 128
 822.833 660.833 857 573.667 857 459 c 2
 857 -80 l 1
 807 -80 l 1
 807 459 l 2
 807 560.333 777.833 636.167 719.5 686.5 c 128
 661.167 736.833 591 762 509 762 c 0
 426.333 762 356 736.833 298 686.5 c 128
 240 636.167 211 560.333 211 459 c 2
 211 -80 l 1
 161 -80 l 1
EndSplineSet
Substitution: 1 0 'vert' intersection.vert
EndChar
StartChar: union
Encoding: 8746 8746 1099
Width: 1024
Flags: W
Fore
161 810 m 1
 211 810 l 1
 211 271 l 2
 211 169.667 240 93.8333 298 43.5 c 128
 356 -6.83333 426.333 -32 509 -32 c 0
 591 -32 661.167 -6.83333 719.5 43.5 c 128
 777.833 93.8333 807 169.667 807 271 c 2
 807 810 l 1
 857 810 l 1
 857 271 l 2
 857 156.333 822.833 69.1667 754.5 9.5 c 128
 686.167 -50.1667 604.333 -80 509 -80 c 0
 413 -80 331 -50.1667 263 9.5 c 128
 195 69.1667 161 156.333 161 271 c 2
 161 810 l 1
EndSplineSet
Substitution: 1 0 'vert' union.vert
EndChar
StartChar: integral
Encoding: 8747 8747 1100
Width: 1024
Flags: W
Fore
634 810 m 0
 662 810 685.833 803.5 705.5 790.5 c 128
 725.167 777.5 739.167 764 747.5 750 c 128
 755.833 736 759.667 721.5 759 706.5 c 128
 758.333 691.5 751.833 678.667 739.5 668 c 128
 727.167 657.333 713.167 654 697.5 658 c 128
 681.833 662 674 671.333 674 686 c 128
 674 700.667 677.333 712.833 684 722.5 c 128
 690.667 732.167 693.833 740.667 693.5 748 c 128
 693.167 755.333 686.667 762.667 674 770 c 128
 661.333 777.333 647.667 781 633 781 c 0
 616.333 781 596.833 765.833 574.5 735.5 c 128
 552.167 705.167 539 660.167 535 600.5 c 128
 531 540.833 529 466 529 376 c 0
 529 286 521.833 205.667 507.5 135 c 128
 493.167 64.3333 470.667 9.5 440 -29.5 c 128
 409.333 -68.5 379 -88 349 -88 c 0
 321 -88 297.167 -81.5 277.5 -68.5 c 128
 257.833 -55.5 243.833 -42 235.5 -28 c 128
 227.167 -14 223.333 0.5 224 15.5 c 128
 224.667 30.5 231.167 43.3333 243.5 54 c 128
 255.833 64.6667 269.833 68 285.5 64 c 128
 301.167 60 309 50.6667 309 36 c 128
 309 21.3333 305.667 9.16667 299 -0.5 c 128
 292.333 -10.1667 289.167 -18.6667 289.5 -26 c 128
 289.833 -33.3333 296.333 -40.6667 309 -48 c 128
 321.667 -55.3333 335.333 -59 350 -59 c 0
 366.667 -59 386.167 -43.8333 408.5 -13.5 c 128
 430.833 16.8333 444 61.8333 448 121.5 c 128
 452 181.167 454 256 454 346 c 0
 454 436 461.167 516.333 475.5 587 c 128
 489.833 657.667 512.333 712.5 543 751.5 c 128
 573.667 790.5 604 810 634 810 c 0
EndSplineSet
Substitution: 1 0 'vert' integral.vert
EndChar
StartChar: uni222C
Encoding: 8748 8748 1101
Width: 1024
Flags: W
Fore
829 810 m 0
 857 810 880.833 803.5 900.5 790.5 c 128
 920.167 777.5 934.167 764 942.5 750 c 128
 950.833 736 954.667 721.5 954 706.5 c 128
 953.333 691.5 946.833 678.667 934.5 668 c 128
 922.167 657.333 908.167 654 892.5 658 c 128
 876.833 662 869 671.333 869 686 c 128
 869 700.667 872.333 712.833 879 722.5 c 128
 885.667 732.167 888.833 740.667 888.5 748 c 128
 888.167 755.333 881.667 762.667 869 770 c 128
 856.333 777.333 842.667 781 828 781 c 0
 811.333 781 791.833 765.833 769.5 735.5 c 128
 747.167 705.167 734 660.167 730 600.5 c 128
 726 540.833 724 466 724 376 c 0
 724 286 716.833 205.667 702.5 135 c 128
 688.167 64.3333 665.667 9.5 635 -29.5 c 128
 604.333 -68.5 574 -88 544 -88 c 0
 516 -88 492.167 -81.5 472.5 -68.5 c 128
 452.833 -55.5 438.833 -42 430.5 -28 c 128
 422.167 -14 418.333 0.5 419 15.5 c 128
 419.667 30.5 426.167 43.3333 438.5 54 c 128
 450.833 64.6667 464.833 68 480.5 64 c 128
 496.167 60 504 50.6667 504 36 c 128
 504 21.3333 500.667 9.16667 494 -0.5 c 128
 487.333 -10.1667 484.167 -18.6667 484.5 -26 c 128
 484.833 -33.3333 491.333 -40.6667 504 -48 c 128
 516.667 -55.3333 530.333 -59 545 -59 c 0
 561.667 -59 581.167 -43.8333 603.5 -13.5 c 128
 625.833 16.8333 639 61.8333 643 121.5 c 128
 647 181.167 649 256 649 346 c 0
 649 436 656.167 516.333 670.5 587 c 128
 684.833 657.667 707.333 712.5 738 751.5 c 128
 768.667 790.5 799 810 829 810 c 0
470 810 m 0
 498 810 521.833 803.5 541.5 790.5 c 128
 561.167 777.5 575.167 764 583.5 750 c 128
 591.833 736 595.667 721.5 595 706.5 c 128
 594.333 691.5 587.833 678.667 575.5 668 c 128
 563.167 657.333 549.167 654 533.5 658 c 128
 517.833 662 510 671.333 510 686 c 128
 510 700.667 513.333 712.833 520 722.5 c 128
 526.667 732.167 529.833 740.667 529.5 748 c 128
 529.167 755.333 522.667 762.667 510 770 c 128
 497.333 777.333 483.667 781 469 781 c 0
 452.333 781 432.833 765.833 410.5 735.5 c 128
 388.167 705.167 375 660.167 371 600.5 c 128
 367 540.833 365 466 365 376 c 0
 365 286 357.833 205.667 343.5 135 c 128
 329.167 64.3333 306.667 9.5 276 -29.5 c 128
 245.333 -68.5 215 -88 185 -88 c 0
 157 -88 133.167 -81.5 113.5 -68.5 c 128
 93.8333 -55.5 79.8333 -42 71.5 -28 c 128
 63.1667 -14 59.3333 0.5 60 15.5 c 128
 60.6667 30.5 67.1667 43.3333 79.5 54 c 128
 91.8333 64.6667 105.833 68 121.5 64 c 128
 137.167 60 145 50.6667 145 36 c 128
 145 21.3333 141.667 9.16667 135 -0.5 c 128
 128.333 -10.1667 125.167 -18.6667 125.5 -26 c 128
 125.833 -33.3333 132.333 -40.6667 145 -48 c 128
 157.667 -55.3333 171.333 -59 186 -59 c 0
 202.667 -59 222.167 -43.8333 244.5 -13.5 c 128
 266.833 16.8333 280 61.8333 284 121.5 c 128
 288 181.167 290 256 290 346 c 0
 290 436 297.167 516.333 311.5 587 c 128
 325.833 657.667 348.333 712.5 379 751.5 c 128
 409.667 790.5 440 810 470 810 c 0
EndSplineSet
Substitution: 1 0 'vert' uni222C.vert
EndChar
StartChar: therefore
Encoding: 8756 8756 1109
Width: 1024
Flags: W
Fore
412 622 m 0
 412 648 421.167 670.333 439.5 689 c 128
 457.833 707.667 480.333 717 507 717 c 0
 533 717 555.333 707.667 574 689 c 128
 592.667 670.333 602 648 602 622 c 0
 602 595.333 592.667 572.833 574 554.5 c 128
 555.333 536.167 533 527 507 527 c 0
 480.333 527 457.833 536.167 439.5 554.5 c 128
 421.167 572.833 412 595.333 412 622 c 0
673 201 m 0
 673 227 682.167 249.333 700.5 268 c 128
 718.833 286.667 741.333 296 768 296 c 0
 794 296 816.333 286.667 835 268 c 128
 853.667 249.333 863 227 863 201 c 0
 863 174.333 853.667 151.833 835 133.5 c 128
 816.333 115.167 794 106 768 106 c 0
 741.333 106 718.833 115.167 700.5 133.5 c 128
 682.167 151.833 673 174.333 673 201 c 0
673 201 m 0
 673 227 682.167 249.333 700.5 268 c 128
 718.833 286.667 741.333 296 768 296 c 0
 794 296 816.333 286.667 835 268 c 128
 853.667 249.333 863 227 863 201 c 0
 863 174.333 853.667 151.833 835 133.5 c 128
 816.333 115.167 794 106 768 106 c 0
 741.333 106 718.833 115.167 700.5 133.5 c 128
 682.167 151.833 673 174.333 673 201 c 0
152 201 m 0
 152 227 161.167 249.333 179.5 268 c 128
 197.833 286.667 220.333 296 247 296 c 0
 273 296 295.333 286.667 314 268 c 128
 332.667 249.333 342 227 342 201 c 0
 342 174.333 332.667 151.833 314 133.5 c 128
 295.333 115.167 273 106 247 106 c 0
 220.333 106 197.833 115.167 179.5 133.5 c 128
 161.167 151.833 152 174.333 152 201 c 0
EndSplineSet
Substitution: 1 0 'vert' therefore.vert
EndChar
StartChar: uni2235
Encoding: 8757 8757 1110
Width: 1024
Flags: W
Fore
413 184 m 0
 413 205.333 420.5 223.667 435.5 239 c 128
 450.5 254.333 468.667 262 490 262 c 0
 511.333 262 529.667 254.333 545 239 c 128
 560.333 223.667 568 205.333 568 184 c 0
 568 162.667 560.333 144.5 545 129.5 c 128
 529.667 114.5 511.333 107 490 107 c 0
 468.667 107 450.5 114.5 435.5 129.5 c 128
 420.5 144.5 413 162.667 413 184 c 0
642 576 m 0
 642 597.333 649.5 615.667 664.5 631 c 128
 679.5 646.333 697.667 654 719 654 c 0
 740.333 654 758.667 646.333 774 631 c 128
 789.333 615.667 797 597.333 797 576 c 0
 797 554.667 789.333 536.5 774 521.5 c 128
 758.667 506.5 740.333 499 719 499 c 0
 697.667 499 679.5 506.5 664.5 521.5 c 128
 649.5 536.5 642 554.667 642 576 c 0
187 576 m 0
 187 597.333 194.5 615.667 209.5 631 c 128
 224.5 646.333 242.667 654 264 654 c 0
 285.333 654 303.667 646.333 319 631 c 128
 334.333 615.667 342 597.333 342 576 c 0
 342 554.667 334.333 536.5 319 521.5 c 128
 303.667 506.5 285.333 499 264 499 c 0
 242.667 499 224.5 506.5 209.5 521.5 c 128
 194.5 536.5 187 554.667 187 576 c 0
EndSplineSet
Substitution: 1 0 'vert' uni2235.vert
EndChar
StartChar: uni223D
Encoding: 8765 8765 1118
Width: 1024
Flags: W
Fore
262 551 m 0
 307.333 551 349 535 387 503 c 1
 397 493 398.667 482.833 392 472.5 c 128
 385.333 462.167 375.667 459 363 463 c 1
 329.667 489 296 502 262 502 c 0
 219.333 502 184.333 490.333 157 467 c 128
 129.667 443.667 116 409.333 116 364 c 0
 116 320.667 129.667 286.833 157 262.5 c 128
 184.333 238.167 219.333 226 262 226 c 0
 301.333 226 336.167 237.667 366.5 261 c 128
 396.833 284.333 436.833 323.833 486.5 379.5 c 128
 536.167 435.167 581.167 477.667 621.5 507 c 128
 661.833 536.333 706.333 551 755 551 c 0
 813.667 551 861.833 532 899.5 494 c 128
 937.167 456 956 412.667 956 364 c 0
 956 310 937.167 265.333 899.5 230 c 128
 861.833 194.667 813.667 177 755 177 c 0
 709.667 177 668 193 630 225 c 1
 620 235 618.333 245.167 625 255.5 c 128
 631.667 265.833 641.333 269 654 265 c 1
 687.333 239 721 226 755 226 c 0
 797.667 226 832.667 237.667 860 261 c 128
 887.333 284.333 901 318.667 901 364 c 0
 901 407.333 887.333 441.167 860 465.5 c 128
 832.667 489.833 797.667 502 755 502 c 0
 715.667 502 680.5 490.333 649.5 467 c 128
 618.5 443.667 578.167 404.167 528.5 348.5 c 128
 478.833 292.833 434.167 250.333 394.5 221 c 128
 354.833 191.667 310.667 177 262 177 c 0
 203.333 177 155.167 196 117.5 234 c 128
 79.8333 272 61 315.333 61 364 c 0
 61 418 79.8333 462.667 117.5 498 c 128
 155.167 533.333 203.333 551 262 551 c 0
EndSplineSet
Substitution: 1 0 'vert' uni223D.vert
EndChar
StartChar: uni2252
Encoding: 8786 8786 1139
Width: 1024
Flags: W
Fore
126 518 m 1
 889 518 l 1
 889 469 l 1
 126 469 l 1
 126 518 l 1
126 291 m 1
 889 291 l 1
 889 242 l 1
 126 242 l 1
 126 291 l 1
255 687 m 0
 255 703 260.5 716.667 271.5 728 c 128
 282.5 739.333 296 745 312 745 c 0
 328 745 341.667 739.333 353 728 c 128
 364.333 716.667 370 703 370 687 c 0
 370 671 364.333 657.5 353 646.5 c 128
 341.667 635.5 328 630 312 630 c 0
 296 630 282.5 635.5 271.5 646.5 c 128
 260.5 657.5 255 671 255 687 c 0
646 72 m 0
 646 88 651.5 101.667 662.5 113 c 128
 673.5 124.333 687 130 703 130 c 0
 719 130 732.667 124.333 744 113 c 128
 755.333 101.667 761 88 761 72 c 0
 761 56 755.333 42.5 744 31.5 c 128
 732.667 20.5 719 15 703 15 c 0
 687 15 673.5 20.5 662.5 31.5 c 128
 651.5 42.5 646 56 646 72 c 0
EndSplineSet
Substitution: 1 0 'vert' uni2252.vert
EndChar
StartChar: notequal
Encoding: 8800 8800 1153
Width: 1024
Flags: W
Fore
857 485 m 1
 857 436 l 1
 565 436 l 1
 499 291 l 1
 857 291 l 1
 857 242 l 1
 477 242 l 1
 389 47 l 1
 348 66 l 1
 428 242 l 1
 159 242 l 1
 159 291 l 1
 450 291 l 1
 516 436 l 1
 159 436 l 1
 159 485 l 1
 538 485 l 1
 629 686 l 1
 670 668 l 1
 587 485 l 1
 857 485 l 1
EndSplineSet
Substitution: 1 0 'vert' notequal.vert
EndChar
StartChar: equivalence
Encoding: 8801 8801 1154
Width: 1024
Flags: W
Fore
126 615 m 1
 889 615 l 1
 889 567 l 1
 126 567 l 1
 126 615 l 1
126 388 m 1
 889 388 l 1
 889 339 l 1
 126 339 l 1
 126 388 l 1
126 161 m 1
 889 161 l 1
 889 112 l 1
 126 112 l 1
 126 161 l 1
EndSplineSet
Substitution: 1 0 'vert' equivalence.vert
EndChar
StartChar: uni2266
Encoding: 8806 8806 1159
Width: 1024
Flags: W
Fore
126 194 m 1
 889 194 l 1
 889 145 l 1
 126 145 l 1
 126 194 l 1
126 33 m 1
 889 33 l 1
 889 -16 l 1
 126 -16 l 1
 126 33 l 1
867 812 m 1
 880.333 814 889.333 810.333 894 801 c 128
 898.667 791.667 896.333 783.667 887 777 c 1
 219 547 l 2
 205 542.333 205 537.667 219 533 c 2
 887 303 l 1
 896.333 296.333 898.667 288.333 894 279 c 128
 889.333 269.667 880.333 266 867 268 c 1
 145 517 l 1
 119.667 532.333 119.667 547.667 145 563 c 1
 867 812 l 1
EndSplineSet
Substitution: 1 0 'vert' uni2266.vert
EndChar
StartChar: uni2267
Encoding: 8807 8807 1160
Width: 1024
Flags: W
Fore
141 812 m 1
 863 563 l 1
 888.333 547.667 888.333 532.333 863 517 c 1
 141 268 l 1
 127.667 266 118.667 269.667 114 279 c 128
 109.333 288.333 111.667 296.333 121 303 c 1
 789 533 l 2
 803 537.667 803 542.333 789 547 c 2
 121 777 l 1
 111.667 783.667 109.333 791.667 114 801 c 128
 118.667 810.333 127.667 814 141 812 c 1
126 194 m 1
 889 194 l 1
 889 145 l 1
 126 145 l 1
 126 194 l 1
126 33 m 1
 889 33 l 1
 889 -16 l 1
 126 -16 l 1
 126 33 l 1
EndSplineSet
Substitution: 1 0 'vert' uni2267.vert
EndChar
StartChar: uni226A
Encoding: 8810 8810 1163
Width: 1024
Flags: W
Fore
731 816 m 1
 743.667 820 753 819.167 759 813.5 c 128
 765 807.833 766 800 762 790 c 1
 110 364 l 1
 762 -62 l 1
 764.667 -73.3333 763.667 -81.5 759 -86.5 c 128
 754.333 -91.5 745 -92 731 -88 c 1
 66 346 l 2
 56.6667 352 52 357.833 52 363.5 c 128
 52 369.167 56.6667 375.333 66 382 c 2
 731 816 l 1
925 816 m 1
 937.667 820 947 819.167 953 813.5 c 128
 959 807.833 960 800 956 790 c 1
 304 364 l 1
 956 -62 l 1
 958.667 -73.3333 957.667 -81.5 953 -86.5 c 128
 948.333 -91.5 939 -92 925 -88 c 1
 260 346 l 2
 250.667 352 246 357.833 246 363.5 c 128
 246 369.167 250.667 375.333 260 382 c 2
 925 816 l 1
EndSplineSet
Substitution: 1 0 'vert' uni226A.vert
EndChar
StartChar: uni226B
Encoding: 8811 8811 1164
Width: 1024
Flags: W
Fore
281 816 m 1
 946 382 l 2
 955.333 375.333 960 369.167 960 363.5 c 128
 960 357.833 955.333 352 946 346 c 2
 281 -88 l 1
 267 -92 257.667 -91.5 253 -86.5 c 128
 248.333 -81.5 247.333 -73.3333 250 -62 c 1
 902 364 l 1
 250 790 l 1
 246 800 247 807.833 253 813.5 c 128
 259 819.167 268.333 820 281 816 c 1
87 816 m 1
 752 382 l 2
 761.333 375.333 766 369.167 766 363.5 c 128
 766 357.833 761.333 352 752 346 c 2
 87 -88 l 1
 73 -92 63.6667 -91.5 59 -86.5 c 128
 54.3333 -81.5 53.3333 -73.3333 56 -62 c 1
 708 364 l 1
 56 790 l 1
 52 800 53 807.833 59 813.5 c 128
 65 819.167 74.3333 820 87 816 c 1
EndSplineSet
Substitution: 1 0 'vert' uni226B.vert
EndChar
StartChar: propersubset
Encoding: 8834 8834 1187
Width: 1024
Flags: W
Fore
955 17 m 1
 423 17 l 2
 303 17 213.167 50.8333 153.5 118.5 c 128
 93.8333 186.167 64 268.333 64 365 c 0
 64 460.333 93.8333 542.167 153.5 610.5 c 128
 213.167 678.833 303 713 423 713 c 2
 955 713 l 1
 955 663 l 1
 423 663 l 2
 316.333 663 237.833 633.833 187.5 575.5 c 128
 137.167 517.167 112 447 112 365 c 0
 112 281.667 137.167 211 187.5 153 c 128
 237.833 95 316.333 66 423 66 c 2
 955 66 l 1
 955 17 l 1
EndSplineSet
Substitution: 1 0 'vert' propersubset.vert
EndChar
StartChar: propersuperset
Encoding: 8835 8835 1188
Width: 1024
Flags: W
Fore
61 17 m 1
 61 66 l 1
 593 66 l 2
 699.667 66 778.167 95 828.5 153 c 128
 878.833 211 904 281.667 904 365 c 0
 904 447 878.833 517.167 828.5 575.5 c 128
 778.167 633.833 699.667 663 593 663 c 2
 61 663 l 1
 61 713 l 1
 593 713 l 2
 713 713 802.833 678.833 862.5 610.5 c 128
 922.167 542.167 952 460.333 952 365 c 0
 952 268.333 922.167 186.167 862.5 118.5 c 128
 802.833 50.8333 713 17 593 17 c 2
 61 17 l 1
EndSplineSet
Substitution: 1 0 'vert' propersuperset.vert
EndChar
StartChar: reflexsubset
Encoding: 8838 8838 1191
Width: 1024
Flags: W
Fore
61 33 m 1
 954 33 l 1
 954 -16 l 1
 61 -16 l 1
 61 33 l 1
954 177 m 1
 398 177 l 2
 294 177 212.167 208.167 152.5 270.5 c 128
 92.8333 332.833 63 402.333 63 479 c 0
 63 554.333 92.8333 623.167 152.5 685.5 c 128
 212.167 747.833 294 779 398 779 c 2
 954 779 l 1
 954 729 l 1
 398 729 l 2
 307.333 729 236.833 702.833 186.5 650.5 c 128
 136.167 598.167 111 541 111 479 c 0
 111 415.667 136.167 357.667 186.5 305 c 128
 236.833 252.333 307.333 226 398 226 c 2
 954 226 l 1
 954 177 l 1
EndSplineSet
Substitution: 1 0 'vert' reflexsubset.vert
EndChar
StartChar: reflexsuperset
Encoding: 8839 8839 1192
Width: 1024
Flags: W
Fore
61 33 m 1
 955 33 l 1
 955 -16 l 1
 61 -16 l 1
 61 33 l 1
60 779 m 1
 616 779 l 2
 720 779 801.833 747.833 861.5 685.5 c 128
 921.167 623.167 951 553.667 951 477 c 0
 951 401.667 921.167 332.833 861.5 270.5 c 128
 801.833 208.167 720 177 616 177 c 2
 60 177 l 1
 60 227 l 1
 616 227 l 2
 706.667 227 777.167 253.167 827.5 305.5 c 128
 877.833 357.833 903 415 903 477 c 0
 903 540.333 877.833 598.333 827.5 651 c 128
 777.167 703.667 706.667 730 616 730 c 2
 60 730 l 1
 60 779 l 1
EndSplineSet
Substitution: 1 0 'vert' reflexsuperset.vert
EndChar
StartChar: perpendicular
Encoding: 8869 8869 1222
Width: 1024
Flags: W
Fore
483 810 m 1
 533 810 l 1
 533 0 l 1
 922 0 l 1
 922 -49 l 1
 94 -49 l 1
 94 0 l 1
 483 0 l 1
 483 810 l 1
EndSplineSet
Substitution: 1 0 'vert' perpendicular.vert
EndChar
StartChar: uni2312
Encoding: 8978 8978 1301
Width: 1024
Flags: W
Fore
65 451 m 1
 65 528.333 107 602.167 191 672.5 c 128
 275 742.833 381 778 509 778 c 0
 636.333 778 742.167 742.833 826.5 672.5 c 128
 910.833 602.167 953 528.333 953 451 c 1
 945.667 440.333 938.333 440.333 931 451 c 1
 920.333 515 875.833 577.5 797.5 638.5 c 128
 719.167 699.5 623 730 509 730 c 0
 394.333 730 298 699.5 220 638.5 c 128
 142 577.5 97.6667 515 87 451 c 1
 79.6667 440.333 72.3333 440.333 65 451 c 1
EndSplineSet
Substitution: 1 0 'vert' uni2312.vert
EndChar
StartChar: uni2460
Encoding: 9312 9312 1304
Width: 1024
Flags: W
Fore
44 382 m 0
 44 510.667 90 621.167 182 713.5 c 128
 274 805.833 384.667 852 514 852 c 0
 642.667 852 753.167 805.833 845.5 713.5 c 128
 937.833 621.167 984 510.667 984 382 c 0
 984 252.667 937.833 142 845.5 50 c 128
 753.167 -42 642.667 -88 514 -88 c 0
 384.667 -88 274 -42 182 50 c 128
 90 142 44 252.667 44 382 c 0
77 382 m 0
 77 261.333 119.667 158.333 205 73 c 128
 290.333 -12.3333 393.333 -55 514 -55 c 0
 634 -55 736.833 -12.3333 822.5 73 c 128
 908.167 158.333 951 261.333 951 382 c 0
 951 502 908.167 604.833 822.5 690.5 c 128
 736.833 776.167 634 819 514 819 c 0
 393.333 819 290.333 776.167 205 690.5 c 128
 119.667 604.833 77 502 77 382 c 0
661 86 m 1
 661 63 l 1
 565 65 469.333 65 374 63 c 1
 374 86 l 1
 448.667 92.6667 486 107.333 486 130 c 2
 486 587 l 2
 486 605.667 475.667 615 455 615 c 2
 371 615 l 1
 371 637 l 1
 437.667 641 488.667 662.333 524 701 c 1
 548 701 l 1
 548 646 l 1
 548 130 l 2
 548 107.333 585.667 92.6667 661 86 c 1
EndSplineSet
Substitution: 1 0 'vert' uni2460.vert
EndChar
StartChar: uni2461
Encoding: 9313 9313 1305
Width: 1024
Flags: W
Fore
44 382 m 0
 44 510.667 90 621.167 182 713.5 c 128
 274 805.833 384.667 852 514 852 c 0
 642.667 852 753.167 805.833 845.5 713.5 c 128
 937.833 621.167 984 510.667 984 382 c 0
 984 252.667 937.833 142 845.5 50 c 128
 753.167 -42 642.667 -88 514 -88 c 0
 384.667 -88 274 -42 182 50 c 128
 90 142 44 252.667 44 382 c 0
77 382 m 0
 77 261.333 119.667 158.333 205 73 c 128
 290.333 -12.3333 393.333 -55 514 -55 c 0
 634 -55 736.833 -12.3333 822.5 73 c 128
 908.167 158.333 951 261.333 951 382 c 0
 951 502 908.167 604.833 822.5 690.5 c 128
 736.833 776.167 634 819 514 819 c 0
 393.333 819 290.333 776.167 205 690.5 c 128
 119.667 604.833 77 502 77 382 c 0
527 696 m 0
 583 696 630.833 680.5 670.5 649.5 c 128
 710.167 618.5 730 583.667 730 545 c 0
 730 511.667 716.333 478.667 689 446 c 128
 661.667 413.333 624.167 379.167 576.5 343.5 c 128
 528.833 307.833 483.833 268.167 441.5 224.5 c 128
 399.167 180.833 378 145 378 117 c 1
 618 117 l 2
 638.667 117 658.833 121.5 678.5 130.5 c 128
 698.167 139.5 720 171.333 744 226 c 1
 764 222 l 1
 748 158 735.333 105 726 63 c 1
 590 64.3333 447.667 64.3333 299 63 c 1
 299 122.333 329 179.5 389 234.5 c 128
 449 289.5 501.167 334.5 545.5 369.5 c 128
 589.833 404.5 620.5 435 637.5 461 c 128
 654.5 487 663 515.333 663 546 c 0
 663 579.333 648.833 607.333 620.5 630 c 128
 592.167 652.667 561 664 527 664 c 0
 496.333 664 471.333 659.833 452 651.5 c 128
 432.667 643.167 417.333 632.5 406 619.5 c 128
 394.667 606.5 391.667 593.833 397 581.5 c 128
 405 563 405 563 410 551.5 c 128
 413.333 543.833 413.333 535.5 410 526.5 c 128
 406.667 517.5 400.833 511 392.5 507 c 128
 384.167 503 375.167 502.333 365.5 505 c 128
 355.833 507.667 348 513.333 342 522 c 128
 336 530.667 332.167 540.5 330.5 551.5 c 128
 328.833 562.5 330.167 573.833 334.5 585.5 c 128
 338.833 597.167 348.167 612 362.5 630 c 128
 376.833 648 397.833 663.5 425.5 676.5 c 128
 453.167 689.5 487 696 527 696 c 0
EndSplineSet
Substitution: 1 0 'vert' uni2461.vert
EndChar
StartChar: uni2462
Encoding: 9314 9314 1306
Width: 1024
Flags: W
Fore
44 382 m 0
 44 510.667 90 621.167 182 713.5 c 128
 274 805.833 384.667 852 514 852 c 0
 642.667 852 753.167 805.833 845.5 713.5 c 128
 937.833 621.167 984 510.667 984 382 c 0
 984 252.667 937.833 142 845.5 50 c 128
 753.167 -42 642.667 -88 514 -88 c 0
 384.667 -88 274 -42 182 50 c 128
 90 142 44 252.667 44 382 c 0
77 382 m 0
 77 261.333 119.667 158.333 205 73 c 128
 290.333 -12.3333 393.333 -55 514 -55 c 0
 634 -55 736.833 -12.3333 822.5 73 c 128
 908.167 158.333 951 261.333 951 382 c 0
 951 502 908.167 604.833 822.5 690.5 c 128
 736.833 776.167 634 819 514 819 c 0
 393.333 819 290.333 776.167 205 690.5 c 128
 119.667 604.833 77 502 77 382 c 0
502 696 m 0
 550 696 594.667 680.667 636 650 c 128
 677.333 619.333 698 584.333 698 545 c 0
 698 503 680.667 470.5 646 447.5 c 128
 611.333 424.5 583 410.667 561 406 c 1
 594.333 401.333 629.833 385.833 667.5 359.5 c 128
 705.167 333.167 724 292.333 724 237 c 0
 724 193.667 703.833 152.833 663.5 114.5 c 128
 623.167 76.1667 569.333 57 502 57 c 0
 457.333 57 421.833 62.6667 395.5 74 c 128
 369.167 85.3333 347 100.167 329 118.5 c 128
 311 136.833 299.833 155.333 295.5 174 c 128
 291.167 192.667 293.167 207.667 301.5 219 c 128
 309.833 230.333 319.5 237.333 330.5 240 c 128
 341.5 242.667 352.5 241.167 363.5 235.5 c 128
 374.5 229.833 381.667 221.667 385 211 c 128
 388.333 200.333 388.167 191.5 384.5 184.5 c 128
 380.833 177.5 376.333 169.333 371 160 c 128
 365.667 150.667 367.333 140.333 376 129 c 128
 384.667 117.667 400 108.5 422 101.5 c 128
 444 94.5 470.667 91 502 91 c 0
 549.333 91 587 105.667 615 135 c 128
 643 164.333 657 198.667 657 238 c 0
 657 285.333 642.5 322.5 613.5 349.5 c 128
 584.5 376.5 527.667 390 443 390 c 1
 443 421 l 1
 516.333 421 566 432.833 592 456.5 c 128
 618 480.167 631 509.667 631 545 c 0
 631 579 617.333 607.167 590 629.5 c 128
 562.667 651.833 533.333 663 502 663 c 0
 474 663 453 660.667 439 656 c 128
 425 651.333 413.167 643.667 403.5 633 c 128
 393.833 622.333 389.333 612.333 390 603 c 128
 390.667 593.667 393.333 585 398 577 c 128
 402.667 569 403.5 561.167 400.5 553.5 c 128
 397.5 545.833 391.5 539.167 382.5 533.5 c 128
 373.5 527.833 364.167 526.167 354.5 528.5 c 128
 344.833 530.833 337.167 535.667 331.5 543 c 128
 325.833 550.333 323 559.833 323 571.5 c 128
 323 583.167 326 594.667 332 606 c 128
 338 617.333 348.333 630.333 363 645 c 128
 377.667 659.667 395.667 671.833 417 681.5 c 128
 438.333 691.167 466.667 696 502 696 c 0
EndSplineSet
Substitution: 1 0 'vert' uni2462.vert
EndChar
StartChar: uni2463
Encoding: 9315 9315 1307
Width: 1024
Flags: W
Fore
44 382 m 0
 44 510.667 90 621.167 182 713.5 c 128
 274 805.833 384.667 852 514 852 c 0
 642.667 852 753.167 805.833 845.5 713.5 c 128
 937.833 621.167 984 510.667 984 382 c 0
 984 252.667 937.833 142 845.5 50 c 128
 753.167 -42 642.667 -88 514 -88 c 0
 384.667 -88 274 -42 182 50 c 128
 90 142 44 252.667 44 382 c 0
77 382 m 0
 77 261.333 119.667 158.333 205 73 c 128
 290.333 -12.3333 393.333 -55 514 -55 c 0
 634 -55 736.833 -12.3333 822.5 73 c 128
 908.167 158.333 951 261.333 951 382 c 0
 951 502 908.167 604.833 822.5 690.5 c 128
 736.833 776.167 634 819 514 819 c 0
 393.333 819 290.333 776.167 205 690.5 c 128
 119.667 604.833 77 502 77 382 c 0
706 255 m 1
 706 222 l 1
 592 222 l 1
 592 130 l 2
 592 107.333 622.667 92.6667 684 86 c 1
 684 63 l 1
 600 65 515 65 429 63 c 1
 429 86 l 1
 497 92.6667 531 107.333 531 130 c 2
 531 222 l 1
 213 222 l 1
 213 253 l 1
 548 701 l 1
 592 701 l 1
 592 255 l 1
 706 255 l 1
531 621 m 1
 254 255 l 1
 531 255 l 1
 531 621 l 1
EndSplineSet
Substitution: 1 0 'vert' uni2463.vert
EndChar
StartChar: uni2464
Encoding: 9316 9316 1308
Width: 1024
Flags: W
Fore
44 382 m 0
 44 510.667 90 621.167 182 713.5 c 128
 274 805.833 384.667 852 514 852 c 0
 642.667 852 753.167 805.833 845.5 713.5 c 128
 937.833 621.167 984 510.667 984 382 c 0
 984 252.667 937.833 142 845.5 50 c 128
 753.167 -42 642.667 -88 514 -88 c 0
 384.667 -88 274 -42 182 50 c 128
 90 142 44 252.667 44 382 c 0
77 382 m 0
 77 261.333 119.667 158.333 205 73 c 128
 290.333 -12.3333 393.333 -55 514 -55 c 0
 634 -55 736.833 -12.3333 822.5 73 c 128
 908.167 158.333 951 261.333 951 382 c 0
 951 502 908.167 604.833 822.5 690.5 c 128
 736.833 776.167 634 819 514 819 c 0
 393.333 819 290.333 776.167 205 690.5 c 128
 119.667 604.833 77 502 77 382 c 0
371 694 m 1
 476.333 692 582.667 692 690 694 c 1
 690 684 l 1
 680 677.333 669 662.667 657 640 c 1
 413 640 l 1
 411 579.333 405.667 500.667 397 404 c 1
 417 419.333 439.5 432.333 464.5 443 c 128
 489.5 453.667 519.667 459 555 459 c 0
 593.667 459 634.833 441.5 678.5 406.5 c 128
 722.167 371.5 744 324.667 744 266 c 0
 744 212 722.167 163.667 678.5 121 c 128
 634.833 78.3333 583.333 57 524 57 c 0
 482.667 57 447.667 63.5 419 76.5 c 128
 390.333 89.5 366.5 104.667 347.5 122 c 128
 328.5 139.333 316.667 156.333 312 173 c 128
 307.333 189.667 309.5 204.5 318.5 217.5 c 128
 327.5 230.5 337.833 238.333 349.5 241 c 128
 361.167 243.667 372.5 241.667 383.5 235 c 128
 394.5 228.333 401.333 220.333 404 211 c 128
 406.667 201.667 405.5 193.167 400.5 185.5 c 128
 395.5 177.833 392.333 168.5 391 157.5 c 128
 389.667 146.5 395.5 135.5 408.5 124.5 c 128
 421.5 113.5 437.5 105 456.5 99 c 128
 475.5 93 498 90 524 90 c 0
 562.667 90 597.833 107.167 629.5 141.5 c 128
 661.167 175.833 677 217.333 677 266 c 0
 677 317.333 664.167 357 638.5 385 c 128
 612.833 413 585 427 555 427 c 0
 527 427 501 422.5 477 413.5 c 128
 453 404.5 423.667 384.667 389 354 c 1
 350 357 l 1
 363.333 475 370.333 587.333 371 694 c 1
EndSplineSet
Substitution: 1 0 'vert' uni2464.vert
EndChar
StartChar: uni2465
Encoding: 9317 9317 1309
Width: 1024
Flags: W
Fore
44 382 m 0
 44 510.667 90 621.167 182 713.5 c 128
 274 805.833 384.667 852 514 852 c 0
 642.667 852 753.167 805.833 845.5 713.5 c 128
 937.833 621.167 984 510.667 984 382 c 0
 984 252.667 937.833 142 845.5 50 c 128
 753.167 -42 642.667 -88 514 -88 c 0
 384.667 -88 274 -42 182 50 c 128
 90 142 44 252.667 44 382 c 0
77 382 m 0
 77 261.333 119.667 158.333 205 73 c 128
 290.333 -12.3333 393.333 -55 514 -55 c 0
 634 -55 736.833 -12.3333 822.5 73 c 128
 908.167 158.333 951 261.333 951 382 c 0
 951 502 908.167 604.833 822.5 690.5 c 128
 736.833 776.167 634 819 514 819 c 0
 393.333 819 290.333 776.167 205 690.5 c 128
 119.667 604.833 77 502 77 382 c 0
505 695 m 0
 535.667 695 560.5 692.5 579.5 687.5 c 128
 598.5 682.5 617 674.667 635 664 c 128
 653 653.333 668.667 639.833 682 623.5 c 128
 695.333 607.167 703 592.833 705 580.5 c 128
 707 568.167 704.167 556.333 696.5 545 c 128
 688.833 533.667 678.833 528 666.5 528 c 128
 654.167 528 644.667 531.833 638 539.5 c 128
 631.333 547.167 628.167 554.667 628.5 562 c 128
 628.833 569.333 629.5 577.5 630.5 586.5 c 128
 631.5 595.5 630.333 604.167 627 612.5 c 128
 623.667 620.833 616 630.167 604 640.5 c 128
 592 650.833 577.5 657.667 560.5 661 c 128
 543.5 664.333 525 666 505 666 c 0
 466.333 666 431.833 641 401.5 591 c 128
 371.167 541 356 471.667 356 383 c 2
 356 359 l 1
 364 368.333 373.333 378 384 388 c 128
 394.667 398 411.5 409.833 434.5 423.5 c 128
 457.5 437.167 488 444 526 444 c 0
 575.333 444 621.167 425.167 663.5 387.5 c 128
 705.833 349.833 727 303.667 727 249 c 0
 727 197.667 706.833 152.833 666.5 114.5 c 128
 626.167 76.1667 574.667 57 512 57 c 0
 449.333 57 396.5 82.1667 353.5 132.5 c 128
 310.5 182.833 289 266 289 382 c 0
 289 480.667 310.833 557.5 354.5 612.5 c 128
 398.167 667.5 448.333 695 505 695 c 0
512 90 m 0
 556 90 592 106.167 620 138.5 c 128
 648 170.833 662 207.667 662 249 c 0
 662 292.333 649.333 330.333 624 363 c 128
 598.667 395.667 566 412 526 412 c 0
 496.667 412 471.667 406.167 451 394.5 c 128
 430.333 382.833 413 371 399 359 c 128
 385 347 372 328.667 360 304 c 1
 365.333 242 380.833 190.833 406.5 150.5 c 128
 432.167 110.167 467.333 90 512 90 c 0
EndSplineSet
Substitution: 1 0 'vert' uni2465.vert
EndChar
StartChar: uni2466
Encoding: 9318 9318 1310
Width: 1024
Flags: W
Fore
44 382 m 0
 44 510.667 90 621.167 182 713.5 c 128
 274 805.833 384.667 852 514 852 c 0
 642.667 852 753.167 805.833 845.5 713.5 c 128
 937.833 621.167 984 510.667 984 382 c 0
 984 252.667 937.833 142 845.5 50 c 128
 753.167 -42 642.667 -88 514 -88 c 0
 384.667 -88 274 -42 182 50 c 128
 90 142 44 252.667 44 382 c 0
77 382 m 0
 77 261.333 119.667 158.333 205 73 c 128
 290.333 -12.3333 393.333 -55 514 -55 c 0
 634 -55 736.833 -12.3333 822.5 73 c 128
 908.167 158.333 951 261.333 951 382 c 0
 951 502 908.167 604.833 822.5 690.5 c 128
 736.833 776.167 634 819 514 819 c 0
 393.333 819 290.333 776.167 205 690.5 c 128
 119.667 604.833 77 502 77 382 c 0
518 57 m 0
 495.333 57 483.833 74.1667 483.5 108.5 c 128
 483.167 142.833 488.667 183 500 229 c 128
 511.333 275 528.667 322 552 370 c 128
 575.333 418 602.667 468.667 634 522 c 128
 665.333 575.333 681 615.667 681 643 c 1
 430 643 l 2
 404.667 643 383.5 637.5 366.5 626.5 c 128
 349.5 615.5 329.667 583.333 307 530 c 1
 286 535 l 1
 304 596.333 316.667 649.333 324 694 c 1
 444.667 692 577 692 721 694 c 1
 721 636.667 704 579 670 521 c 128
 636 463 610.167 410.167 592.5 362.5 c 128
 574.833 314.833 564.167 269 560.5 225 c 128
 556.833 181 554.167 142 552.5 108 c 128
 550.833 74 539.333 57 518 57 c 0
EndSplineSet
Substitution: 1 0 'vert' uni2466.vert
EndChar
StartChar: uni2467
Encoding: 9319 9319 1311
Width: 1024
Flags: W
Fore
44 382 m 0
 44 510.667 90 621.167 182 713.5 c 128
 274 805.833 384.667 852 514 852 c 0
 642.667 852 753.167 805.833 845.5 713.5 c 128
 937.833 621.167 984 510.667 984 382 c 0
 984 252.667 937.833 142 845.5 50 c 128
 753.167 -42 642.667 -88 514 -88 c 0
 384.667 -88 274 -42 182 50 c 128
 90 142 44 252.667 44 382 c 0
77 382 m 0
 77 261.333 119.667 158.333 205 73 c 128
 290.333 -12.3333 393.333 -55 514 -55 c 0
 634 -55 736.833 -12.3333 822.5 73 c 128
 908.167 158.333 951 261.333 951 382 c 0
 951 502 908.167 604.833 822.5 690.5 c 128
 736.833 776.167 634 819 514 819 c 0
 393.333 819 290.333 776.167 205 690.5 c 128
 119.667 604.833 77 502 77 382 c 0
514 57 m 0
 454 57 401 73.1667 355 105.5 c 128
 309 137.833 286 178.667 286 228 c 0
 286 284 301.5 323.333 332.5 346 c 128
 363.5 368.667 401.667 388.667 447 406 c 1
 415 422.667 385.5 442.167 358.5 464.5 c 128
 331.5 486.833 318 518 318 558 c 0
 318 596 337.333 629.333 376 658 c 128
 414.667 686.667 458.333 701 507 701 c 0
 559.667 701 604.667 686.667 642 658 c 128
 679.333 629.333 698 596 698 558 c 0
 698 515.333 684 483.333 656 462 c 128
 628 440.667 597.333 424 564 412 c 1
 614.667 387.333 655.167 361.833 685.5 335.5 c 128
 715.833 309.167 731 273.333 731 228 c 0
 731 179.333 710.667 138.667 670 106 c 128
 629.333 73.3333 577.333 57 514 57 c 0
353 228 m 0
 353 186.667 368.333 153.333 399 128 c 128
 429.667 102.667 468 90 514 90 c 0
 563.333 90 600.667 103 626 129 c 128
 651.333 155 664 188 664 228 c 0
 664 250 651.333 274.667 626 302 c 128
 600.667 329.333 552.333 358.333 481 389 c 1
 434.333 369 401.333 347.333 382 324 c 128
 362.667 300.667 353 268.667 353 228 c 0
631 558 m 0
 631 590.667 619.167 617.167 595.5 637.5 c 128
 571.833 657.833 542.333 668 507 668 c 0
 475.667 668 447.5 657.833 422.5 637.5 c 128
 397.5 617.167 385 590.667 385 558 c 0
 385 526 397.667 501.833 423 485.5 c 128
 448.333 469.167 483.333 450.333 528 429 c 1
 558.667 441.667 583.5 457.333 602.5 476 c 128
 621.5 494.667 631 522 631 558 c 0
EndSplineSet
Substitution: 1 0 'vert' uni2467.vert
EndChar
StartChar: uni2468
Encoding: 9320 9320 1312
Width: 1024
Flags: W
Fore
44 382 m 0
 44 510.667 90 621.167 182 713.5 c 128
 274 805.833 384.667 852 514 852 c 0
 642.667 852 753.167 805.833 845.5 713.5 c 128
 937.833 621.167 984 510.667 984 382 c 0
 984 252.667 937.833 142 845.5 50 c 128
 753.167 -42 642.667 -88 514 -88 c 0
 384.667 -88 274 -42 182 50 c 128
 90 142 44 252.667 44 382 c 0
77 382 m 0
 77 261.333 119.667 158.333 205 73 c 128
 290.333 -12.3333 393.333 -55 514 -55 c 0
 634 -55 736.833 -12.3333 822.5 73 c 128
 908.167 158.333 951 261.333 951 382 c 0
 951 502 908.167 604.833 822.5 690.5 c 128
 736.833 776.167 634 819 514 819 c 0
 393.333 819 290.333 776.167 205 690.5 c 128
 119.667 604.833 77 502 77 382 c 0
520 56 m 0
 489.333 56 464.5 58.5 445.5 63.5 c 128
 426.5 68.5 408 76.3333 390 87 c 128
 372 97.6667 356.333 111.167 343 127.5 c 128
 329.667 143.833 322 158.167 320 170.5 c 128
 318 182.833 320.833 194.667 328.5 206 c 128
 336.167 217.333 346.167 223 358.5 223 c 128
 370.833 223 380.333 219.167 387 211.5 c 128
 393.667 203.833 396.833 196.333 396.5 189 c 128
 396.167 181.667 395.5 173.5 394.5 164.5 c 128
 393.5 155.5 394.667 146.667 398 138 c 128
 401.333 129.333 409 120 421 110 c 128
 433 100 447.5 93.3333 464.5 90 c 128
 481.5 86.6667 500 85 520 85 c 0
 558.667 85 593.167 110 623.5 160 c 128
 653.833 210 669 279.333 669 368 c 2
 669 392 l 1
 660.333 382.667 650.833 373 640.5 363 c 128
 630.167 353 613.5 341.167 590.5 327.5 c 128
 567.5 313.833 537 307 499 307 c 0
 449.667 307 403.833 325.833 361.5 363.5 c 128
 319.167 401.167 298 447.333 298 502 c 0
 298 553.333 318.167 598.167 358.5 636.5 c 128
 398.833 674.833 450.333 694 513 694 c 0
 575.667 694 628.5 668.833 671.5 618.5 c 128
 714.5 568.167 736 485 736 369 c 0
 736 270.333 714.167 193.5 670.5 138.5 c 128
 626.833 83.5 576.667 56 520 56 c 0
513 661 m 0
 469 661 433 644.833 405 612.5 c 128
 377 580.167 363 543.333 363 502 c 0
 363 458.667 375.667 420.667 401 388 c 128
 426.333 355.333 459 339 499 339 c 0
 528.333 339 553.333 344.833 574 356.5 c 128
 594.667 368.167 612 380 626 392 c 128
 640 404 653 422.333 665 447 c 1
 659 509 643.333 560.167 618 600.5 c 128
 592.667 640.833 557.667 661 513 661 c 0
EndSplineSet
Substitution: 1 0 'vert' uni2468.vert
EndChar
StartChar: uni2469
Encoding: 9321 9321 1313
Width: 1024
Flags: W
Fore
44 382 m 0
 44 510.667 90 621.167 182 713.5 c 128
 274 805.833 384.667 852 514 852 c 0
 642.667 852 753.167 805.833 845.5 713.5 c 128
 937.833 621.167 984 510.667 984 382 c 0
 984 252.667 937.833 142 845.5 50 c 128
 753.167 -42 642.667 -88 514 -88 c 0
 384.667 -88 274 -42 182 50 c 128
 90 142 44 252.667 44 382 c 0
77 382 m 0
 77 261.333 119.667 158.333 205 73 c 128
 290.333 -12.3333 393.333 -55 514 -55 c 0
 634 -55 736.833 -12.3333 822.5 73 c 128
 908.167 158.333 951 261.333 951 382 c 0
 951 502 908.167 604.833 822.5 690.5 c 128
 736.833 776.167 634 819 514 819 c 0
 393.333 819 290.333 776.167 205 690.5 c 128
 119.667 604.833 77 502 77 382 c 0
446 86 m 1
 446 63 l 1
 374 65 302.333 65 231 63 c 1
 231 86 l 1
 282.333 92.6667 308 107.333 308 130 c 2
 308 587 l 2
 308 605.667 297.333 615 276 615 c 2
 214 615 l 1
 214 637 l 1
 266 641 309.667 662.333 345 701 c 1
 369 701 l 1
 369 646 l 1
 369 130 l 2
 369 107.333 394.667 92.6667 446 86 c 1
479 377 m 0
 479 465 497.833 540.167 535.5 602.5 c 128
 573.167 664.833 615.667 696 663 696 c 0
 709.667 696 752 664.833 790 602.5 c 128
 828 540.167 847 465 847 377 c 0
 847 288.333 828 212.833 790 150.5 c 128
 752 88.1667 709.667 57 663 57 c 0
 615.667 57 573.167 88.1667 535.5 150.5 c 128
 497.833 212.833 479 288.333 479 377 c 0
546 377 m 0
 546 295 557 226.667 579 172 c 128
 601 117.333 629 90 663 90 c 0
 696.333 90 724.167 117.333 746.5 172 c 128
 768.833 226.667 780 295 780 377 c 0
 780 461 768.833 529.667 746.5 583 c 128
 724.167 636.333 696.333 663 663 663 c 0
 629 663 601 636.333 579 583 c 128
 557 529.667 546 461 546 377 c 0
EndSplineSet
Substitution: 1 0 'vert' uni2469.vert
EndChar
StartChar: uni246A
Encoding: 9322 9322 1314
Width: 1024
Flags: W
Fore
44 382 m 0
 44 510.667 90 621.167 182 713.5 c 128
 274 805.833 384.667 852 514 852 c 0
 642.667 852 753.167 805.833 845.5 713.5 c 128
 937.833 621.167 984 510.667 984 382 c 0
 984 252.667 937.833 142 845.5 50 c 128
 753.167 -42 642.667 -88 514 -88 c 0
 384.667 -88 274 -42 182 50 c 128
 90 142 44 252.667 44 382 c 0
77 382 m 0
 77 261.333 119.667 158.333 205 73 c 128
 290.333 -12.3333 393.333 -55 514 -55 c 0
 634 -55 736.833 -12.3333 822.5 73 c 128
 908.167 158.333 951 261.333 951 382 c 0
 951 502 908.167 604.833 822.5 690.5 c 128
 736.833 776.167 634 819 514 819 c 0
 393.333 819 290.333 776.167 205 690.5 c 128
 119.667 604.833 77 502 77 382 c 0
450 86 m 1
 450 63 l 1
 378 65 306.333 65 235 63 c 1
 235 86 l 1
 286.333 92.6667 312 107.333 312 130 c 2
 312 587 l 2
 312 605.667 301.333 615 280 615 c 2
 218 615 l 1
 218 637 l 1
 270 641 313.667 662.333 349 701 c 1
 373 701 l 1
 373 646 l 1
 373 130 l 2
 373 107.333 398.667 92.6667 450 86 c 1
806 86 m 1
 806 63 l 1
 734 65 662.333 65 591 63 c 1
 591 86 l 1
 642.333 92.6667 668 107.333 668 130 c 2
 668 587 l 2
 668 605.667 657.333 615 636 615 c 2
 574 615 l 1
 574 637 l 1
 626 641 669.667 662.333 705 701 c 1
 729 701 l 1
 729 646 l 1
 729 130 l 2
 729 107.333 754.667 92.6667 806 86 c 1
EndSplineSet
Substitution: 1 0 'vert' uni246A.vert
EndChar
StartChar: uni246B
Encoding: 9323 9323 1315
Width: 1024
Flags: W
Fore
44 382 m 0
 44 510.667 90 621.167 182 713.5 c 128
 274 805.833 384.667 852 514 852 c 0
 642.667 852 753.167 805.833 845.5 713.5 c 128
 937.833 621.167 984 510.667 984 382 c 0
 984 252.667 937.833 142 845.5 50 c 128
 753.167 -42 642.667 -88 514 -88 c 0
 384.667 -88 274 -42 182 50 c 128
 90 142 44 252.667 44 382 c 0
77 382 m 0
 77 261.333 119.667 158.333 205 73 c 128
 290.333 -12.3333 393.333 -55 514 -55 c 0
 634 -55 736.833 -12.3333 822.5 73 c 128
 908.167 158.333 951 261.333 951 382 c 0
 951 502 908.167 604.833 822.5 690.5 c 128
 736.833 776.167 634 819 514 819 c 0
 393.333 819 290.333 776.167 205 690.5 c 128
 119.667 604.833 77 502 77 382 c 0
654 696 m 0
 699.333 696 739.5 680.5 774.5 649.5 c 128
 809.5 618.5 827 583.667 827 545 c 0
 827 511.667 815.667 478.667 793 446 c 128
 770.333 413.333 742.833 380.333 710.5 347 c 128
 662 297 662 297 597.5 228 c 128
 554.5 182 533 145 533 117 c 1
 723 117 l 2
 739 117 755.333 121.5 772 130.5 c 128
 788.667 139.5 806.333 171 825 225 c 1
 840 222 l 1
 826.667 158 816.667 105 810 63 c 1
 704.667 64.3333 592.333 64.3333 473 63 c 1
 473 122.333 497.5 179.5 546.5 234.5 c 128
 595.5 289.5 636.167 333 668.5 365 c 128
 700.833 397 724.167 427.5 738.5 456.5 c 128
 752.833 485.5 760 515.333 760 546 c 0
 760 579.333 748.333 607.333 725 630 c 128
 701.667 652.667 678 664 654 664 c 0
 628 664 608.167 659.833 594.5 651.5 c 128
 580.833 643.167 569 632.5 559 619.5 c 128
 549 606.5 546.5 594.5 551.5 583.5 c 128
 556.5 572.5 560 562 562 552 c 128
 564 542 560.5 533 551.5 525 c 128
 542.5 517 533.667 513.833 525 515.5 c 128
 516.333 517.167 508.333 520.833 501 526.5 c 128
 493.667 532.167 489.167 540.5 487.5 551.5 c 128
 485.833 562.5 487.167 574.5 491.5 587.5 c 128
 495.833 600.5 505.167 615.333 519.5 632 c 128
 533.833 648.667 551 663.5 571 676.5 c 128
 591 689.5 618.667 696 654 696 c 0
442 86 m 1
 442 63 l 1
 370 65 298.333 65 227 63 c 1
 227 86 l 1
 278.333 92.6667 304 107.333 304 130 c 2
 304 587 l 2
 304 605.667 293.333 615 272 615 c 2
 210 615 l 1
 210 637 l 1
 262 641 305.667 662.333 341 701 c 1
 365 701 l 1
 365 646 l 1
 365 130 l 2
 365 107.333 390.667 92.6667 442 86 c 1
EndSplineSet
Substitution: 1 0 'vert' uni246B.vert
EndChar
StartChar: uni246C
Encoding: 9324 9324 1316
Width: 1024
Flags: W
Fore
44 382 m 0
 44 510.667 90 621.167 182 713.5 c 128
 274 805.833 384.667 852 514 852 c 0
 642.667 852 753.167 805.833 845.5 713.5 c 128
 937.833 621.167 984 510.667 984 382 c 0
 984 252.667 937.833 142 845.5 50 c 128
 753.167 -42 642.667 -88 514 -88 c 0
 384.667 -88 274 -42 182 50 c 128
 90 142 44 252.667 44 382 c 0
77 382 m 0
 77 261.333 119.667 158.333 205 73 c 128
 290.333 -12.3333 393.333 -55 514 -55 c 0
 634 -55 736.833 -12.3333 822.5 73 c 128
 908.167 158.333 951 261.333 951 382 c 0
 951 502 908.167 604.833 822.5 690.5 c 128
 736.833 776.167 634 819 514 819 c 0
 393.333 819 290.333 776.167 205 690.5 c 128
 119.667 604.833 77 502 77 382 c 0
442 86 m 1
 442 63 l 1
 370 65 298.333 65 227 63 c 1
 227 86 l 1
 278.333 92.6667 304 107.333 304 130 c 2
 304 587 l 2
 304 605.667 293.333 615 272 615 c 2
 210 615 l 1
 210 637 l 1
 262 641 305.667 662.333 341 701 c 1
 365 701 l 1
 365 646 l 1
 365 130 l 2
 365 107.333 390.667 92.6667 442 86 c 1
648 696 m 0
 696 696 738.333 680.667 775 650 c 128
 811.667 619.333 830 584.333 830 545 c 0
 830 503 812.5 470.5 777.5 447.5 c 128
 742.5 424.5 714.333 410.667 693 406 c 1
 726.333 401.333 761.833 385.833 799.5 359.5 c 128
 837.167 333.167 856 292.333 856 237 c 0
 856 193.667 837 152.833 799 114.5 c 128
 761 76.1667 710.667 57 648 57 c 0
 608 57 576 62.6667 552 74 c 128
 528 85.3333 507.667 100.167 491 118.5 c 128
 474.333 136.833 465 155.333 463 174 c 128
 461 192.667 463.5 206.833 470.5 216.5 c 128
 477.5 226.167 486 232.5 496 235.5 c 128
 506 238.5 516 237 526 231 c 128
 536 225 542.167 217.667 544.5 209 c 128
 546.833 200.333 545.667 191.833 541 183.5 c 128
 536.333 175.167 531.833 166.167 527.5 156.5 c 128
 523.167 146.833 524.667 137 532 127 c 128
 539.333 117 553.667 108.5 575 101.5 c 128
 596.333 94.5 620.667 91 648 91 c 0
 690.667 91 724.833 105.667 750.5 135 c 128
 776.167 164.333 789 198.667 789 238 c 0
 789 285.333 774.5 322.5 745.5 349.5 c 128
 716.5 376.5 664.333 390 589 390 c 1
 589 421 l 1
 653 421 698 432.833 724 456.5 c 128
 750 480.167 763 509.667 763 545 c 0
 763 579 751.667 607.167 729 629.5 c 128
 706.333 651.833 679.333 663 648 663 c 0
 624.667 663 605.833 660.667 591.5 656 c 128
 577.167 651.333 564.667 643.667 554 633 c 128
 543.333 622.333 538.833 612.333 540.5 603 c 128
 542.167 593.667 545.167 584 549.5 574 c 128
 553.833 564 554 555.5 550 548.5 c 128
 546 541.5 541 536.667 535 534 c 128
 529 531.333 521.667 531 513 533 c 128
 504.333 535 497.167 539.5 491.5 546.5 c 128
 485.833 553.5 482.167 562.333 480.5 573 c 128
 478.833 583.667 480.667 594.667 486 606 c 128
 491.333 617.333 501.333 630.333 516 645 c 128
 530.667 659.667 548.667 671.833 570 681.5 c 128
 591.333 691.167 617.333 696 648 696 c 0
EndSplineSet
Substitution: 1 0 'vert' uni246C.vert
EndChar
StartChar: uni246D
Encoding: 9325 9325 1317
Width: 1024
Flags: W
Fore
44 382 m 0
 44 510.667 90 621.167 182 713.5 c 128
 274 805.833 384.667 852 514 852 c 0
 642.667 852 753.167 805.833 845.5 713.5 c 128
 937.833 621.167 984 510.667 984 382 c 0
 984 252.667 937.833 142 845.5 50 c 128
 753.167 -42 642.667 -88 514 -88 c 0
 384.667 -88 274 -42 182 50 c 128
 90 142 44 252.667 44 382 c 0
77 382 m 0
 77 261.333 119.667 158.333 205 73 c 128
 290.333 -12.3333 393.333 -55 514 -55 c 0
 634 -55 736.833 -12.3333 822.5 73 c 128
 908.167 158.333 951 261.333 951 382 c 0
 951 502 908.167 604.833 822.5 690.5 c 128
 736.833 776.167 634 819 514 819 c 0
 393.333 819 290.333 776.167 205 690.5 c 128
 119.667 604.833 77 502 77 382 c 0
442 86 m 1
 442 63 l 1
 370 65 298.333 65 227 63 c 1
 227 86 l 1
 278.333 92.6667 304 107.333 304 130 c 2
 304 587 l 2
 304 605.667 293.333 615 272 615 c 2
 210 615 l 1
 210 637 l 1
 262 641 305.667 662.333 341 701 c 1
 365 701 l 1
 365 646 l 1
 365 130 l 2
 365 107.333 390.667 92.6667 442 86 c 1
824 255 m 1
 824 222 l 1
 738 222 l 1
 738 130 l 2
 738 107.333 761.667 92.6667 809 86 c 1
 809 63 l 1
 741.667 65 670.667 65 596 63 c 1
 596 86 l 1
 650 92.6667 677 107.333 677 130 c 2
 677 222 l 1
 415 222 l 1
 415 253 l 1
 693 701 l 1
 738 701 l 1
 738 255 l 1
 824 255 l 1
677 609 m 1
 458 255 l 1
 677 255 l 1
 677 609 l 1
EndSplineSet
Substitution: 1 0 'vert' uni246D.vert
EndChar
StartChar: uni246E
Encoding: 9326 9326 1318
Width: 1024
Flags: W
Fore
44 382 m 0
 44 510.667 90 621.167 182 713.5 c 128
 274 805.833 384.667 852 514 852 c 0
 642.667 852 753.167 805.833 845.5 713.5 c 128
 937.833 621.167 984 510.667 984 382 c 0
 984 252.667 937.833 142 845.5 50 c 128
 753.167 -42 642.667 -88 514 -88 c 0
 384.667 -88 274 -42 182 50 c 128
 90 142 44 252.667 44 382 c 0
77 382 m 0
 77 261.333 119.667 158.333 205 73 c 128
 290.333 -12.3333 393.333 -55 514 -55 c 0
 634 -55 736.833 -12.3333 822.5 73 c 128
 908.167 158.333 951 261.333 951 382 c 0
 951 502 908.167 604.833 822.5 690.5 c 128
 736.833 776.167 634 819 514 819 c 0
 393.333 819 290.333 776.167 205 690.5 c 128
 119.667 604.833 77 502 77 382 c 0
442 86 m 1
 442 63 l 1
 370 65 298.333 65 227 63 c 1
 227 86 l 1
 278.333 92.6667 304 107.333 304 130 c 2
 304 587 l 2
 304 605.667 293.333 615 272 615 c 2
 210 615 l 1
 210 637 l 1
 262 641 305.667 662.333 341 701 c 1
 365 701 l 1
 365 646 l 1
 365 130 l 2
 365 107.333 390.667 92.6667 442 86 c 1
507 694 m 1
 607.667 692 710.667 692 816 694 c 1
 816 684 l 1
 806 677.333 796.333 662.667 787 640 c 1
 549 640 l 1
 547.667 579.333 542.333 501 533 405 c 1
 548.333 420.333 567.333 433.167 590 443.5 c 128
 612.667 453.833 639.667 459 671 459 c 0
 709.667 459 749 441 789 405 c 128
 829 369 849 322.667 849 266 c 0
 849 212 829.333 163.667 790 121 c 128
 750.667 78.3333 701 57 641 57 c 0
 599.667 57 567.667 62.5 545 73.5 c 128
 522.333 84.5 502.333 99.3333 485 118 c 128
 467.667 136.667 458 155.833 456 175.5 c 128
 454 195.167 456.5 210.167 463.5 220.5 c 128
 470.5 230.833 479 237.333 489 240 c 128
 499 242.667 509 240.833 519 234.5 c 128
 529 228.167 535.833 220.333 539.5 211 c 128
 543.167 201.667 542.5 193.167 537.5 185.5 c 128
 532.5 177.833 528.5 171.5 525.5 166.5 c 128
 522.5 161.5 520.833 156 520.5 150 c 128
 520.167 144 525 135.5 535 124.5 c 128
 545 113.5 559 105 577 99 c 128
 595 93 616.333 90 641 90 c 0
 679.667 90 712.833 107.167 740.5 141.5 c 128
 768.167 175.833 782 217.333 782 266 c 0
 782 314.667 770.667 353.667 748 383 c 128
 725.333 412.333 699.667 427 671 427 c 0
 647.667 427 625 422.833 603 414.5 c 128
 581 406.167 555.333 386.333 526 355 c 1
 487 359 l 1
 499.667 475.667 506.333 587.333 507 694 c 1
EndSplineSet
Substitution: 1 0 'vert' uni246E.vert
EndChar
StartChar: uni246F
Encoding: 9327 9327 1319
Width: 1024
Flags: W
Fore
44 382 m 0
 44 510.667 90 621.167 182 713.5 c 128
 274 805.833 384.667 852 514 852 c 0
 642.667 852 753.167 805.833 845.5 713.5 c 128
 937.833 621.167 984 510.667 984 382 c 0
 984 252.667 937.833 142 845.5 50 c 128
 753.167 -42 642.667 -88 514 -88 c 0
 384.667 -88 274 -42 182 50 c 128
 90 142 44 252.667 44 382 c 0
77 382 m 0
 77 261.333 119.667 158.333 205 73 c 128
 290.333 -12.3333 393.333 -55 514 -55 c 0
 634 -55 736.833 -12.3333 822.5 73 c 128
 908.167 158.333 951 261.333 951 382 c 0
 951 502 908.167 604.833 822.5 690.5 c 128
 736.833 776.167 634 819 514 819 c 0
 393.333 819 290.333 776.167 205 690.5 c 128
 119.667 604.833 77 502 77 382 c 0
442 86 m 1
 442 63 l 1
 370 65 298.333 65 227 63 c 1
 227 86 l 1
 278.333 92.6667 304 107.333 304 130 c 2
 304 587 l 2
 304 605.667 293.333 615 272 615 c 2
 210 615 l 1
 210 637 l 1
 262 641 305.667 662.333 341 701 c 1
 365 701 l 1
 365 646 l 1
 365 130 l 2
 365 107.333 390.667 92.6667 442 86 c 1
650 695 m 0
 680.667 695 705.5 691 724.5 683 c 128
 743.5 675 761.167 664.5 777.5 651.5 c 128
 793.833 638.5 804.5 625.667 809.5 613 c 128
 814.5 600.333 816.833 589 816.5 579 c 128
 816.167 569 813.167 559.333 807.5 550 c 128
 801.833 540.667 791.5 535.667 776.5 535 c 128
 761.5 534.333 751.167 539.167 745.5 549.5 c 128
 739.833 559.833 739 569.667 743 579 c 128
 747 588.333 749.333 597 750 605 c 128
 750.667 613 747.667 621.833 741 631.5 c 128
 734.333 641.167 723.333 649.333 708 656 c 128
 692.667 662.667 674.333 666 653 666 c 0
 618.333 666 586.667 639.333 558 586 c 128
 529.333 532.667 515 465 515 383 c 2
 515 363 l 1
 521.667 371.667 529.833 381.667 539.5 393 c 128
 549.167 404.333 564 415.667 584 427 c 128
 604 438.333 632.333 444 669 444 c 0
 718.333 444 760 424.833 794 386.5 c 128
 828 348.167 845 302.333 845 249 c 0
 845 202.333 826.5 158.667 789.5 118 c 128
 752.5 77.3333 706 57 650 57 c 0
 594 57 546.5 82.8333 507.5 134.5 c 128
 468.5 186.167 449 268.667 449 382 c 0
 449 473.333 469.667 548.333 511 607 c 128
 552.333 665.667 598.667 695 650 695 c 0
650 90 m 0
 686.667 90 717.667 107.333 743 142 c 128
 768.333 176.667 781 212.333 781 249 c 0
 781 291 772.333 328.667 755 362 c 128
 737.667 395.333 709 412 669 412 c 0
 641 412 618 407.333 600 398 c 128
 582 388.667 566.5 376.667 553.5 362 c 128
 540.5 347.333 529.333 324.333 520 293 c 1
 523.333 243 535.833 196.667 557.5 154 c 128
 579.167 111.333 610 90 650 90 c 0
EndSplineSet
Substitution: 1 0 'vert' uni246F.vert
EndChar
StartChar: uni2470
Encoding: 9328 9328 1320
Width: 1024
Flags: W
Fore
44 382 m 0
 44 510.667 90 621.167 182 713.5 c 128
 274 805.833 384.667 852 514 852 c 0
 642.667 852 753.167 805.833 845.5 713.5 c 128
 937.833 621.167 984 510.667 984 382 c 0
 984 252.667 937.833 142 845.5 50 c 128
 753.167 -42 642.667 -88 514 -88 c 0
 384.667 -88 274 -42 182 50 c 128
 90 142 44 252.667 44 382 c 0
77 382 m 0
 77 261.333 119.667 158.333 205 73 c 128
 290.333 -12.3333 393.333 -55 514 -55 c 0
 634 -55 736.833 -12.3333 822.5 73 c 128
 908.167 158.333 951 261.333 951 382 c 0
 951 502 908.167 604.833 822.5 690.5 c 128
 736.833 776.167 634 819 514 819 c 0
 393.333 819 290.333 776.167 205 690.5 c 128
 119.667 604.833 77 502 77 382 c 0
442 86 m 1
 442 63 l 1
 370 65 298.333 65 227 63 c 1
 227 86 l 1
 278.333 92.6667 304 107.333 304 130 c 2
 304 587 l 2
 304 605.667 293.333 615 272 615 c 2
 210 615 l 1
 210 637 l 1
 262 641 305.667 662.333 341 701 c 1
 365 701 l 1
 365 646 l 1
 365 130 l 2
 365 107.333 390.667 92.6667 442 86 c 1
619 57 m 0
 597 57 585.833 74.1667 585.5 108.5 c 128
 585.167 142.833 590.667 183 602 229 c 128
 613.333 275 630 322 652 370 c 128
 674 418 700.167 468.667 730.5 522 c 128
 760.833 575.333 776 615.667 776 643 c 1
 561 643 l 2
 538.333 643 519.333 637.5 504 626.5 c 128
 488.667 615.5 471.667 583.667 453 531 c 1
 437 535 l 1
 452.333 596.333 462.667 649.333 468 694 c 1
 574.667 692 690.667 692 816 694 c 1
 816 636.667 799.5 579 766.5 521 c 128
 733.5 463 708.833 410.167 692.5 362.5 c 128
 676.167 314.833 666 269 662 225 c 128
 658 181 655.333 142 654 108 c 128
 652.667 74 641 57 619 57 c 0
EndSplineSet
Substitution: 1 0 'vert' uni2470.vert
EndChar
StartChar: uni2471
Encoding: 9329 9329 1321
Width: 1024
Flags: W
Fore
44 382 m 0
 44 510.667 90 621.167 182 713.5 c 128
 274 805.833 384.667 852 514 852 c 0
 642.667 852 753.167 805.833 845.5 713.5 c 128
 937.833 621.167 984 510.667 984 382 c 0
 984 252.667 937.833 142 845.5 50 c 128
 753.167 -42 642.667 -88 514 -88 c 0
 384.667 -88 274 -42 182 50 c 128
 90 142 44 252.667 44 382 c 0
77 382 m 0
 77 261.333 119.667 158.333 205 73 c 128
 290.333 -12.3333 393.333 -55 514 -55 c 0
 634 -55 736.833 -12.3333 822.5 73 c 128
 908.167 158.333 951 261.333 951 382 c 0
 951 502 908.167 604.833 822.5 690.5 c 128
 736.833 776.167 634 819 514 819 c 0
 393.333 819 290.333 776.167 205 690.5 c 128
 119.667 604.833 77 502 77 382 c 0
442 86 m 1
 442 63 l 1
 370 65 298.333 65 227 63 c 1
 227 86 l 1
 278.333 92.6667 304 107.333 304 130 c 2
 304 587 l 2
 304 605.667 293.333 615 272 615 c 2
 210 615 l 1
 210 637 l 1
 262 641 305.667 662.333 341 701 c 1
 365 701 l 1
 365 646 l 1
 365 130 l 2
 365 107.333 390.667 92.6667 442 86 c 1
657 57 m 0
 606.333 57 558.333 73.1667 513 105.5 c 128
 467.667 137.833 445 178.667 445 228 c 0
 445 270.667 460.5 306 491.5 334 c 128
 522.5 362 558.667 384.333 600 401 c 1
 567.333 419 538.5 439.667 513.5 463 c 128
 488.5 486.333 476 518 476 558 c 0
 476 596 494.333 629.333 531 658 c 128
 567.667 686.667 607.333 701 650 701 c 0
 696.667 701 737.833 686.667 773.5 658 c 128
 809.167 629.333 827 596 827 558 c 0
 827 522 813.5 492.167 786.5 468.5 c 128
 759.5 444.833 730 426 698 412 c 1
 752 390 792.167 365.167 818.5 337.5 c 128
 844.833 309.833 858 273.333 858 228 c 0
 858 179.333 838 138.667 798 106 c 128
 758 73.3333 711 57 657 57 c 0
512 228 m 0
 512 186.667 527 153.333 557 128 c 128
 587 102.667 620.333 90 657 90 c 0
 697 90 729.333 103 754 129 c 128
 778.667 155 791 188 791 228 c 0
 791 252 781 277 761 303 c 128
 741 329 697.333 356.667 630 386 c 1
 586 368 555.333 347 538 323 c 128
 520.667 299 512 267.333 512 228 c 0
760 558 m 0
 760 590.667 749.5 617.167 728.5 637.5 c 128
 707.5 657.833 681.333 668 650 668 c 0
 622 668 597 657.833 575 637.5 c 128
 553 617.167 542 590.667 542 558 c 0
 542 526 553.167 500.333 575.5 481 c 128
 597.833 461.667 628.667 443 668 425 c 1
 696 437 718.333 453.167 735 473.5 c 128
 751.667 493.833 760 522 760 558 c 0
EndSplineSet
Substitution: 1 0 'vert' uni2471.vert
EndChar
StartChar: uni2472
Encoding: 9330 9330 1322
Width: 1024
Flags: W
Fore
44 382 m 0
 44 510.667 90 621.167 182 713.5 c 128
 274 805.833 384.667 852 514 852 c 0
 642.667 852 753.167 805.833 845.5 713.5 c 128
 937.833 621.167 984 510.667 984 382 c 0
 984 252.667 937.833 142 845.5 50 c 128
 753.167 -42 642.667 -88 514 -88 c 0
 384.667 -88 274 -42 182 50 c 128
 90 142 44 252.667 44 382 c 0
77 382 m 0
 77 261.333 119.667 158.333 205 73 c 128
 290.333 -12.3333 393.333 -55 514 -55 c 0
 634 -55 736.833 -12.3333 822.5 73 c 128
 908.167 158.333 951 261.333 951 382 c 0
 951 502 908.167 604.833 822.5 690.5 c 128
 736.833 776.167 634 819 514 819 c 0
 393.333 819 290.333 776.167 205 690.5 c 128
 119.667 604.833 77 502 77 382 c 0
442 86 m 1
 442 63 l 1
 370 65 298.333 65 227 63 c 1
 227 86 l 1
 278.333 92.6667 304 107.333 304 130 c 2
 304 587 l 2
 304 605.667 293.333 615 272 615 c 2
 210 615 l 1
 210 637 l 1
 262 641 305.667 662.333 341 701 c 1
 365 701 l 1
 365 646 l 1
 365 130 l 2
 365 107.333 390.667 92.6667 442 86 c 1
655 663 m 0
 617.667 663 586.5 645.667 561.5 611 c 128
 536.5 576.333 524 540.667 524 504 c 0
 524 462 532.667 424.333 550 391 c 128
 567.333 357.667 596 341 636 341 c 0
 664 341 686.833 345.667 704.5 355 c 128
 722.167 364.333 737.667 376.333 751 391 c 128
 764.333 405.667 775.667 428.667 785 460 c 1
 781.667 510 769.167 556.333 747.5 599 c 128
 725.833 641.667 695 663 655 663 c 0
655 58 m 0
 624.333 58 599.5 62 580.5 70 c 128
 561.5 78 543.833 88.3333 527.5 101 c 128
 511.167 113.667 500.5 126.5 495.5 139.5 c 128
 490.5 152.5 488.167 164 488.5 174 c 128
 488.833 184 491.833 193.667 497.5 203 c 128
 503.167 212.333 513.5 217.333 528.5 218 c 128
 543.5 218.667 553.833 213.833 559.5 203.5 c 128
 565.167 193.167 566 183.333 562 174 c 128
 558 164.667 555.667 156 555 148 c 128
 554.333 140 557.333 131.167 564 121.5 c 128
 570.667 111.833 581.667 103.667 597 97 c 128
 612.333 90.3333 630.667 87 652 87 c 0
 686.667 87 718.333 113.667 747 167 c 128
 775.667 220.333 790 288 790 370 c 2
 790 390 l 1
 783.333 381.333 775.167 371.333 765.5 360 c 128
 755.833 348.667 741 337.333 721 326 c 128
 701 314.667 672.667 309 636 309 c 0
 586.667 309 545 328.167 511 366.5 c 128
 477 404.833 460 450.667 460 504 c 0
 460 550.667 478.5 594.333 515.5 635 c 128
 552.5 675.667 599 696 655 696 c 0
 710.333 696 757.667 670.167 797 618.5 c 128
 836.333 566.833 856 484.333 856 371 c 0
 856 279.667 835.167 204.667 793.5 146 c 128
 751.833 87.3333 705.667 58 655 58 c 0
EndSplineSet
Substitution: 1 0 'vert' uni2472.vert
EndChar
StartChar: uni2473
Encoding: 9331 9331 1323
Width: 1024
Flags: W
Fore
34 381 m 0
 34 512.333 80.3333 624.5 173 717.5 c 128
 265.667 810.5 378 857 510 857 c 0
 641.333 857 753.5 810.5 846.5 717.5 c 128
 939.5 624.5 986 512.333 986 381 c 0
 986 249 939.5 136.667 846.5 44 c 128
 753.5 -48.6667 641.333 -95 510 -95 c 0
 378 -95 265.667 -48.6667 173 44 c 128
 80.3333 136.667 34 249 34 381 c 0
79 380 m 0
 79 259.333 120 158 202 76 c 1
 202 149 l 1
 346 354 l 1
 400 428 427 487 427 531 c 0
 427 564.333 420.333 589 407 605 c 128
 393.667 621 372 629 342 629 c 0
 320 629 301 621 285 605 c 128
 269 589 261 560.333 261 519 c 1
 189 519 l 1
 189 577 206.167 622 240.5 654 c 128
 274.833 686 308.667 702 342 702 c 0
 385.333 702 422.5 686.833 453.5 656.5 c 128
 484.5 626.167 500 584 500 530 c 0
 500 477.333 472.667 413.333 418 338 c 1
 277 138 l 1
 476 138 l 1
 464 57 l 1
 222 57 l 1
 301.333 -14.3333 397.333 -50 510 -50 c 0
 630.667 -50 732.667 -8.66667 816 74 c 128
 899.333 156.667 941 258.667 941 380 c 0
 941 500.667 899.333 602.833 816 686.5 c 128
 732.667 770.167 630.667 812 510 812 c 0
 388.667 812 286.5 770.167 203.5 686.5 c 128
 120.5 602.833 79 500.667 79 380 c 0
522 377 m 0
 522 467 538.833 543.667 572.5 607 c 128
 606.167 670.333 646.667 702 694 702 c 0
 741.333 702 781.833 670.333 815.5 607 c 128
 849.167 543.667 866 467 866 377 c 0
 866 286.333 849.167 209.333 815.5 146 c 128
 781.833 82.6667 741.333 51 694 51 c 0
 646.667 51 606.167 82.6667 572.5 146 c 128
 538.833 209.333 522 286.333 522 377 c 0
599 377 m 0
 599 293 608.833 229.833 628.5 187.5 c 128
 648.167 145.167 670 124 694 124 c 0
 718 124 739.833 145.167 759.5 187.5 c 128
 779.167 229.833 789 293 789 377 c 0
 789 463 779.167 526.5 759.5 567.5 c 128
 739.833 608.5 718 629 694 629 c 0
 670 629 648.167 608.5 628.5 567.5 c 128
 608.833 526.5 599 463 599 377 c 0
EndSplineSet
Substitution: 1 0 'vert' uni2473.vert
EndChar
StartChar: SF100000
Encoding: 9472 9472 1443
Width: 1024
Flags: W
Fore
0 373 m 1
 0 408 l 1
 1024 408 l 1
 1024 373 l 1
 0 373 l 1
EndSplineSet
Substitution: 1 0 'vert' SF100000.vert
EndChar
StartChar: uni2501
Encoding: 9473 9473 1444
Width: 1024
Flags: W
Fore
0 356 m 1
 0 425 l 1
 1024 425 l 1
 1024 356 l 1
 0 356 l 1
EndSplineSet
Substitution: 1 0 'vert' uni2501.vert
EndChar
StartChar: SF110000
Encoding: 9474 9474 1445
Width: 1024
Flags: W
Fore
529 -144 m 1
 493 -144 l 1
 493 880 l 1
 529 880 l 1
 529 -144 l 1
EndSplineSet
Substitution: 1 0 'vert' SF110000.vert
EndChar
StartChar: uni2503
Encoding: 9475 9475 1446
Width: 1024
Flags: W
Fore
546 -144 m 1
 476 -144 l 1
 476 880 l 1
 546 880 l 1
 546 -144 l 1
EndSplineSet
Substitution: 1 0 'vert' uni2503.vert
EndChar
StartChar: SF010000
Encoding: 9484 9484 1455
Width: 1024
Flags: W
Fore
529 -144 m 1
 493 -144 l 1
 493 408 l 1
 1024 408 l 1
 1024 373 l 1
 529 373 l 1
 529 -144 l 1
EndSplineSet
Substitution: 1 0 'vert' SF010000.vert
EndChar
StartChar: uni250F
Encoding: 9487 9487 1458
Width: 1024
Flags: W
Fore
546 -144 m 1
 476 -144 l 1
 476 425 l 1
 1024 425 l 1
 1024 356 l 1
 546 356 l 1
 546 -144 l 1
EndSplineSet
Substitution: 1 0 'vert' uni250F.vert
EndChar
StartChar: SF030000
Encoding: 9488 9488 1459
Width: 1024
Flags: W
Fore
0 373 m 1
 0 408 l 1
 529 408 l 1
 529 -144 l 1
 493 -144 l 1
 493 373 l 1
 0 373 l 1
EndSplineSet
Substitution: 1 0 'vert' SF030000.vert
EndChar
StartChar: uni2513
Encoding: 9491 9491 1462
Width: 1024
Flags: W
Fore
0 356 m 1
 0 425 l 1
 546 425 l 1
 546 -144 l 1
 476 -144 l 1
 476 356 l 1
 0 356 l 1
EndSplineSet
Substitution: 1 0 'vert' uni2513.vert
EndChar
StartChar: SF020000
Encoding: 9492 9492 1463
Width: 1024
Flags: W
Fore
1024 408 m 1
 1024 373 l 1
 493 373 l 1
 493 880 l 1
 529 880 l 1
 529 408 l 1
 1024 408 l 1
EndSplineSet
Substitution: 1 0 'vert' SF020000.vert
EndChar
StartChar: uni2517
Encoding: 9495 9495 1466
Width: 1024
Flags: W
Fore
476 356 m 1
 476 880 l 1
 546 880 l 1
 546 425 l 1
 1024 425 l 1
 1024 356 l 1
 476 356 l 1
EndSplineSet
Substitution: 1 0 'vert' uni2517.vert
EndChar
StartChar: SF040000
Encoding: 9496 9496 1467
Width: 1024
Flags: W
Fore
0 373 m 1
 0 408 l 1
 493 408 l 1
 493 880 l 1
 529 880 l 1
 529 373 l 1
 0 373 l 1
EndSplineSet
Substitution: 1 0 'vert' SF040000.vert
EndChar
StartChar: uni251B
Encoding: 9499 9499 1470
Width: 1024
Flags: W
Fore
0 356 m 1
 0 425 l 1
 476 425 l 1
 476 880 l 1
 546 880 l 1
 546 356 l 1
 0 356 l 1
EndSplineSet
Substitution: 1 0 'vert' uni251B.vert
EndChar
StartChar: SF080000
Encoding: 9500 9500 1471
Width: 1024
Flags: W
Fore
1024 373 m 1
 529 373 l 1
 529 -144 l 1
 493 -144 l 1
 493 880 l 1
 529 880 l 1
 529 408 l 1
 1024 408 l 1
 1024 373 l 1
EndSplineSet
Substitution: 1 0 'vert' SF080000.vert
EndChar
StartChar: uni251D
Encoding: 9501 9501 1472
Width: 1024
Flags: W
Fore
529 -144 m 1
 493 -144 l 1
 493 880 l 1
 529 880 l 1
 529 425 l 1
 1024 425 l 1
 1024 356 l 1
 529 356 l 1
 529 -144 l 1
EndSplineSet
Substitution: 1 0 'vert' uni251D.vert
EndChar
StartChar: uni2520
Encoding: 9504 9504 1475
Width: 1024
Flags: W
Fore
546 -144 m 1
 476 -144 l 1
 476 880 l 1
 546 880 l 1
 546 408 l 1
 1024 408 l 1
 1024 373 l 1
 546 373 l 1
 546 -144 l 1
EndSplineSet
Substitution: 1 0 'vert' uni2520.vert
EndChar
StartChar: uni2523
Encoding: 9507 9507 1478
Width: 1024
Flags: W
Fore
546 -144 m 1
 476 -144 l 1
 476 880 l 1
 546 880 l 1
 546 425 l 1
 1024 425 l 1
 1024 356 l 1
 546 356 l 1
 546 -144 l 1
EndSplineSet
Substitution: 1 0 'vert' uni2523.vert
EndChar
StartChar: SF090000
Encoding: 9508 9508 1479
Width: 1024
Flags: W
Fore
0 373 m 1
 0 408 l 1
 493 408 l 1
 493 880 l 1
 529 880 l 1
 529 -144 l 1
 493 -144 l 1
 493 373 l 1
 0 373 l 1
EndSplineSet
Substitution: 1 0 'vert' SF090000.vert
EndChar
StartChar: uni2525
Encoding: 9509 9509 1480
Width: 1024
Flags: W
Fore
0 356 m 1
 0 425 l 1
 493 425 l 1
 493 880 l 1
 529 880 l 1
 529 -144 l 1
 493 -144 l 1
 493 356 l 1
 0 356 l 1
EndSplineSet
Substitution: 1 0 'vert' uni2525.vert
EndChar
StartChar: uni2528
Encoding: 9512 9512 1483
Width: 1024
Flags: W
Fore
0 373 m 1
 0 408 l 1
 476 408 l 1
 476 880 l 1
 546 880 l 1
 546 -144 l 1
 476 -144 l 1
 476 373 l 1
 0 373 l 1
EndSplineSet
Substitution: 1 0 'vert' uni2528.vert
EndChar
StartChar: uni252B
Encoding: 9515 9515 1486
Width: 1024
Flags: W
Fore
0 356 m 1
 0 425 l 1
 476 425 l 1
 476 880 l 1
 546 880 l 1
 546 -144 l 1
 476 -144 l 1
 476 356 l 1
 0 356 l 1
EndSplineSet
Substitution: 1 0 'vert' uni252B.vert
EndChar
StartChar: SF060000
Encoding: 9516 9516 1487
Width: 1024
Flags: W
Fore
0 373 m 1
 0 408 l 1
 1024 408 l 1
 1024 373 l 1
 529 373 l 1
 529 -144 l 1
 493 -144 l 1
 493 373 l 1
 0 373 l 1
EndSplineSet
Substitution: 1 0 'vert' SF060000.vert
EndChar
StartChar: uni252F
Encoding: 9519 9519 1490
Width: 1024
Flags: W
Fore
0 356 m 1
 0 425 l 1
 1024 425 l 1
 1024 356 l 1
 529 356 l 1
 529 -144 l 1
 493 -144 l 1
 493 356 l 1
 0 356 l 1
EndSplineSet
Substitution: 1 0 'vert' uni252F.vert
EndChar
StartChar: uni2530
Encoding: 9520 9520 1491
Width: 1024
Flags: W
Fore
0 373 m 1
 0 408 l 1
 1024 408 l 1
 1024 373 l 1
 546 373 l 1
 546 -144 l 1
 476 -144 l 1
 476 373 l 1
 0 373 l 1
EndSplineSet
Substitution: 1 0 'vert' uni2530.vert
EndChar
StartChar: uni2533
Encoding: 9523 9523 1494
Width: 1024
Flags: W
Fore
0 356 m 1
 0 425 l 1
 1024 425 l 1
 1024 356 l 1
 546 356 l 1
 546 -144 l 1
 476 -144 l 1
 476 356 l 1
 0 356 l 1
EndSplineSet
Substitution: 1 0 'vert' uni2533.vert
EndChar
StartChar: SF070000
Encoding: 9524 9524 1495
Width: 1024
Flags: W
Fore
0 373 m 1
 0 408 l 1
 493 408 l 1
 493 880 l 1
 529 880 l 1
 529 408 l 1
 1024 408 l 1
 1024 373 l 1
 0 373 l 1
EndSplineSet
Substitution: 1 0 'vert' SF070000.vert
EndChar
StartChar: uni2537
Encoding: 9527 9527 1498
Width: 1024
Flags: W
Fore
0 356 m 1
 0 425 l 1
 493 425 l 1
 493 880 l 1
 529 880 l 1
 529 425 l 1
 1024 425 l 1
 1024 356 l 1
 0 356 l 1
EndSplineSet
Substitution: 1 0 'vert' uni2537.vert
EndChar
StartChar: uni2538
Encoding: 9528 9528 1499
Width: 1024
Flags: W
Fore
0 373 m 1
 0 408 l 1
 476 408 l 1
 476 880 l 1
 546 880 l 1
 546 408 l 1
 1024 408 l 1
 1024 373 l 1
 0 373 l 1
EndSplineSet
Substitution: 1 0 'vert' uni2538.vert
EndChar
StartChar: uni253B
Encoding: 9531 9531 1502
Width: 1024
Flags: W
Fore
0 356 m 1
 0 425 l 1
 476 425 l 1
 476 880 l 1
 546 880 l 1
 546 425 l 1
 1024 425 l 1
 1024 356 l 1
 0 356 l 1
EndSplineSet
Substitution: 1 0 'vert' uni253B.vert
EndChar
StartChar: SF050000
Encoding: 9532 9532 1503
Width: 1024
Flags: W
Fore
0 373 m 1
 0 408 l 1
 493 408 l 1
 493 880 l 1
 529 880 l 1
 529 408 l 1
 1024 408 l 1
 1024 373 l 1
 529 373 l 1
 529 -144 l 1
 493 -144 l 1
 493 373 l 1
 0 373 l 1
EndSplineSet
Substitution: 1 0 'vert' SF050000.vert
EndChar
StartChar: uni253F
Encoding: 9535 9535 1506
Width: 1024
Flags: W
Fore
0 356 m 1
 0 425 l 1
 493 425 l 1
 493 880 l 1
 529 880 l 1
 529 425 l 1
 1024 425 l 1
 1024 356 l 1
 529 356 l 1
 529 -144 l 1
 493 -144 l 1
 493 356 l 1
 0 356 l 1
EndSplineSet
Substitution: 1 0 'vert' uni253F.vert
EndChar
StartChar: uni2542
Encoding: 9538 9538 1509
Width: 1024
Flags: W
Fore
0 373 m 1
 0 408 l 1
 476 408 l 1
 476 880 l 1
 546 880 l 1
 546 408 l 1
 1024 408 l 1
 1024 373 l 1
 546 373 l 1
 546 -144 l 1
 476 -144 l 1
 476 373 l 1
 0 373 l 1
EndSplineSet
Substitution: 1 0 'vert' uni2542.vert
EndChar
StartChar: uni254B
Encoding: 9547 9547 1518
Width: 1024
Flags: W
Fore
0 356 m 1
 0 425 l 1
 476 425 l 1
 476 880 l 1
 546 880 l 1
 546 425 l 1
 1024 425 l 1
 1024 356 l 1
 546 356 l 1
 546 -144 l 1
 476 -144 l 1
 476 356 l 1
 0 356 l 1
EndSplineSet
Substitution: 1 0 'vert' uni254B.vert
EndChar
StartChar: filledbox
Encoding: 9632 9632 1593
Width: 1024
Flags: W
Fore
838 712 m 2
 849.333 712 855 706.667 855 696 c 2
 855 27 l 2
 855 16.3333 849.333 11 838 11 c 2
 174 11 l 2
 162.667 11 157 16.3333 157 27 c 2
 157 696 l 2
 157 706.667 162.667 712 174 712 c 2
 838 712 l 2
EndSplineSet
Substitution: 1 0 'vert' filledbox.vert
EndChar
StartChar: H22073
Encoding: 9633 9633 1594
Width: 1024
Flags: W
Fore
838 714 m 2
 849.333 714 855 708.667 855 698 c 2
 855 29 l 2
 855 18.3333 849.333 13 838 13 c 2
 174 13 l 2
 162.667 13 157 18.3333 157 29 c 2
 157 698 l 2
 157 708.667 162.667 714 174 714 c 2
 838 714 l 2
201 670 m 1
 201 57 l 1
 811 57 l 1
 811 670 l 1
 201 670 l 1
838 714 m 2
 849.333 714 855 708.667 855 698 c 2
 855 29 l 2
 855 18.3333 849.333 13 838 13 c 2
 174 13 l 2
 162.667 13 157 18.3333 157 29 c 2
 157 698 l 2
 157 708.667 162.667 714 174 714 c 2
 838 714 l 2
201 670 m 1
 201 57 l 1
 811 57 l 1
 811 670 l 1
 201 670 l 1
EndSplineSet
Substitution: 1 0 'vert' H22073.vert
EndChar
StartChar: triagup
Encoding: 9650 9650 1611
Width: 1024
Flags: W
Fore
105 17 m 2
 89 17 84.3333 24.3333 91 39 c 1
 493 798 l 1
 503.667 814.667 514.333 814.667 525 798 c 1
 926 42 l 1
 933.333 25.3333 927.667 17 909 17 c 2
 105 17 l 2
EndSplineSet
Substitution: 1 0 'vert' triagup.vert
EndChar
StartChar: uni25B3
Encoding: 9651 9651 1612
Width: 1024
Flags: W
Fore
159 73 m 1
 155.667 65 158 61 166 61 c 2
 847 61 l 2
 857 61 860 65.3333 856 74 c 1
 515 720 l 1
 511 728.667 507 728.667 503 720 c 1
 159 73 l 1
105 17 m 2
 89 17 84.3333 24.3333 91 39 c 1
 493 798 l 1
 503.667 814.667 514.333 814.667 525 798 c 1
 926 42 l 1
 933.333 25.3333 927.667 17 909 17 c 2
 105 17 l 2
EndSplineSet
Substitution: 1 0 'vert' uni25B3.vert
EndChar
StartChar: triagdn
Encoding: 9660 9660 1621
Width: 1024
Flags: W
Fore
105 745 m 2
 909 745 l 2
 927.667 745 933.333 736.667 926 720 c 1
 525 -36 l 1
 514.333 -52.6667 503.667 -52.6667 493 -36 c 1
 91 723 l 1
 84.3333 737.667 89 745 105 745 c 2
EndSplineSet
Substitution: 1 0 'vert' triagdn.vert
EndChar
StartChar: uni25BD
Encoding: 9661 9661 1622
Width: 1024
Flags: W
Fore
105 745 m 2
 909 745 l 2
 927.667 745 933.333 736.667 926 720 c 1
 525 -36 l 1
 514.333 -52.6667 503.667 -52.6667 493 -36 c 1
 91 723 l 1
 84.3333 737.667 89 745 105 745 c 2
159 689 m 1
 503 42 l 1
 507 33.3333 511 33.3333 515 42 c 1
 856 688 l 1
 860 696.667 857 701 847 701 c 2
 166 701 l 2
 158 701 155.667 697 159 689 c 1
EndSplineSet
Substitution: 1 0 'vert' uni25BD.vert
EndChar
StartChar: uni25C6
Encoding: 9670 9670 1631
Width: 1024
Flags: W
Fore
494 809 m 2
 501.333 817 509 817.333 517 810 c 2
 956 371 l 2
 962.667 363.667 962.333 356.333 955 349 c 2
 516 -91 l 2
 509.333 -97.6667 502.333 -97.6667 495 -91 c 1
 56 349 l 2
 48.6667 356.333 48.6667 363.667 56 371 c 2
 494 809 l 2
EndSplineSet
Substitution: 1 0 'vert' uni25C6.vert
EndChar
StartChar: uni25C7
Encoding: 9671 9671 1632
Width: 1024
Flags: W
Fore
494 809 m 2
 501.333 817 509 817.333 517 810 c 2
 956 371 l 2
 962.667 363.667 962.333 356.333 955 349 c 2
 516 -91 l 2
 509.333 -97.6667 502.333 -97.6667 495 -91 c 1
 56 349 l 2
 48.6667 356.333 48.6667 363.667 56 371 c 2
 494 809 l 2
111 360 m 1
 506 -37 l 1
 900 359 l 1
 505 754 l 1
 111 360 l 1
EndSplineSet
Substitution: 1 0 'vert' uni25C7.vert
EndChar
